<?xml version="1.0" encoding="UTF-8" standalone="no"?><!-- Generator: Gravit.io --><svg xmlns="http://www.w3.org/2000/svg" xmlns:xlink="http://www.w3.org/1999/xlink" style="isolation:isolate" viewBox="0 0 512 512" width="512pt" height="512pt"><defs><clipPath id="_clipPath_eSxXZ9aUn5wgUCtKi6Vurz13xI5zo33x"><rect width="512" height="512"/></clipPath></defs><g clip-path="url(#_clipPath_eSxXZ9aUn5wgUCtKi6Vurz13xI5zo33x)"><path d=" M 364.108 153.946 C 348.293 147.98 325.644 139.041 303.019 128.913 C 264.527 111.706 239.706 116.955 212.197 138.663 L 126.866 138.663 L 126.866 138.663 C 127.32 135.255 127.688 131.996 127.957 128.914 C 128.235 125.671 127.04 122.471 124.672 120.253 L 124.672 120.253 C 106.389 102.93 33.28 97.319 11.307 96.018 C 8.278 95.869 5.483 96.871 3.35 98.898 C 1.216 100.903 0 103.719 0 106.663 L 0 298.663 C 0 304.551 4.779 309.33 10.667 309.33 L 74.667 309.33 C 79.275 309.33 83.371 306.365 84.8 301.97 C 85.024 301.282 85.979 298.353 87.294 294.195 C 89.642 296.599 92.363 299.449 95.189 302.395 C 104.704 312.336 114.538 322.619 121.152 328.166 C 160.875 361.425 208.619 397.329 218.133 403.579 C 225.984 408.742 242.901 415.995 256 415.995 C 266.517 415.995 274.603 413.584 280.213 408.87 C 287.722 411.793 296.256 411.814 304.469 408.614 C 314.176 404.859 322.154 397.286 326.677 388.113 C 335.082 389.905 344.704 388.646 353.45 384.252 C 362.005 379.943 368.191 373.351 371.263 365.649 C 379.754 366.097 388.5 363.089 395.732 356.881 C 405.487 348.539 409.61 336.501 407.305 324.52 L 424.186 313.182 C 425.375 317.017 426.344 320.278 427.05 322.834 C 428.33 327.463 432.533 330.663 437.333 330.663 L 501.333 330.663 C 507.221 330.663 512 325.884 512 319.996 L 512 127.996 C 512 122.087 507.221 117.33 501.333 117.33 L 501.333 117.33 C 417.578 117.33 371.114 138.77 369.173 139.666 C 366.4 140.967 364.33 143.378 363.477 146.301 C 362.732 148.854 362.963 151.569 364.108 153.946 Z  M 376.955 181.456 C 366.259 177.639 330.246 164.49 294.294 148.412 C 256.534 131.537 238.657 140.22 203.99 174.908 C 189.42 189.479 178.177 211.282 180.417 220.647 C 180.737 222.012 181.334 223.442 184.662 224.551 C 195.094 228.049 210.71 229.969 225.793 207.42 C 227.564 204.775 230.422 203.068 233.601 202.748 C 240.791 202.023 242.583 201.212 247.916 198.823 C 251.414 197.266 255.852 195.261 263.041 192.658 C 266.902 191.271 271.275 192.21 274.198 195.154 C 285.867 206.823 304.171 221.628 323.542 237.287 C 352.91 261.046 383.149 285.506 397.862 305.16 L 417.351 292.069 C 406.4 259.227 389.479 211.907 376.955 181.456 Z  M 123.316 159.997 L 188.736 159.997 C 174.163 174.655 154.539 204.016 159.637 225.575 C 161.834 234.791 168.32 241.618 177.962 244.796 C 202.133 252.775 224.191 245.137 240.618 223.335 C 247.402 222.29 251.093 220.754 256.639 218.258 C 258.644 217.362 260.991 216.317 264.106 215.058 C 276.309 226.514 292.778 239.847 310.122 253.863 C 341.482 279.228 377.045 307.986 385.045 324.626 C 388.992 332.839 384.746 338.194 381.866 340.647 C 377.831 344.112 372.375 345.318 369.164 343.5 C 361.307 337.232 327.399 302.517 306.389 280.616 C 302.314 276.349 295.552 276.2 291.306 280.296 C 287.039 284.371 286.911 291.133 290.986 295.379 C 295.933 300.538 335.792 342.085 351.794 356.676 C 350.571 361.307 346.074 364.069 343.893 365.159 C 337.164 368.565 330.145 368.034 327.393 365.648 C 327.17 365.423 326.93 365.212 326.677 365.01 C 313.898 354.791 281.792 320.679 274.538 312.786 C 270.527 308.434 263.807 308.178 259.455 312.146 C 255.124 316.135 254.826 322.898 258.815 327.229 C 259.162 327.595 290.448 361.372 308.171 377.252 C 306.172 382.318 301.938 386.691 296.788 388.689 C 293.575 389.907 288.936 390.649 284.744 386.964 C 284.578 386.802 284.404 386.645 284.224 386.493 C 269.013 373.672 237.888 340.541 231.808 334.034 C 227.776 329.725 221.013 329.49 216.725 333.522 C 212.416 337.554 212.202 344.295 216.213 348.605 C 223.428 356.33 244.955 379.166 261.091 394.366 C 259.741 394.552 258.064 394.662 255.999 394.662 C 248.895 394.662 236.116 389.862 229.866 385.723 C 222.378 380.795 175.423 345.766 134.869 311.803 C 129.173 307.003 119.317 296.72 110.613 287.632 C 104.238 280.976 98.315 274.829 94.439 271.204 C 103.399 241.586 116.24 196.62 123.316 159.997 L 123.316 159.997 Z  M 66.88 287.997 L 21.333 287.997 L 21.333 118.098 C 55.616 120.807 92.608 126.695 106.048 133.223 C 100.395 179.943 74.816 262.951 66.88 287.997 L 66.88 287.997 L 66.88 287.997 Z  M 490.667 309.33 L 445.312 309.33 C 435.2 276.391 405.333 190.503 388.672 155.005 C 404.949 149.48 439.915 139.986 490.667 138.792 L 490.667 309.33 L 490.667 309.33 L 490.667 309.33 Z " fill-rule="evenodd" fill="rgb(90,90,90)"/></g></svg>