<?xml version="1.0" encoding="UTF-8" standalone="no"?><!-- Generator: Gravit.io --><svg xmlns="http://www.w3.org/2000/svg" xmlns:xlink="http://www.w3.org/1999/xlink" style="isolation:isolate" viewBox="0 0 2000 1600" width="2000pt" height="1600pt"><defs><clipPath id="_clipPath_jJFoe4SxVCumupmDfbeXWJxtfENAJR6A"><rect width="2000" height="1600"/></clipPath></defs><g clip-path="url(#_clipPath_jJFoe4SxVCumupmDfbeXWJxtfENAJR6A)"><g style="isolation:isolate"><g><path d=" M -457.944 -19.387 C -468.266 -22.791 -454.174 -4.234 -447.883 -0.453 C -441.569 3.345 -428.949 3.345 -427.666 9.635 C -426.428 15.976 -422.636 31.096 -416.322 29.825 C -410.009 28.559 -410.009 14.699 -415.045 9.635 C -420.097 4.61 -439.01 -10.548 -442.808 -10.548 C -446.606 -10.548 -454.174 -18.11 -457.944 -19.387 Z  M 59.3 22.268 C 59.3 29.047 71.9 29.825 79.451 26.055 C 87.047 22.268 98.407 19.763 103.456 18.492 C 108.494 17.215 105.981 24.761 117.318 24.761 C 128.69 24.761 142.563 28.559 146.361 27.321 C 150.137 26.055 161.486 10.924 152.638 9.635 C 143.803 8.387 129.952 -0.453 122.401 -8.01 C 114.828 -15.573 97.156 2.085 80.724 8.387 C 64.338 14.699 59.3 12.201 59.3 22.268 Z  M 190.506 119.399 C 193.383 125.156 206.926 120.664 214.477 113.085 C 222.039 105.517 238.448 103.012 243.52 96.666 C 248.501 90.386 252.322 91.669 264.922 86.611 C 277.555 81.546 287.653 80.309 282.604 73.978 C 277.555 67.687 251.06 73.978 247.284 71.486 C 243.52 68.959 216.99 99.225 216.99 99.225 C 216.99 99.225 194.304 108.054 193.019 111.83 C 191.768 115.612 186.73 111.83 190.506 119.399 Z  M 119.843 119.399 C 132.465 120.786 132.465 103.012 131.203 97.943 C 129.952 92.89 129.952 71.486 135.024 67.687 C 140.005 63.895 146.361 52.546 160.223 51.269 C 174.085 50.008 182.955 60.108 181.659 71.486 C 180.396 82.829 184.195 94.173 189.244 94.173 C 194.304 94.173 209.417 85.334 204.368 77.776 C 199.33 70.203 208.143 44.956 208.143 53.806 C 208.143 62.635 218.275 68.959 224.575 67.687 C 230.898 66.427 218.275 43.7 209.417 42.452 C 200.592 41.185 182.955 41.185 179.157 42.452 C 175.37 43.7 153.912 36.115 143.803 37.398 C 133.75 38.665 118.603 42.452 113.554 52.546 C 108.494 62.635 113.554 81.546 112.292 89.109 C 111.053 96.666 108.494 118.138 119.843 119.399 Z  M -1035.774 -256.559 C -1035.774 -256.559 -1035.774 -256.559 -1028.184 -250.228 C -1020.638 -243.949 -1008.011 -241.439 -996.668 -240.162 C -985.279 -238.885 -985.279 -246.441 -994.13 -254.01 C -1002.936 -261.572 -1005.496 -260.357 -1013.064 -261.572 C -1020.638 -262.849 -1021.871 -270.423 -1042.043 -270.423 C -1062.259 -270.423 -1059.722 -280.506 -1062.259 -285.56 C -1064.775 -290.623 -1044.602 -288.097 -1039.527 -286.847 C -1034.475 -285.56 -1014.324 -302.001 -1014.324 -302.001 C -1014.324 -302.001 -981.509 -314.571 -977.733 -312.067 C -973.935 -309.557 -955.001 -314.571 -946.195 -317.12 C -937.344 -319.635 -932.314 -333.506 -932.314 -333.506 C -932.314 -333.506 -920.948 -329.702 -914.634 -323.411 C -908.343 -317.12 -894.439 -323.411 -890.67 -323.411 C -886.894 -323.411 -867.96 -310.784 -867.96 -310.784 C -867.96 -310.784 -842.735 -310.784 -832.645 -312.067 C -822.54 -313.332 -796.055 -313.332 -785.949 -310.784 C -775.882 -308.28 -730.462 -305.776 -725.387 -305.776 C -720.356 -305.776 -695.153 -296.937 -678.735 -300.724 C -662.31 -304.505 -654.765 -298.186 -650.967 -296.937 C -647.219 -295.664 -643.421 -295.664 -637.086 -288.097 C -630.795 -280.506 -624.487 -286.847 -615.635 -291.883 C -606.829 -296.937 -608.068 -302.001 -608.068 -302.001 C -608.068 -302.001 -608.068 -302.001 -600.494 -303.239 C -592.926 -304.505 -587.895 -300.724 -566.441 -299.43 C -544.99 -298.186 -550.044 -303.239 -534.924 -308.28 C -519.766 -313.332 -504.624 -302.001 -499.571 -303.239 C -494.54 -304.505 -488.227 -314.571 -484.43 -309.557 C -480.637 -304.505 -474.368 -294.399 -474.368 -294.399 C -474.368 -294.399 -457.944 -307.003 -452.914 -307.003 C -447.883 -307.003 -432.702 -302.001 -423.874 -303.239 C -415.045 -304.505 -380.992 -304.505 -373.418 -298.186 C -365.872 -291.883 -346.937 -293.149 -336.848 -286.847 C -326.765 -280.506 -316.655 -291.883 -321.707 -294.399 C -326.765 -296.937 -339.364 -307.003 -339.364 -307.003 C -339.364 -307.003 -358.304 -329.702 -360.818 -333.506 C -363.312 -337.281 -367.11 -337.281 -372.163 -327.192 C -377.215 -317.12 -396.127 -317.12 -417.582 -315.843 C -439.01 -314.571 -425.151 -325.915 -449.121 -327.192 C -473.086 -328.464 -464.235 -337.281 -456.689 -337.281 C -449.121 -337.281 -444.085 -352.439 -441.569 -361.28 C -439.01 -370.119 -430.203 -368.842 -412.53 -367.57 C -394.912 -366.305 -389.836 -370.119 -372.163 -367.57 C -354.506 -365.044 -355.766 -375.133 -338.109 -373.894 C -320.452 -372.623 -329.28 -370.119 -319.175 -363.784 C -309.086 -357.487 -302.773 -358.742 -288.914 -352.439 C -275.032 -346.121 -280.063 -346.121 -273.755 -344.839 C -267.442 -343.606 -245.993 -347.376 -233.41 -348.647 C -220.784 -349.891 -210.678 -351.195 -204.365 -343.606 C -198.052 -336.031 -199.312 -327.192 -190.462 -320.907 C -181.656 -314.571 -195.537 -343.606 -195.537 -353.689 C -195.537 -363.784 -177.879 -354.966 -166.513 -354.966 C -155.153 -354.966 -142.571 -358.742 -140.033 -353.689 C -137.496 -348.647 -156.43 -341.068 -145.087 -329.702 C -133.72 -318.347 -126.152 -314.571 -116.063 -314.571 C -105.98 -314.571 -83.27 -312.067 -93.353 -298.186 C -103.442 -284.316 -129.906 -285.56 -138.751 -285.56 C -147.601 -285.56 -162.744 -280.506 -158.945 -272.95 C -155.153 -265.376 -134.981 -269.163 -121.116 -269.163 C -107.213 -269.163 -64.352 -265.376 -53.005 -269.163 C -41.622 -272.95 -44.158 -288.097 -56.781 -291.883 C -69.388 -295.664 -59.3 -303.239 -46.66 -300.724 C -34.026 -298.186 -21.449 -304.505 -23.974 -300.724 C -26.487 -296.937 -22.689 -288.097 -22.689 -278.002 C -22.689 -267.913 -18.936 -261.572 -10.112 -264.132 C -1.265 -266.636 -0.002 -267.913 8.833 -269.163 C 17.68 -270.423 12.62 -291.883 7.548 -303.239 C 2.556 -314.571 -1.265 -320.907 -0.002 -327.192 C 1.283 -333.506 15.145 -334.754 22.684 -328.464 C 30.28 -322.14 40.367 -309.557 40.367 -309.557 C 40.367 -309.557 55.525 -300.724 60.563 -290.623 C 65.612 -280.506 66.874 -283.033 76.961 -289.358 C 87.047 -295.664 89.56 -294.399 98.407 -288.097 C 107.254 -281.783 100.92 -269.163 100.92 -265.376 C 100.92 -261.572 113.554 -265.376 116.045 -272.95 C 118.603 -280.506 128.69 -280.506 135.024 -283.033 C 141.29 -285.56 141.29 -300.724 141.29 -300.724 C 141.29 -300.724 124.892 -304.505 108.494 -303.239 C 92.119 -302.001 87.047 -304.505 74.459 -313.332 C 61.836 -322.14 69.387 -328.464 63.076 -337.281 C 56.765 -346.121 83.272 -351.195 99.67 -358.742 C 116.045 -366.305 132.465 -361.28 128.69 -342.345 C 124.892 -323.411 122.401 -325.915 141.29 -329.702 C 160.223 -333.506 140.005 -349.891 148.863 -351.195 C 157.71 -352.439 180.396 -356.215 187.993 -354.966 C 195.543 -353.689 237.163 -358.742 247.284 -358.742 C 257.382 -358.742 273.757 -349.891 285.117 -343.606 C 296.489 -337.281 326.76 -328.464 334.311 -324.688 C 341.884 -320.907 394.865 -313.332 399.925 -312.067 C 404.985 -310.784 404.985 -295.664 410.012 -283.033 C 415.083 -270.423 428.945 -279.246 433.983 -279.246 C 439.032 -279.246 456.703 -270.423 461.741 -264.132 C 466.779 -257.786 504.646 -252.778 504.646 -252.778 C 504.646 -252.778 495.822 -241.439 492.024 -237.647 C 488.248 -233.848 479.401 -231.322 471.85 -226.269 C 464.266 -221.227 455.43 -227.541 445.32 -233.848 C 435.257 -240.162 417.562 -243.949 413.81 -241.439 C 410.012 -238.885 412.57 -233.848 415.083 -230.079 C 417.562 -226.269 433.983 -221.227 444.092 -213.654 C 454.168 -206.063 451.654 -198.495 452.917 -188.429 C 454.168 -178.323 442.807 -192.216 430.208 -194.72 C 417.562 -197.235 416.323 -184.658 416.323 -184.658 C 416.323 -184.658 399.925 -185.891 392.352 -185.891 C 384.789 -185.891 392.352 -185.891 378.478 -196.003 C 364.616 -206.063 367.129 -189.666 359.556 -194.72 C 352.005 -199.784 344.443 -207.346 340.622 -204.83 C 336.824 -202.293 324.224 -216.175 316.64 -214.915 C 309.066 -213.654 278.829 -218.723 271.278 -216.175 C 263.671 -213.654 257.382 -213.654 251.06 -211.128 C 244.726 -208.59 242.235 -228.806 246.011 -235.098 C 249.786 -241.439 258.633 -242.666 275.031 -238.885 C 291.406 -235.098 292.691 -238.885 296.489 -245.214 C 300.264 -251.505 304.028 -257.786 321.689 -262.849 C 339.394 -267.913 320.46 -271.7 315.423 -274.204 C 310.34 -276.731 304.028 -281.783 300.264 -274.204 C 296.489 -266.636 287.653 -257.786 287.653 -257.786 C 287.653 -257.786 277.555 -257.786 263.671 -259.063 C 249.786 -260.357 259.895 -265.376 266.207 -267.913 C 272.495 -270.423 280.091 -285.56 273.757 -289.358 C 267.457 -293.149 264.922 -295.664 253.584 -293.149 C 242.235 -290.623 249.786 -302.001 242.235 -305.776 C 234.673 -309.557 237.163 -303.239 237.163 -298.186 C 237.163 -293.149 225.815 -294.399 225.815 -294.399 C 225.815 -294.399 208.143 -296.937 201.855 -294.399 C 195.543 -291.883 184.195 -286.847 187.993 -283.033 C 191.768 -279.246 204.368 -279.246 208.143 -267.913 C 211.941 -256.559 191.768 -254.01 187.993 -252.778 C 184.195 -251.505 169.059 -246.441 169.059 -246.441 C 169.059 -246.441 153.912 -250.228 141.29 -250.228 C 128.69 -250.228 124.892 -248.99 127.428 -243.949 C 129.952 -238.885 136.263 -241.439 140.005 -241.439 C 143.803 -241.439 143.803 -235.098 155.174 -237.647 C 166.535 -240.162 164.021 -243.949 174.085 -233.848 C 184.195 -223.754 194.304 -225.031 210.702 -216.175 C 227.077 -207.346 208.143 -197.235 199.33 -197.235 C 190.506 -197.235 190.506 -204.83 185.445 -212.377 C 180.396 -219.979 160.223 -211.128 160.223 -211.128 C 160.223 -211.128 143.803 -202.293 135.024 -202.293 C 126.177 -202.293 119.843 -203.57 131.203 -212.377 C 142.563 -221.227 117.318 -222.504 117.318 -235.098 C 117.318 -247.724 112.292 -222.504 112.292 -216.175 C 112.292 -209.884 102.205 -214.915 80.724 -212.377 C 59.3 -209.884 63.076 -202.293 35.306 -184.658 C 7.548 -166.979 1.283 -163.192 3.773 -146.785 C 6.32 -130.389 12.62 -135.441 23.969 -132.904 C 35.306 -130.389 31.52 -111.477 40.367 -112.754 C 49.214 -113.981 55.525 -120.321 73.185 -111.477 C 90.845 -102.648 99.67 -100.115 121.116 -96.345 C 142.563 -92.57 156.437 -86.234 167.82 -88.766 C 179.157 -91.293 186.73 -87.506 186.73 -78.666 C 186.73 -69.827 194.304 -68.571 193.019 -57.206 C 191.768 -45.862 206.926 -67.333 206.926 -67.333 C 206.926 -67.333 213.192 -48.355 208.143 -45.862 C 203.128 -43.347 209.417 -32.003 215.739 -33.224 C 222.039 -34.518 230.898 -29.454 238.448 -35.784 C 246.011 -42.075 234.673 -60.981 234.673 -68.571 C 234.673 -76.129 227.077 -79.916 223.302 -87.506 C 219.503 -95.074 233.388 -96.345 238.448 -88.766 C 243.52 -81.193 252.322 -87.506 261.158 -93.819 C 269.982 -100.115 269.982 -111.477 269.982 -111.477 C 269.982 -111.477 254.858 -131.666 243.52 -136.691 C 232.126 -141.755 237.163 -143.009 248.501 -145.53 C 259.895 -148.067 248.501 -151.838 251.06 -165.719 C 253.584 -179.606 253.584 -188.429 259.895 -188.429 C 266.207 -188.429 288.893 -192.216 307.827 -190.939 C 326.76 -189.666 335.596 -175.819 348.218 -174.537 C 360.818 -173.31 380.991 -170.766 384.789 -164.464 C 388.565 -158.161 370.905 -156.884 379.752 -146.785 C 388.565 -136.691 389.838 -137.956 398.663 -134.164 C 407.499 -130.389 417.562 -132.904 428.945 -148.067 C 440.34 -163.192 445.32 -164.464 449.096 -161.938 C 452.917 -159.423 476.899 -131.666 483.199 -125.335 C 489.51 -119.044 502.11 -105.196 503.361 -98.849 C 504.646 -92.57 522.306 -92.57 527.332 -92.57 C 532.393 -92.57 551.304 -78.666 553.817 -71.087 C 556.375 -63.519 561.413 -60.981 577.788 -57.206 C 594.209 -53.43 577.788 -39.571 574.013 -32.003 C 570.237 -24.407 567.724 -21.891 562.664 -13.063 C 557.638 -4.234 562.664 -13.063 568.964 -9.293 C 575.275 -5.484 577.788 -0.453 587.897 -2.957 C 598.007 -5.484 603.033 -2.957 606.831 4.61 C 610.607 12.201 615.656 18.492 619.454 24.761 C 623.206 31.096 619.454 41.185 614.382 34.894 C 609.367 28.559 592.924 32.334 592.924 32.334 C 592.924 32.334 585.373 39.902 582.86 36.115 C 580.347 32.334 575.275 27.321 566.439 29.825 C 557.638 32.334 548.813 29.825 538.704 31.096 C 528.595 32.334 524.819 26.055 531.13 20.991 C 537.442 15.976 538.704 -2.957 551.304 -10.548 C 563.926 -18.11 560.151 -29.454 551.304 -29.454 C 542.468 -29.454 538.704 -18.11 533.644 -15.573 C 528.595 -13.063 518.508 -13.063 509.661 -6.756 C 500.848 -0.453 479.401 -2.957 488.248 -0.453 C 497.073 2.085 475.626 12.201 468.052 12.201 C 460.467 12.201 463.003 -4.234 463.003 -10.548 C 463.003 -16.861 452.917 -6.756 452.917 -6.756 C 452.917 -6.756 432.721 -18.11 425.159 -10.548 C 417.562 -2.957 406.225 0.818 397.412 8.387 C 388.565 15.976 368.392 28.559 368.392 28.559 C 368.392 28.559 375.954 24.761 391.101 20.991 C 406.225 17.215 404.985 18.492 417.562 12.201 C 430.208 5.871 442.807 3.345 451.654 14.699 C 460.467 26.055 447.89 32.334 447.89 32.334 C 447.89 32.334 452.917 41.185 457.943 43.7 C 463.003 46.238 464.266 41.185 473.09 36.115 C 481.914 31.096 478.139 46.238 480.675 51.269 C 483.199 56.322 492.024 56.322 497.073 50.008 C 502.11 43.7 505.886 38.665 509.661 42.452 C 513.459 46.238 517.268 55.056 521.021 63.895 C 524.819 72.74 494.537 75.255 489.51 76.505 C 484.473 77.776 460.467 82.829 456.703 84.096 C 452.917 85.334 440.34 96.666 430.208 96.666 C 420.121 96.666 421.361 81.546 420.121 72.74 C 418.836 63.895 406.225 73.978 404.985 77.776 C 403.723 81.546 392.352 80.309 383.527 81.546 C 374.703 82.829 359.556 91.669 359.556 101.731 C 359.556 111.83 370.905 116.883 367.129 121.914 C 363.354 126.978 340.622 130.765 331.798 128.238 C 322.973 125.701 310.34 132.019 314.138 137.077 C 317.913 142.108 315.423 149.677 306.576 148.438 C 297.717 147.161 296.489 156.012 300.264 162.291 C 304.028 168.593 288.893 181.203 285.117 176.162 C 281.342 171.137 273.757 168.593 273.757 176.162 C 273.757 183.73 276.27 190.043 283.867 200.138 C 291.406 210.227 267.457 216.568 258.633 224.13 C 249.786 231.687 219.503 256.912 206.926 261.965 C 194.304 267.001 194.304 283.42 200.592 289.7 C 206.926 296.036 214.477 322.493 218.275 331.343 C 222.039 340.195 216.99 365.387 205.641 364.16 C 194.304 362.883 200.592 347.752 189.244 343.965 C 177.883 340.195 171.572 317.474 169.059 302.321 C 166.535 287.196 164.021 296.036 156.437 301.044 C 148.863 306.108 141.29 290.977 137.514 287.196 C 133.75 283.42 112.292 289.7 97.156 288.473 C 82.009 287.196 76.961 294.753 76.961 298.54 C 76.961 302.321 74.459 313.665 60.563 306.108 C 46.701 298.54 44.142 298.54 30.28 298.54 C 16.395 298.54 3.773 297.257 1.283 302.321 C -1.265 307.373 -15.138 318.735 -23.974 321.266 C -32.821 323.787 -49.196 336.408 -41.622 338.901 C -34.026 341.444 -34.026 359.096 -39.109 369.173 C -44.158 379.279 -42.907 396.947 -40.383 414.593 C -37.847 432.278 -22.689 443.622 -8.827 454.977 C 5.035 466.342 10.107 470.129 23.969 460.024 C 37.865 449.936 42.857 456.248 46.701 457.503 C 50.453 458.775 60.563 451.184 56.765 439.841 C 52.989 428.508 61.836 418.385 73.185 419.658 C 84.523 420.935 100.92 415.871 109.756 417.152 C 118.603 418.385 123.63 442.345 109.756 452.45 C 95.894 462.561 103.456 477.708 100.92 489.064 C 98.407 500.397 87.047 502.907 100.92 502.907 C 114.828 502.907 111.053 505.444 119.843 506.688 C 128.69 507.97 137.514 499.13 146.361 497.847 C 155.174 496.626 177.883 516.788 174.085 526.904 C 170.333 536.999 166.535 554.634 167.82 571.027 C 169.059 587.436 174.085 588.721 176.61 593.747 C 179.157 598.808 189.244 610.179 200.592 605.13 C 211.941 600.059 223.302 596.272 227.077 591.223 C 230.898 586.197 254.858 600.059 252.322 603.868 C 249.786 607.621 261.158 611.43 268.697 607.621 C 276.27 603.868 280.091 597.523 287.653 587.436 C 295.204 577.338 307.827 568.537 314.138 567.263 C 320.46 566.024 335.596 550.853 345.66 553.407 C 355.781 555.905 341.884 568.537 340.622 576.087 C 339.394 583.638 340.622 605.13 345.66 606.381 C 350.732 607.621 348.218 591.223 354.507 579.886 C 360.818 568.537 373.418 562.191 379.752 562.191 C 386.04 562.191 391.101 588.721 399.925 581.148 C 408.749 573.574 426.409 574.825 430.208 582.399 C 433.983 589.972 437.77 593.747 437.77 593.747 C 437.77 593.747 444.092 588.721 444.092 582.399 C 444.092 576.087 464.266 569.753 476.899 577.338 C 489.51 584.912 484.473 587.436 490.75 588.721 C 497.073 589.972 503.361 572.312 507.159 571.027 C 510.935 569.753 507.159 591.223 498.335 602.583 C 489.51 613.978 505.886 610.179 505.886 610.179 C 505.886 610.179 505.886 610.179 509.661 613.978 C 513.459 617.73 526.081 610.179 531.13 617.73 C 536.202 625.304 545.038 627.817 552.589 641.724 C 560.151 655.575 571.522 651.777 586.612 649.275 C 601.771 646.739 620.716 656.848 635.829 673.258 C 650.964 689.644 648.474 702.267 658.538 702.267 C 668.647 702.267 671.137 716.129 671.137 721.166 C 671.137 726.204 648.474 737.598 635.829 740.111 C 623.206 742.647 623.206 755.281 643.402 751.483 C 663.587 747.685 654.762 740.111 667.362 736.336 C 679.996 732.538 692.618 741.351 681.27 756.498 C 669.887 771.622 647.189 772.896 667.362 775.397 C 687.558 777.956 676.221 772.896 687.558 757.771 C 698.907 742.647 697.645 747.685 705.252 747.685 C 712.803 747.685 729.167 751.483 735.501 756.498 C 741.846 761.569 758.187 769.12 768.308 775.397 C 778.383 781.731 791.017 779.195 798.568 776.671 C 806.118 774.181 827.599 784.244 835.161 794.342 C 842.712 804.452 861.668 805.714 870.481 809.489 C 879.306 813.276 893.202 828.4 894.441 841.034 C 895.715 853.622 880.579 880.141 879.306 886.452 C 878.066 892.741 857.893 915.461 838.959 930.608 C 820.026 945.732 831.363 963.415 832.648 970.966 C 833.888 978.539 820.026 1006.252 823.824 1012.586 C 827.599 1018.897 818.741 1032.77 811.19 1041.618 C 803.628 1050.453 798.568 1066.817 793.541 1074.368 C 788.504 1081.964 772.083 1079.462 756.948 1083.26 C 741.846 1087.013 734.216 1090.811 734.216 1090.811 C 734.216 1090.811 707.731 1103.445 692.618 1113.509 C 677.494 1123.618 697.645 1141.29 690.071 1155.152 C 682.509 1169.059 674.936 1167.785 667.362 1184.16 C 659.8 1200.57 656.047 1186.73 649.691 1190.483 C 643.402 1194.281 639.627 1204.345 638.353 1214.454 C 637.114 1224.552 624.503 1234.639 608.105 1249.786 C 591.696 1264.91 581.575 1262.386 563.926 1257.359 C 546.266 1252.299 548.813 1209.394 546.266 1215.694 C 543.753 1222.005 545.038 1244.726 547.551 1248.546 C 550.03 1252.299 557.638 1266.184 563.926 1269.959 C 570.237 1273.757 568.964 1280.012 563.926 1286.346 C 558.889 1292.657 545.038 1315.4 539.955 1316.64 C 534.929 1317.89 495.822 1322.951 488.248 1319.175 C 480.675 1315.4 476.899 1327.988 478.139 1335.585 C 479.401 1343.158 485.712 1351.96 471.85 1349.447 C 457.943 1346.933 439.032 1338.098 439.032 1344.363 C 439.032 1350.732 442.807 1364.594 450.404 1364.594 C 457.943 1364.594 465.539 1359.533 461.741 1368.369 C 457.943 1377.205 447.89 1384.778 442.807 1388.576 C 437.77 1392.352 431.458 1404.929 418.836 1413.764 C 406.225 1422.623 406.225 1427.649 408.749 1431.447 C 411.297 1435.222 430.208 1432.709 433.983 1435.222 C 437.77 1437.758 430.208 1455.43 425.159 1459.205 C 420.121 1462.981 398.663 1480.641 389.838 1485.701 C 380.991 1490.75 380.991 1505.874 383.527 1513.448 C 386.04 1521.021 406.225 1539.966 417.562 1543.719 C 428.945 1547.517 452.917 1546.232 450.404 1550.03 C 447.89 1553.805 420.121 1557.604 416.323 1558.866 C 412.57 1560.105 392.352 1565.177 382.254 1565.177 C 372.178 1565.177 353.245 1555.068 349.447 1555.068 C 345.66 1555.068 352.005 1550.03 364.616 1539.966 C 377.216 1529.834 359.556 1518.485 357.043 1532.393 C 354.507 1546.232 349.447 1550.03 343.169 1550.03 C 336.824 1550.03 329.285 1541.16 325.487 1537.385 C 321.689 1533.632 305.313 1529.834 307.827 1514.687 C 310.34 1499.54 300.264 1500.848 292.691 1494.525 C 285.117 1488.214 302.8 1483.199 300.264 1476.842 C 297.717 1470.554 286.38 1474.329 285.117 1465.494 C 283.867 1456.681 295.204 1444.058 296.489 1440.26 C 297.717 1436.485 288.893 1428.934 287.653 1422.623 C 286.38 1416.3 292.691 1409.989 301.515 1399.925 C 310.34 1389.804 316.64 1377.205 316.64 1373.406 C 316.64 1369.631 310.34 1355.735 310.34 1345.671 C 310.34 1335.585 316.64 1331.786 319.198 1317.89 C 321.689 1304.051 310.34 1309.089 310.34 1297.717 C 310.34 1286.346 322.973 1290.144 320.46 1278.818 C 317.913 1267.446 326.76 1259.85 330.536 1252.299 C 334.311 1244.726 338.109 1232.114 343.169 1223.267 C 348.218 1214.454 338.109 1194.281 338.109 1190.483 C 338.109 1186.73 354.507 1181.67 346.933 1174.074 C 339.394 1166.523 349.447 1160.189 357.043 1153.867 C 364.616 1147.601 355.781 1129.918 359.556 1107.243 C 363.354 1084.523 367.129 1045.393 367.129 1041.618 C 367.129 1037.842 368.392 1022.673 362.08 1012.586 C 355.781 1002.477 348.218 994.926 339.394 991.15 C 330.536 987.352 319.198 975.981 312.864 974.764 C 306.576 973.49 276.27 962.142 276.27 944.493 C 276.27 926.787 254.858 912.903 252.322 900.314 C 249.786 887.714 230.898 859.956 229.613 847.345 C 228.35 834.746 201.855 830.947 198.079 817.051 C 194.304 803.167 210.702 793.08 213.192 784.244 C 215.739 775.397 204.368 756.498 203.128 750.198 C 201.855 743.887 222.039 726.204 229.613 722.451 C 237.163 718.653 243.52 702.267 248.501 702.267 C 253.584 702.267 252.322 688.359 257.382 674.474 C 262.408 660.624 254.858 641.724 251.06 639.166 C 247.284 636.641 243.52 620.243 237.163 615.228 C 230.898 610.179 218.275 612.67 218.275 612.67 C 218.275 612.67 220.788 624.019 209.417 630.375 C 198.079 636.641 195.543 629.079 191.768 625.304 C 187.993 621.528 174.085 620.243 167.82 613.978 C 161.486 607.621 151.399 598.808 143.803 595.044 C 136.263 591.223 124.892 587.436 126.177 572.312 C 127.428 557.182 109.756 548.343 104.696 545.838 C 99.67 543.268 89.56 536.999 83.272 540.764 C 76.961 544.551 65.612 533.229 56.765 534.472 C 47.94 535.71 30.28 519.325 23.969 513.001 C 17.68 506.688 12.62 497.847 1.283 497.847 C -10.112 497.847 -11.34 501.634 -18.936 510.474 C -26.487 519.325 -37.847 504.184 -41.622 500.397 C -45.421 496.626 -55.507 495.343 -69.388 495.343 C -83.27 495.343 -93.353 476.443 -98.384 473.916 C -103.442 471.379 -138.751 454.977 -147.601 449.936 C -156.43 444.882 -165.281 425.948 -161.505 420.935 C -157.707 415.871 -167.774 399.474 -167.774 399.474 C -167.774 399.474 -185.47 379.279 -191.766 379.279 C -198.052 379.279 -218.246 343.965 -229.613 333.882 C -240.956 323.787 -267.442 301.044 -272.517 289.7 C -277.548 278.356 -278.83 260.688 -291.406 269.539 C -304.033 278.356 -293.966 287.196 -281.346 297.257 C -268.719 307.373 -271.234 317.474 -253.583 331.343 C -235.925 345.248 -243.472 359.096 -235.925 365.387 C -228.336 371.722 -201.85 386.853 -213.194 396.947 C -224.56 407.031 -235.925 384.32 -240.956 383.066 C -245.993 381.795 -257.376 379.279 -256.099 371.722 C -254.816 364.16 -266.182 357.819 -275.032 346.475 C -283.861 335.142 -287.637 341.444 -298.958 341.444 C -310.347 341.444 -300.235 327.557 -293.966 321.266 C -287.637 314.948 -300.235 306.108 -307.826 303.604 C -315.378 301.044 -325.482 272.076 -335.571 254.386 C -345.7 236.713 -353.245 227.917 -364.595 229.139 C -375.932 230.41 -380.992 216.568 -388.559 211.514 C -396.127 206.45 -407.493 182.475 -420.097 169.87 C -432.702 157.239 -444.085 133.29 -442.808 119.399 C -441.569 105.517 -437.777 70.203 -437.777 61.385 C -437.777 52.546 -444.085 31.096 -444.085 27.321 C -444.085 23.54 -450.398 17.215 -455.429 15.976 C -460.464 14.699 -474.368 -2.957 -485.713 -2.957 C -497.056 -2.957 -504.624 -15.573 -500.848 -24.407 C -497.056 -33.224 -510.915 -48.355 -517.245 -48.355 C -523.541 -48.355 -533.647 -64.785 -537.44 -73.602 C -541.215 -82.453 -551.304 -82.453 -548.783 -77.417 C -546.267 -72.353 -550.044 -63.519 -543.753 -60.981 C -537.44 -58.483 -532.365 -38.299 -537.44 -35.784 C -542.476 -33.224 -553.842 -43.347 -566.441 -49.632 C -579.067 -55.946 -574.014 -81.193 -574.014 -87.506 C -574.014 -93.819 -591.688 -100.115 -599.256 -100.115 C -606.829 -100.115 -614.375 -98.849 -615.635 -115.246 C -616.914 -131.666 -639.645 -140.483 -647.219 -140.483 C -654.765 -140.483 -695.153 -156.884 -707.775 -156.884 C -720.356 -156.884 -741.807 -168.256 -749.396 -163.192 C -756.948 -158.161 -770.829 -172.033 -778.397 -172.033 C -785.949 -172.033 -785.949 -166.979 -799.853 -158.161 C -813.734 -149.322 -818.764 -154.375 -826.333 -148.067 C -833.883 -141.755 -852.818 -135.441 -846.505 -150.582 C -840.236 -165.719 -840.236 -168.256 -850.303 -164.464 C -860.408 -160.688 -862.923 -150.582 -862.923 -144.259 C -862.923 -137.956 -880.581 -127.883 -880.581 -127.883 C -880.581 -127.883 -864.206 -126.602 -857.849 -127.883 C -851.58 -129.112 -856.616 -113.981 -862.923 -110.205 C -869.198 -106.417 -878.066 -96.345 -888.171 -98.849 C -898.238 -101.388 -899.498 -110.205 -905.789 -111.477 C -912.142 -112.754 -925.979 -102.648 -948.688 -91.293 C -971.421 -79.916 -967.622 -88.766 -976.45 -84.968 C -985.279 -81.193 -1016.84 -69.827 -1028.184 -68.571 C -1039.527 -67.333 -1037.035 -82.453 -1030.698 -82.453 C -1024.408 -82.453 -1000.42 -93.819 -994.13 -97.595 C -987.817 -101.388 -960.054 -111.477 -952.508 -115.246 C -944.918 -119.044 -932.314 -125.335 -937.344 -132.904 C -942.38 -140.483 -958.799 -129.112 -958.799 -129.112 C -958.799 -129.112 -971.421 -140.483 -975.173 -143.009 C -978.971 -145.53 -986.562 -132.904 -986.562 -132.904 C -986.562 -132.904 -1002.936 -135.441 -999.16 -149.322 C -995.391 -163.192 -1008.011 -163.192 -1010.51 -156.884 C -1013.064 -150.582 -1034.475 -140.483 -1035.774 -146.785 C -1037.035 -153.098 -1055.947 -165.719 -1060.982 -175.819 C -1066.057 -185.891 -1055.947 -187.162 -1044.602 -196.003 C -1033.258 -204.83 -1016.84 -207.346 -1002.936 -206.063 C -989.077 -204.83 -980.248 -221.227 -985.279 -222.504 C -990.354 -223.754 -999.16 -225.031 -1006.734 -218.723 C -1014.324 -212.377 -1033.258 -213.654 -1033.258 -213.654 C -1033.258 -213.654 -1060.982 -213.654 -1072.343 -221.227 C -1083.692 -228.806 -1090 -240.162 -1090 -240.162 C -1090 -240.162 -1067.29 -248.99 -1049.633 -250.228 L -1035.774 -256.559 Z " fill-rule="evenodd" fill="rgb(255,255,255)" vector-effect="non-scaling-stroke" stroke-width="4" stroke="rgb(202,202,202)" stroke-linejoin="miter" stroke-linecap="square" stroke-miterlimit="3"/></g></g><g style="isolation:isolate"/><path d=" M 556 815 L 392 850 L 254 780 L 320 932 L 320 639 L 481 586 L 711 1082 L 439 1089 L 657 703 L 305 582 L 817 974 L 880 826 L 589 1221 L 392 845 L 337 1268 L 537 1268 L 398 1545 L 337 1268 L 114 544 L 230 591 L 208 352 L 270 206 L 114 544 L 208 358 L 481 586 L 114 544 L 305 582 L 270 206 L 589 1221 L 556 815 Z " fill="none" vector-effect="non-scaling-stroke" stroke-width="3" stroke="rgb(238,238,238)" stroke-linejoin="miter" stroke-linecap="square" stroke-miterlimit="3"/><path d=" M 481 586 L 657 703 L 320 639 L 556 815 L 880 826 L 320 932 L 392 845 L 114 544 L 431 78 L 537 1268 L 439 1089 L 254 780 L 711 1082 L 537 1268 L 589 1221 L 398 1545 L 439 1082 L 337 1268 L 817 964 L 202 347 L 880 826 L 254 780 L 556 815 L 711 1082 L 315 932" fill="none" vector-effect="non-scaling-stroke" stroke-width="3" stroke="rgb(235,235,235)" stroke-linejoin="miter" stroke-linecap="square" stroke-miterlimit="3"/><path d=" M 254 780 L -212 836 L 320 932 L -221 821 L 398 850 L 337 1268 L -178 1153 L -177 1238 L 337 1268 L -85 1107 L 439 1089 L -134 1371 L 398 1545 L -142 1491 L 537 1263 L -181 1295 L 589 1228 L -104 947 L 817 969 L -90 995 L 230 591 L -119 766 L 315 639" fill="none" vector-effect="non-scaling-stroke" stroke-width="3" stroke="rgb(238,238,238)" stroke-linejoin="miter" stroke-linecap="square" stroke-miterlimit="3"/><linearGradient id="_lgradient_0" x1="0.73311192032302" y1="0.4786623992488173" x2="-0.056581486534955316" y2="0.5003236588099603"><stop offset="0.43478260869565216%" stop-opacity="1" style="stop-color:rgb(253,251,251)"/><stop offset="98.26086956521739%" stop-opacity="1" style="stop-color:rgb(235,235,235)"/></linearGradient><path d=" M 2259 1026 L 657 703 L 2165 520 L 320 639 L 2758 336 L 208 352 L 2077 219 L 119 551 L 2104 840 L 711 1089 L 2093 1356 L 817 969 L 2106 1082 L 398 1545 L 2114 703 L 589 1228 L 2139 1284 L 546 1268 L 2190 1530" fill="none" vector-effect="non-scaling-stroke" stroke-width="3" stroke="url(#_lgradient_0)" stroke-linejoin="miter" stroke-linecap="square" stroke-miterlimit="3"/><linearGradient id="_lgradient_1" x1="0.003531527411889252" y1="0.49985553553545564" x2="0.8410812664649837" y2="0.506500900904497"><stop offset="2.1739130434782608%" stop-opacity="1" style="stop-color:rgb(238,238,238)"/><stop offset="98.69565217391305%" stop-opacity="1" style="stop-color:rgb(253,251,251)"/></linearGradient><path d=" M 208 347 L 2503 438 L 119 551 L 2541 685 L 431 85 L 270 206 L 1887.101 755.769 L 2429 940" fill="none" vector-effect="non-scaling-stroke" stroke-width="3" stroke="url(#_lgradient_1)" stroke-linejoin="miter" stroke-linecap="square" stroke-miterlimit="3"/><g style="isolation:isolate"><ellipse vector-effect="non-scaling-stroke" cx="316.8184520458889" cy="640.2521727439939" rx="7.321913611174125" ry="8.054104972291498" fill="rgb(195,194,194)"/><ellipse vector-effect="non-scaling-stroke" cx="253.11780362867455" cy="781.5651054396545" rx="7.321913611174125" ry="8.054104972291498" fill="rgb(202,202,202)"/><ellipse vector-effect="non-scaling-stroke" cx="320.4794088514758" cy="933.1287171909597" rx="7.321913611174125" ry="8.054104972291498" fill="rgb(195,194,194)"/><ellipse vector-effect="non-scaling-stroke" cx="478.6327428528384" cy="586.8022033824241" rx="7.321913611174125" ry="8.054104972291498" fill="rgb(195,194,194)"/><ellipse vector-effect="non-scaling-stroke" cx="654.3586695210154" cy="705.4172038834432" rx="7.321913611174068" ry="8.054104972291498" fill="rgb(202,202,202)"/><ellipse vector-effect="non-scaling-stroke" cx="709.2730216048229" cy="1083.9601375811458" rx="7.321913611174068" ry="8.054104972291498" fill="rgb(195,194,194)"/><ellipse vector-effect="non-scaling-stroke" cx="-45.37577445277688" cy="1112.6141126334592" rx="7.321913611174118" ry="8.054104972291498" fill="rgb(235,235,235)"/><ellipse vector-effect="non-scaling-stroke" cx="438.3219136111741" cy="1089" rx="7.321913611174125" ry="8.054104972291498" fill="rgb(195,194,194)"/><ellipse vector-effect="non-scaling-stroke" cx="536" cy="1268" rx="7.321913611174068" ry="8.054104972291498" fill="rgb(195,194,194)"/><ellipse vector-effect="non-scaling-stroke" cx="588" cy="1226" rx="7.321913611174068" ry="8.054104972291498" fill="rgb(195,194,194)"/><ellipse vector-effect="non-scaling-stroke" cx="397" cy="1544" rx="7.321913611174125" ry="8.054104972291498" fill="rgb(195,194,194)"/><ellipse vector-effect="non-scaling-stroke" cx="337" cy="1267.9999999999998" rx="7.321913611174125" ry="8.054104972291498" fill="rgb(195,194,194)"/><ellipse vector-effect="non-scaling-stroke" cx="815.4407689668465" cy="969.0060938857125" rx="7.321913611174068" ry="8.054104972291498" fill="rgb(202,202,202)"/><ellipse vector-effect="non-scaling-stroke" cx="228.9554887118" cy="591.1953515491289" rx="7.321913611174125" ry="8.054104972291498" fill="rgb(202,202,202)"/><ellipse vector-effect="non-scaling-stroke" cx="305.83558162912846" cy="582.409055215719" rx="7.321913611174125" ry="8.054104972291498" fill="rgb(202,202,202)"/><ellipse vector-effect="non-scaling-stroke" cx="114.733636377484" cy="546.5316785209661" rx="7.321913611174111" ry="8.054104972291498" fill="rgb(195,194,194)"/><ellipse vector-effect="non-scaling-stroke" cx="271" cy="205" rx="7.321913611174125" ry="8.054104972291526" fill="rgb(202,202,202)"/><ellipse vector-effect="non-scaling-stroke" cx="431" cy="84" rx="7.321913611174125" ry="8.054104972291526" fill="rgb(202,202,202)"/><ellipse vector-effect="non-scaling-stroke" cx="208" cy="348" rx="7.321913611174125" ry="8.054104972291555" fill="rgb(202,202,202)"/><ellipse vector-effect="non-scaling-stroke" cx="878.4092260229419" cy="829.1575439122865" rx="7.321913611174068" ry="8.054104972291498" fill="rgb(195,194,194)"/><ellipse vector-effect="non-scaling-stroke" cx="558.4416012146349" cy="817.4424821344079" rx="7.321913611174068" ry="8.054104972291498" fill="rgb(195,194,194)"/><ellipse vector-effect="non-scaling-stroke" cx="393.69854496321733" cy="851.123284745809" rx="7.321913611174125" ry="8.054104972291498" fill="rgb(195,194,194)"/></g></g></svg>