<?xml version="1.0" encoding="UTF-8" standalone="no"?><!-- Generator: Gravit.io --><svg xmlns="http://www.w3.org/2000/svg" xmlns:xlink="http://www.w3.org/1999/xlink" style="isolation:isolate" viewBox="0 0 2000 1200" width="2000pt" height="1200pt"><defs><clipPath id="_clipPath_2JRuWE7aLeZtsJj99PkCKRVeFSCqDjG9"><rect width="2000" height="1200"/></clipPath></defs><g clip-path="url(#_clipPath_2JRuWE7aLeZtsJj99PkCKRVeFSCqDjG9)"><g style="isolation:isolate"><g style="isolation:isolate"><g><path d=" M -336.647 -155.608 C -345.341 -158.475 -333.472 -142.846 -328.173 -139.661 C -322.856 -136.462 -312.226 -136.462 -311.146 -131.164 C -310.103 -125.823 -306.909 -113.088 -301.591 -114.159 C -296.273 -115.225 -296.273 -126.899 -300.515 -131.164 C -304.771 -135.396 -320.7 -148.163 -323.898 -148.163 C -327.097 -148.163 -333.472 -154.533 -336.647 -155.608 Z  M 99.005 -120.524 C 99.005 -114.814 109.617 -114.159 115.977 -117.334 C 122.375 -120.524 131.943 -122.634 136.195 -123.705 C 140.438 -124.78 138.322 -118.424 147.871 -118.424 C 157.449 -118.424 169.133 -115.225 172.332 -116.268 C 175.512 -117.334 185.071 -130.079 177.619 -131.164 C 170.177 -132.215 158.512 -139.661 152.152 -146.026 C 145.773 -152.396 130.889 -137.523 117.049 -132.215 C 103.248 -126.899 99.005 -129.003 99.005 -120.524 Z  M 209.513 -38.715 C 211.937 -33.866 223.344 -37.649 229.703 -44.033 C 236.073 -50.407 249.893 -52.517 254.165 -57.862 C 258.36 -63.151 261.578 -62.071 272.19 -66.331 C 282.831 -70.597 291.336 -71.639 287.084 -76.971 C 282.831 -82.269 260.515 -76.971 257.335 -79.07 C 254.165 -81.198 231.82 -55.706 231.82 -55.706 C 231.82 -55.706 212.712 -48.27 211.63 -45.09 C 210.576 -41.905 206.334 -45.09 209.513 -38.715 Z  M 149.997 -38.715 C 160.628 -37.547 160.628 -52.517 159.565 -56.787 C 158.512 -61.042 158.512 -79.07 162.783 -82.269 C 166.978 -85.463 172.332 -95.022 184.008 -96.098 C 195.683 -97.16 203.154 -88.653 202.062 -79.07 C 200.999 -69.516 204.198 -59.962 208.45 -59.962 C 212.712 -59.962 225.441 -67.406 221.189 -73.772 C 216.946 -80.151 224.369 -101.415 224.369 -93.961 C 224.369 -86.524 232.902 -81.198 238.208 -82.269 C 243.534 -83.33 232.902 -102.472 225.441 -103.524 C 218.009 -104.591 203.154 -104.591 199.955 -103.524 C 196.765 -102.472 178.692 -108.861 170.177 -107.78 C 161.711 -106.714 148.953 -103.524 144.7 -95.022 C 140.438 -86.524 144.7 -70.597 143.637 -64.227 C 142.593 -57.862 140.438 -39.777 149.997 -38.715 Z  M -823.327 -355.367 C -823.327 -355.367 -823.327 -355.367 -816.935 -350.035 C -810.579 -344.747 -799.944 -342.633 -790.39 -341.557 C -780.798 -340.481 -780.798 -346.846 -788.253 -353.221 C -795.67 -359.59 -797.826 -358.566 -804.201 -359.59 C -810.579 -360.666 -811.618 -367.045 -828.608 -367.045 C -845.635 -367.045 -843.498 -375.537 -845.635 -379.794 C -847.754 -384.058 -830.764 -381.93 -826.489 -380.878 C -822.234 -379.794 -805.262 -393.641 -805.262 -393.641 C -805.262 -393.641 -777.623 -404.228 -774.442 -402.119 C -771.243 -400.006 -755.296 -404.228 -747.879 -406.376 C -740.425 -408.493 -736.188 -420.176 -736.188 -420.176 C -736.188 -420.176 -726.615 -416.973 -721.297 -411.674 C -715.999 -406.376 -704.288 -411.674 -701.113 -411.674 C -697.933 -411.674 -681.985 -401.039 -681.985 -401.039 C -681.985 -401.039 -660.74 -401.039 -652.241 -402.119 C -643.731 -403.185 -621.423 -403.185 -612.911 -401.039 C -604.432 -398.93 -566.177 -396.821 -561.903 -396.821 C -557.666 -396.821 -536.438 -389.376 -522.61 -392.565 C -508.776 -395.75 -502.421 -390.428 -499.222 -389.376 C -496.065 -388.304 -492.866 -388.304 -487.53 -381.93 C -482.232 -375.537 -476.919 -380.878 -469.464 -385.12 C -462.047 -389.376 -463.09 -393.641 -463.09 -393.641 C -463.09 -393.641 -463.09 -393.641 -456.711 -394.684 C -450.337 -395.75 -446.1 -392.565 -428.029 -391.476 C -409.963 -390.428 -414.219 -394.684 -401.484 -398.93 C -388.717 -403.185 -375.963 -393.641 -371.708 -394.684 C -367.471 -395.75 -362.153 -404.228 -358.955 -400.006 C -355.761 -395.75 -350.481 -387.238 -350.481 -387.238 C -350.481 -387.238 -336.647 -397.854 -332.41 -397.854 C -328.173 -397.854 -315.387 -393.641 -307.951 -394.684 C -300.515 -395.75 -271.834 -395.75 -265.455 -390.428 C -259.099 -385.12 -243.151 -386.186 -234.654 -380.878 C -226.161 -375.537 -217.645 -385.12 -221.901 -387.238 C -226.161 -389.376 -236.772 -397.854 -236.772 -397.854 C -236.772 -397.854 -252.725 -416.973 -254.843 -420.176 C -256.943 -423.356 -260.142 -423.356 -264.398 -414.859 C -268.653 -406.376 -284.582 -406.376 -302.652 -405.3 C -320.7 -404.228 -309.027 -413.783 -329.216 -414.859 C -349.4 -415.93 -341.946 -423.356 -335.59 -423.356 C -329.216 -423.356 -324.974 -436.123 -322.856 -443.569 C -320.7 -451.014 -313.282 -449.938 -298.397 -448.868 C -283.558 -447.802 -279.283 -451.014 -264.398 -448.868 C -249.526 -446.739 -250.587 -455.237 -235.716 -454.194 C -220.843 -453.123 -228.28 -451.014 -219.768 -445.678 C -211.27 -440.375 -205.954 -441.431 -194.28 -436.123 C -182.589 -430.802 -186.826 -430.802 -181.513 -429.722 C -176.196 -428.683 -158.13 -431.858 -147.532 -432.929 C -136.898 -433.977 -128.386 -435.076 -123.069 -428.683 C -117.752 -422.304 -118.813 -414.859 -111.359 -409.565 C -103.942 -404.228 -115.633 -428.683 -115.633 -437.176 C -115.633 -445.678 -100.761 -438.252 -91.188 -438.252 C -81.62 -438.252 -71.023 -441.431 -68.885 -437.176 C -66.748 -432.929 -82.695 -426.546 -73.141 -416.973 C -63.568 -407.409 -57.194 -404.228 -48.696 -404.228 C -40.204 -404.228 -21.076 -402.119 -29.568 -390.428 C -38.066 -378.746 -60.355 -379.794 -67.805 -379.794 C -75.259 -379.794 -88.013 -375.537 -84.814 -369.173 C -81.62 -362.794 -64.63 -365.983 -52.952 -365.983 C -41.242 -365.983 -5.142 -362.794 4.415 -365.983 C 14.002 -369.173 11.866 -381.93 1.235 -385.12 C -9.384 -388.304 -0.887 -394.684 9.759 -392.565 C 20.4 -390.428 30.993 -395.75 28.867 -392.565 C 26.75 -389.376 29.949 -381.93 29.949 -373.428 C 29.949 -364.931 33.11 -359.59 40.542 -361.746 C 47.994 -363.855 49.057 -364.931 56.499 -365.983 C 63.95 -367.045 59.688 -385.12 55.416 -394.684 C 51.212 -404.228 47.994 -409.565 49.057 -414.859 C 50.139 -420.176 61.814 -421.228 68.164 -415.93 C 74.562 -410.603 83.058 -400.006 83.058 -400.006 C 83.058 -400.006 95.825 -392.565 100.068 -384.058 C 104.32 -375.537 105.384 -377.665 113.879 -382.993 C 122.375 -388.304 124.491 -387.238 131.943 -381.93 C 139.394 -376.613 134.06 -365.983 134.06 -362.794 C 134.06 -359.59 144.7 -362.794 146.798 -369.173 C 148.953 -375.537 157.449 -375.537 162.783 -377.665 C 168.061 -379.794 168.061 -392.565 168.061 -392.565 C 168.061 -392.565 154.25 -395.75 140.438 -394.684 C 126.646 -393.641 122.375 -395.75 111.772 -403.185 C 101.141 -410.603 107.5 -415.93 102.185 -423.356 C 96.869 -430.802 119.195 -435.076 133.006 -441.431 C 146.798 -447.802 160.628 -443.569 157.449 -427.621 C 154.25 -411.674 152.152 -413.783 168.061 -416.973 C 184.008 -420.176 166.978 -433.977 174.44 -435.076 C 181.891 -436.123 200.999 -439.303 207.397 -438.252 C 213.756 -437.176 248.811 -441.431 257.335 -441.431 C 265.84 -441.431 279.632 -433.977 289.201 -428.683 C 298.778 -423.356 324.274 -415.93 330.634 -412.75 C 337.013 -409.565 381.636 -403.185 385.898 -402.119 C 390.16 -401.039 390.16 -388.304 394.393 -377.665 C 398.665 -367.045 410.34 -374.476 414.583 -374.476 C 418.836 -374.476 433.72 -367.045 437.963 -361.746 C 442.206 -356.401 474.1 -352.183 474.1 -352.183 C 474.1 -352.183 466.667 -342.633 463.468 -339.439 C 460.289 -336.24 452.837 -334.111 446.477 -329.856 C 440.089 -325.609 432.647 -330.927 424.132 -336.24 C 415.656 -341.557 400.753 -344.747 397.592 -342.633 C 394.393 -340.481 396.548 -336.24 398.665 -333.064 C 400.753 -329.856 414.583 -325.609 423.098 -319.23 C 431.584 -312.837 429.467 -306.463 430.53 -297.985 C 431.584 -289.473 422.016 -301.174 411.404 -303.283 C 400.753 -305.402 399.709 -294.809 399.709 -294.809 C 399.709 -294.809 385.898 -295.847 379.519 -295.847 C 373.15 -295.847 379.519 -295.847 367.834 -304.364 C 356.159 -312.837 358.276 -299.027 351.897 -303.283 C 345.537 -307.548 339.168 -313.917 335.95 -311.799 C 332.751 -309.662 322.139 -321.354 315.75 -320.292 C 309.371 -319.23 283.904 -323.5 277.544 -321.354 C 271.137 -319.23 265.84 -319.23 260.515 -317.103 C 255.18 -314.965 253.083 -331.993 256.263 -337.292 C 259.442 -342.633 266.894 -343.666 280.705 -340.481 C 294.497 -337.292 295.579 -340.481 298.778 -345.813 C 301.958 -351.111 305.128 -356.401 320.003 -360.666 C 334.915 -364.931 318.968 -368.12 314.725 -370.229 C 310.444 -372.357 305.128 -376.613 301.958 -370.229 C 298.778 -363.855 291.336 -356.401 291.336 -356.401 C 291.336 -356.401 282.831 -356.401 271.137 -357.476 C 259.442 -358.566 267.957 -362.794 273.273 -364.931 C 278.569 -367.045 284.967 -379.794 279.632 -382.993 C 274.326 -386.186 272.19 -388.304 262.641 -386.186 C 253.083 -384.058 259.442 -393.641 253.083 -396.821 C 246.714 -400.006 248.811 -394.684 248.811 -390.428 C 248.811 -386.186 239.252 -387.238 239.252 -387.238 C 239.252 -387.238 224.369 -389.376 219.072 -387.238 C 213.756 -385.12 204.198 -380.878 207.397 -377.665 C 210.576 -374.476 221.189 -374.476 224.369 -364.931 C 227.568 -355.367 210.576 -353.221 207.397 -352.183 C 204.198 -351.111 191.45 -346.846 191.45 -346.846 C 191.45 -346.846 178.692 -350.035 168.061 -350.035 C 157.449 -350.035 154.25 -348.992 156.385 -344.747 C 158.512 -340.481 163.827 -342.633 166.978 -342.633 C 170.177 -342.633 170.177 -337.292 179.755 -339.439 C 189.323 -341.557 187.207 -344.747 195.683 -336.24 C 204.198 -327.737 212.712 -328.813 226.524 -321.354 C 240.316 -313.917 224.369 -305.402 216.946 -305.402 C 209.513 -305.402 209.513 -311.799 205.251 -318.155 C 200.999 -324.557 184.008 -317.103 184.008 -317.103 C 184.008 -317.103 170.177 -309.662 162.783 -309.662 C 155.332 -309.662 149.997 -310.738 159.565 -318.155 C 169.133 -325.609 147.871 -326.685 147.871 -337.292 C 147.871 -347.926 143.637 -326.685 143.637 -321.354 C 143.637 -316.055 135.142 -320.292 117.049 -318.155 C 99.005 -316.055 102.185 -309.662 78.796 -294.809 C 55.416 -279.918 50.139 -276.729 52.237 -262.91 C 54.382 -249.1 59.688 -253.355 69.247 -251.218 C 78.796 -249.1 75.606 -233.171 83.058 -234.247 C 90.509 -235.28 95.825 -240.621 110.699 -233.171 C 125.574 -225.735 133.006 -223.602 151.07 -220.427 C 169.133 -217.247 180.818 -211.91 190.406 -214.043 C 199.955 -216.171 206.334 -212.982 206.334 -205.536 C 206.334 -198.091 212.712 -197.034 211.63 -187.461 C 210.576 -177.907 223.344 -195.991 223.344 -195.991 C 223.344 -195.991 228.621 -180.007 224.369 -177.907 C 220.145 -175.789 225.441 -166.234 230.766 -167.262 C 236.073 -168.352 243.534 -164.087 249.893 -169.418 C 256.263 -174.717 246.714 -190.641 246.714 -197.034 C 246.714 -203.399 240.316 -206.589 237.136 -212.982 C 233.937 -219.356 245.631 -220.427 249.893 -214.043 C 254.165 -207.664 261.578 -212.982 269.02 -218.299 C 276.453 -223.602 276.453 -233.171 276.453 -233.171 C 276.453 -233.171 263.714 -250.175 254.165 -254.408 C 244.568 -258.673 248.811 -259.729 258.36 -261.853 C 267.957 -263.989 258.36 -267.165 260.515 -278.857 C 262.641 -290.553 262.641 -297.985 267.957 -297.985 C 273.273 -297.985 292.38 -301.174 308.327 -300.099 C 324.274 -299.027 331.716 -287.364 342.348 -286.284 C 352.96 -285.25 369.951 -283.108 373.15 -277.8 C 376.33 -272.492 361.455 -271.416 368.907 -262.91 C 376.33 -254.408 377.402 -255.474 384.835 -252.28 C 392.277 -249.1 400.753 -251.218 410.34 -263.989 C 419.937 -276.729 424.132 -277.8 427.312 -275.673 C 430.53 -273.554 450.73 -250.175 456.036 -244.843 C 461.352 -239.545 471.964 -227.881 473.017 -222.536 C 474.1 -217.247 488.974 -217.247 493.207 -217.247 C 497.469 -217.247 513.397 -205.536 515.514 -199.153 C 517.669 -192.779 521.912 -190.641 535.704 -187.461 C 549.534 -184.281 535.704 -172.608 532.524 -166.234 C 529.344 -159.836 527.228 -157.717 522.966 -150.282 C 518.732 -142.846 522.966 -150.282 528.272 -147.106 C 533.587 -143.898 535.704 -139.661 544.219 -141.77 C 552.733 -143.898 556.967 -141.77 560.166 -135.396 C 563.346 -129.003 567.598 -123.705 570.797 -118.424 C 573.958 -113.088 570.797 -104.591 566.525 -109.889 C 562.302 -115.225 548.452 -112.046 548.452 -112.046 C 548.452 -112.046 542.093 -105.671 539.976 -108.861 C 537.859 -112.046 533.587 -116.268 526.145 -114.159 C 518.732 -112.046 511.3 -114.159 502.785 -113.088 C 494.271 -112.046 491.091 -117.334 496.406 -121.599 C 501.722 -125.823 502.785 -141.77 513.397 -148.163 C 524.029 -154.533 520.849 -164.087 513.397 -164.087 C 505.955 -164.087 502.785 -154.533 498.523 -152.396 C 494.271 -150.282 485.775 -150.282 478.324 -144.969 C 470.901 -139.661 452.837 -141.77 460.289 -139.661 C 467.721 -137.523 449.657 -129.003 443.278 -129.003 C 436.89 -129.003 439.026 -142.846 439.026 -148.163 C 439.026 -153.481 430.53 -144.969 430.53 -144.969 C 430.53 -144.969 413.52 -154.533 407.151 -148.163 C 400.753 -141.77 391.204 -138.59 383.781 -132.215 C 376.33 -125.823 359.339 -115.225 359.339 -115.225 C 359.339 -115.225 365.708 -118.424 378.466 -121.599 C 391.204 -124.78 390.16 -123.705 400.753 -129.003 C 411.404 -134.334 422.016 -136.462 429.467 -126.899 C 436.89 -117.334 426.297 -112.046 426.297 -112.046 C 426.297 -112.046 430.53 -104.591 434.764 -102.472 C 439.026 -100.335 440.089 -104.591 447.521 -108.861 C 454.954 -113.088 451.774 -100.335 453.91 -96.098 C 456.036 -91.842 463.468 -91.842 467.721 -97.16 C 471.964 -102.472 475.144 -106.714 478.324 -103.524 C 481.523 -100.335 484.731 -92.908 487.892 -85.463 C 491.091 -78.014 465.585 -75.895 461.352 -74.843 C 457.109 -73.772 436.89 -69.516 433.72 -68.449 C 430.53 -67.406 419.937 -57.862 411.404 -57.862 C 402.908 -57.862 403.952 -70.597 402.908 -78.014 C 401.826 -85.463 391.204 -76.971 390.16 -73.772 C 389.097 -70.597 379.519 -71.639 372.087 -70.597 C 364.654 -69.516 351.897 -62.071 351.897 -53.596 C 351.897 -45.09 361.455 -40.834 358.276 -36.596 C 355.096 -32.332 335.95 -29.142 328.517 -31.27 C 321.085 -33.407 310.444 -28.086 313.643 -23.825 C 316.823 -19.588 314.725 -13.213 307.274 -14.256 C 299.813 -15.332 298.778 -7.877 301.958 -2.589 C 305.128 2.719 292.38 13.34 289.201 9.094 C 286.021 4.862 279.632 2.719 279.632 9.094 C 279.632 15.468 281.749 20.786 288.147 29.288 C 294.497 37.786 274.326 43.126 266.894 49.495 C 259.442 55.861 233.937 77.106 223.344 81.363 C 212.712 85.604 212.712 99.433 218.009 104.722 C 223.344 110.059 229.703 132.342 232.902 139.797 C 236.073 147.252 231.82 168.47 222.261 167.436 C 212.712 166.361 218.009 153.616 208.45 150.427 C 198.882 147.252 193.566 128.115 191.45 115.352 C 189.323 102.613 187.207 110.059 180.818 114.277 C 174.44 118.542 168.061 105.797 164.881 102.613 C 161.711 99.433 143.637 104.722 130.889 103.688 C 118.132 102.613 113.879 108.978 113.879 112.168 C 113.879 115.352 111.772 124.907 100.068 118.542 C 88.393 112.168 86.238 112.168 74.562 112.168 C 62.868 112.168 52.237 111.087 50.139 115.352 C 47.994 119.608 36.309 129.177 28.867 131.309 C 21.415 133.432 7.623 144.063 14.002 146.162 C 20.4 148.304 20.4 163.171 16.119 171.659 C 11.866 180.171 12.92 195.052 15.046 209.914 C 17.182 224.809 29.949 234.364 41.624 243.927 C 53.3 253.5 57.571 256.69 69.247 248.179 C 80.951 239.681 85.155 244.998 88.393 246.056 C 91.553 247.126 100.068 240.733 96.869 231.179 C 93.689 221.634 101.141 213.108 110.699 214.18 C 120.248 215.255 134.06 210.99 141.502 212.07 C 148.953 213.108 153.186 233.288 141.502 241.799 C 129.826 250.316 136.195 263.073 134.06 272.638 C 131.943 282.183 122.375 284.297 134.06 284.297 C 145.773 284.297 142.593 286.434 149.997 287.481 C 157.449 288.562 164.881 281.116 172.332 280.036 C 179.755 279.007 198.882 295.988 195.683 304.509 C 192.522 313.011 189.323 327.864 190.406 341.671 C 191.45 355.492 195.683 356.575 197.809 360.808 C 199.955 365.07 208.45 374.648 218.009 370.395 C 227.568 366.124 237.136 362.934 240.316 358.682 C 243.534 354.448 263.714 366.124 261.578 369.332 C 259.442 372.493 269.02 375.701 275.37 372.493 C 281.749 369.332 284.967 363.988 291.336 355.492 C 297.696 346.987 308.327 339.574 313.643 338.501 C 318.968 337.457 331.716 324.68 340.193 326.831 C 348.717 328.935 337.013 339.574 335.95 345.934 C 334.915 352.293 335.95 370.395 340.193 371.449 C 344.464 372.493 342.348 358.682 347.644 349.133 C 352.96 339.574 363.572 334.23 368.907 334.23 C 374.203 334.23 378.466 356.575 385.898 350.196 C 393.33 343.817 408.205 344.871 411.404 351.249 C 414.583 357.628 417.773 360.808 417.773 360.808 C 417.773 360.808 423.098 356.575 423.098 351.249 C 423.098 345.934 440.089 340.599 450.73 346.987 C 461.352 353.366 457.109 355.492 462.396 356.575 C 467.721 357.628 473.017 342.754 476.216 341.671 C 479.396 340.599 476.216 358.682 468.784 368.25 C 461.352 377.847 475.144 374.648 475.144 374.648 C 475.144 374.648 475.144 374.648 478.324 377.847 C 481.523 381.007 492.154 374.648 496.406 381.007 C 500.678 387.386 508.12 389.503 514.48 401.217 C 520.849 412.882 530.427 409.683 543.136 407.576 C 555.904 405.44 571.86 413.955 584.589 427.776 C 597.337 441.577 595.24 452.209 603.716 452.209 C 612.231 452.209 614.328 463.884 614.328 468.127 C 614.328 472.37 595.24 481.967 584.589 484.084 C 573.958 486.219 573.958 496.86 590.968 493.661 C 607.968 490.462 600.536 484.084 611.148 480.904 C 621.789 477.705 632.421 485.128 622.862 497.885 C 613.275 510.624 594.157 511.696 611.148 513.803 C 628.158 515.959 618.609 511.696 628.158 498.958 C 637.717 486.219 636.654 490.462 643.061 490.462 C 649.421 490.462 663.204 493.661 668.538 497.885 C 673.883 502.157 687.646 508.517 696.17 513.803 C 704.656 519.138 715.297 517.003 721.657 514.876 C 728.016 512.779 746.109 521.255 752.478 529.76 C 758.838 538.275 774.804 539.338 782.227 542.518 C 789.659 545.707 801.363 558.446 802.407 569.086 C 803.48 579.689 790.732 602.024 789.659 607.34 C 788.615 612.637 771.624 631.773 755.677 644.531 C 739.73 657.269 749.279 672.163 750.361 678.522 C 751.405 684.901 739.73 708.242 742.929 713.577 C 746.109 718.893 738.648 730.578 732.288 738.029 C 725.919 745.471 721.657 759.253 717.423 765.613 C 713.18 772.011 699.35 769.904 686.602 773.103 C 673.883 776.264 667.456 779.463 667.456 779.463 C 667.456 779.463 645.149 790.104 632.421 798.58 C 619.682 807.094 636.654 821.978 630.275 833.654 C 623.906 845.367 617.527 844.295 611.148 858.087 C 604.779 871.907 601.618 860.251 596.264 863.412 C 590.968 866.611 587.788 875.087 586.715 883.602 C 585.671 892.107 575.05 900.602 561.238 913.36 C 547.418 926.099 538.894 923.972 524.029 919.739 C 509.154 915.477 511.3 879.34 509.154 884.646 C 507.038 889.962 508.12 909.098 510.237 912.316 C 512.325 915.477 518.732 927.171 524.029 930.351 C 529.344 933.55 528.272 938.818 524.029 944.153 C 519.786 949.468 508.12 968.624 503.839 969.668 C 499.605 970.721 466.667 974.984 460.289 971.804 C 453.91 968.624 450.73 979.227 451.774 985.624 C 452.837 992.003 458.153 999.416 446.477 997.3 C 434.764 995.183 418.836 987.741 418.836 993.019 C 418.836 998.382 422.016 1010.057 428.414 1010.057 C 434.764 1010.057 441.162 1005.795 437.963 1013.237 C 434.764 1020.679 426.297 1027.058 422.016 1030.257 C 417.773 1033.437 412.457 1044.03 401.826 1051.472 C 391.204 1058.933 391.204 1063.166 393.33 1066.365 C 395.476 1069.545 411.404 1067.428 414.583 1069.545 C 417.773 1071.681 411.404 1086.565 407.151 1089.745 C 402.908 1092.924 384.835 1107.799 377.402 1112.061 C 369.951 1116.313 369.951 1129.052 372.087 1135.431 C 374.203 1141.809 391.204 1157.766 400.753 1160.927 C 410.34 1164.126 430.53 1163.043 428.414 1166.242 C 426.297 1169.422 402.908 1172.621 399.709 1173.684 C 396.548 1174.728 379.519 1179 371.014 1179 C 362.528 1179 346.581 1170.485 343.382 1170.485 C 340.193 1170.485 345.537 1166.242 356.159 1157.766 C 366.771 1149.232 351.897 1139.674 349.78 1151.387 C 347.644 1163.043 343.382 1166.242 338.095 1166.242 C 332.751 1166.242 326.401 1158.772 323.202 1155.592 C 320.003 1152.431 306.211 1149.232 308.327 1136.475 C 310.444 1123.717 301.958 1124.818 295.579 1119.493 C 289.201 1114.178 304.094 1109.954 301.958 1104.6 C 299.813 1099.303 290.264 1102.483 289.201 1095.041 C 288.147 1087.618 297.696 1076.987 298.778 1073.788 C 299.813 1070.608 292.38 1064.249 291.336 1058.933 C 290.264 1053.608 295.579 1048.292 303.012 1039.816 C 310.444 1031.291 315.75 1020.679 315.75 1017.48 C 315.75 1014.3 310.444 1002.596 310.444 994.12 C 310.444 985.624 315.75 982.425 317.905 970.721 C 320.003 959.065 310.444 963.308 310.444 953.73 C 310.444 944.153 321.085 947.352 318.968 937.812 C 316.823 928.234 324.274 921.836 327.454 915.477 C 330.634 909.098 333.833 898.476 338.095 891.025 C 342.348 883.602 333.833 866.611 333.833 863.412 C 333.833 860.251 347.644 855.989 341.265 849.591 C 334.915 843.232 343.382 837.897 349.78 832.571 C 356.159 827.294 348.717 812.401 351.897 793.302 C 355.096 774.166 358.276 741.209 358.276 738.029 C 358.276 734.849 359.339 722.072 354.023 713.577 C 348.717 705.062 342.348 698.703 334.915 695.523 C 327.454 692.324 317.905 682.746 312.57 681.721 C 307.274 680.649 281.749 671.09 281.749 656.225 C 281.749 641.313 263.714 629.618 261.578 619.016 C 259.442 608.403 243.534 585.024 242.451 574.402 C 241.388 563.79 219.072 560.591 215.892 548.887 C 212.712 537.192 226.524 528.697 228.621 521.255 C 230.766 513.803 221.189 497.885 220.145 492.579 C 219.072 487.263 236.073 472.37 242.451 469.209 C 248.811 466.01 254.165 452.209 258.36 452.209 C 262.641 452.209 261.578 440.495 265.84 428.801 C 270.074 417.135 263.714 401.217 260.515 399.062 C 257.335 396.935 254.165 383.124 248.811 378.9 C 243.534 374.648 232.902 376.745 232.902 376.745 C 232.902 376.745 235.019 386.304 225.441 391.658 C 215.892 396.935 213.756 390.566 210.576 387.386 C 207.397 384.206 195.683 383.124 190.406 377.847 C 185.071 372.493 176.575 365.07 170.177 361.9 C 163.827 358.682 154.25 355.492 155.332 342.754 C 156.385 330.011 141.502 322.566 137.239 320.456 C 133.006 318.291 124.491 313.011 119.195 316.182 C 113.879 319.372 104.32 309.836 96.869 310.883 C 89.437 311.926 74.562 298.125 69.247 292.799 C 63.95 287.481 59.688 280.036 50.139 280.036 C 40.542 280.036 39.508 283.225 33.11 290.671 C 26.75 298.125 17.182 285.372 14.002 282.183 C 10.803 279.007 2.308 277.927 -9.384 277.927 C -21.076 277.927 -29.568 262.007 -33.806 259.879 C -38.066 257.742 -67.805 243.927 -75.259 239.681 C -82.695 235.425 -90.15 219.478 -86.97 215.255 C -83.771 210.99 -92.25 197.18 -92.25 197.18 C -92.25 197.18 -107.154 180.171 -112.457 180.171 C -117.752 180.171 -134.76 150.427 -144.334 141.934 C -153.888 133.432 -176.196 114.277 -180.47 104.722 C -184.707 95.168 -185.788 80.287 -196.38 87.741 C -207.015 95.168 -198.536 102.613 -187.906 111.087 C -177.271 119.608 -179.39 128.115 -164.523 139.797 C -149.651 151.507 -156.007 163.171 -149.651 168.47 C -143.259 173.805 -120.951 186.55 -130.505 195.052 C -140.078 203.545 -149.651 184.417 -153.888 183.36 C -158.13 182.29 -167.717 180.171 -166.642 173.805 C -165.561 167.436 -175.134 162.096 -182.589 152.541 C -190.025 142.996 -193.205 148.304 -202.74 148.304 C -212.333 148.304 -203.816 136.607 -198.536 131.309 C -193.205 125.987 -203.816 118.542 -210.209 116.433 C -216.57 114.277 -225.081 89.878 -233.578 74.979 C -242.109 60.093 -248.464 52.685 -258.023 53.714 C -267.573 54.785 -271.834 43.126 -278.208 38.87 C -284.582 34.605 -294.155 14.411 -304.771 3.795 C -315.387 -6.844 -324.974 -27.015 -323.898 -38.715 C -322.856 -50.407 -319.661 -80.151 -319.661 -87.577 C -319.661 -95.022 -324.974 -113.088 -324.974 -116.268 C -324.974 -119.453 -330.292 -124.78 -334.529 -125.823 C -338.77 -126.899 -350.481 -141.77 -360.036 -141.77 C -369.589 -141.77 -375.963 -152.396 -372.784 -159.836 C -369.589 -167.262 -381.263 -180.007 -386.594 -180.007 C -391.897 -180.007 -400.409 -193.845 -403.603 -201.271 C -406.783 -208.726 -415.28 -208.726 -413.157 -204.485 C -411.038 -200.219 -414.219 -192.779 -408.921 -190.641 C -403.603 -188.537 -399.328 -171.537 -403.603 -169.418 C -407.845 -167.262 -417.418 -175.789 -428.029 -181.082 C -438.663 -186.4 -434.408 -207.664 -434.408 -212.982 C -434.408 -218.299 -449.294 -223.602 -455.668 -223.602 C -462.047 -223.602 -468.402 -222.536 -469.464 -236.346 C -470.54 -250.175 -489.686 -257.602 -496.065 -257.602 C -502.421 -257.602 -536.438 -271.416 -547.069 -271.416 C -557.666 -271.416 -575.732 -280.994 -582.124 -276.729 C -588.485 -272.492 -600.177 -284.175 -606.551 -284.175 C -612.911 -284.175 -612.911 -279.918 -624.622 -272.492 C -636.313 -265.047 -640.55 -269.302 -646.925 -263.989 C -653.284 -258.673 -669.232 -253.355 -663.915 -266.108 C -658.635 -278.857 -658.635 -280.994 -667.114 -277.8 C -675.625 -274.62 -677.743 -266.108 -677.743 -260.782 C -677.743 -255.474 -692.616 -246.99 -692.616 -246.99 C -692.616 -246.99 -678.824 -245.91 -673.47 -246.99 C -668.189 -248.024 -672.431 -235.28 -677.743 -232.1 C -683.028 -228.91 -690.497 -220.427 -699.009 -222.536 C -707.487 -224.674 -708.548 -232.1 -713.848 -233.171 C -719.198 -234.247 -730.852 -225.735 -749.979 -216.171 C -769.126 -206.589 -765.927 -214.043 -773.362 -210.844 C -780.798 -207.664 -807.38 -198.091 -816.935 -197.034 C -826.489 -195.991 -824.39 -208.726 -819.053 -208.726 C -813.754 -208.726 -793.551 -218.299 -788.253 -221.479 C -782.936 -224.674 -759.552 -233.171 -753.197 -236.346 C -746.804 -239.545 -736.188 -244.843 -740.425 -251.218 C -744.666 -257.602 -758.495 -248.024 -758.495 -248.024 C -758.495 -248.024 -769.126 -257.602 -772.286 -259.729 C -775.485 -261.853 -781.879 -251.218 -781.879 -251.218 C -781.879 -251.218 -795.67 -253.355 -792.49 -265.047 C -789.315 -276.729 -799.944 -276.729 -802.049 -271.416 C -804.201 -266.108 -822.234 -257.602 -823.327 -262.91 C -824.39 -268.227 -840.318 -278.857 -844.559 -287.364 C -848.834 -295.847 -840.318 -296.918 -830.764 -304.364 C -821.209 -311.799 -807.38 -313.917 -795.67 -312.837 C -783.997 -311.799 -776.561 -325.609 -780.798 -326.685 C -785.073 -327.737 -792.49 -328.813 -798.869 -323.5 C -805.262 -318.155 -821.209 -319.23 -821.209 -319.23 C -821.209 -319.23 -844.559 -319.23 -854.129 -325.609 C -863.687 -331.993 -869 -341.557 -869 -341.557 C -869 -341.557 -849.872 -348.992 -835.001 -350.035 L -823.327 -355.367 Z " fill-rule="evenodd" fill="rgb(255,255,255)" vector-effect="non-scaling-stroke" stroke-width="4" stroke="rgb(202,202,202)" stroke-linejoin="miter" stroke-linecap="square" stroke-miterlimit="3"/></g></g><path d=" M -73.911 236.367 L -269.314 260.792 L -218.779 369.443 L 121.493 219.522 L 121.493 219.522 L 146.76 323.119 L -73.911 236.367 Z " fill="none" vector-effect="non-scaling-stroke" stroke-width="3" stroke="rgb(242,241,241)" stroke-linejoin="miter" stroke-linecap="square" stroke-miterlimit="3"/><path d=" M 262.992 515.996 L 121.493 219.522 L -73.911 236.367 L 241.093 360.178 L -201.091 409.871 L 221.721 154.668 L -245.731 589.272" fill="none" vector-effect="non-scaling-stroke" stroke-width="3" stroke="rgb(242,241,241)" stroke-linejoin="miter" stroke-linecap="square" stroke-miterlimit="3"/><path d=" M 278.995 30.014 L -73.911 236.367 L 962.906 -162.02 L 221.721 154.668 L -245.731 248.158" fill="none" vector-effect="non-scaling-stroke" stroke-width="3" stroke="rgb(238,238,238)" stroke-linejoin="miter" stroke-linecap="square" stroke-miterlimit="3"/></g><path d=" M 517.353 547.159 L 379.223 576.638 L 262.992 517.68 L 318.581 645.703 L 318.581 398.922 L 454.184 354.283 L 647.903 772.041 L 418.809 777.937 L 602.421 452.826 L 305.947 350.914 L 737.182 681.078 L 790.244 556.424 L 545.147 889.115 L 379.223 572.427 L 332.899 928.701 L 501.35 928.701 L 384.277 1162.006 L 332.899 928.701 L 145.076 318.908 L 242.778 358.494 L 224.248 157.195 L 276.468 34.225 L 145.076 318.908 L 224.248 162.248 L 454.184 354.283 L 145.076 318.908 L 305.947 350.914 L 276.468 34.225 L 545.147 889.115 L 517.353 547.159 Z " fill="none" vector-effect="non-scaling-stroke" stroke-width="3" stroke="rgb(238,238,238)" stroke-linejoin="miter" stroke-linecap="square" stroke-miterlimit="3"/><path d=" M 454.184 354.283 L 602.421 452.826 L 318.581 398.922 L 517.353 547.159 L 790.244 556.424 L 318.581 645.703 L 379.223 572.427 L 145.076 318.908 L 412.071 -73.583 L 501.35 928.701 L 418.809 777.937 L 262.992 517.68 L 647.903 772.041 L 501.35 928.701 L 545.147 889.115 L 384.277 1162.006 L 418.809 772.041 L 332.899 928.701 L 737.182 672.655 L 219.194 152.983 L 790.244 556.424 L 262.992 517.68 L 517.353 547.159 L 647.903 772.041 L 314.369 645.703" fill="none" vector-effect="non-scaling-stroke" stroke-width="3" stroke="rgb(235,235,235)" stroke-linejoin="miter" stroke-linecap="square" stroke-miterlimit="3"/><path d=" M 262.992 517.68 L -129.499 564.847 L 318.581 645.703 L -137.08 552.213 L 384.277 576.638 L 332.899 928.701 L -100.863 831.842 L -100.021 903.433 L 332.899 928.701 L -22.533 793.098 L 418.809 777.937 L -63.804 1015.453 L 384.277 1162.006 L -70.542 1116.524 L 501.35 924.49 L -103.39 951.442 L 545.147 895.011 L -38.536 658.337 L 737.182 676.867 L -26.744 698.765 L 242.778 358.494 L -51.17 505.889 L 314.369 398.922" fill="none" vector-effect="non-scaling-stroke" stroke-width="3" stroke="rgb(238,238,238)" stroke-linejoin="miter" stroke-linecap="square" stroke-miterlimit="3"/><linearGradient id="_lgradient_8" x1="0.73311192032302" y1="0.4786623992488173" x2="-0.056581486534955316" y2="0.5003236588099603"><stop offset="0.43478260869565216%" stop-opacity="1" style="stop-color:rgb(253,251,251)"/><stop offset="98.26086956521739%" stop-opacity="1" style="stop-color:rgb(235,235,235)"/></linearGradient><path d=" M 1951.714 724.875 L 602.421 452.826 L 1872.542 298.694 L 318.581 398.922 L 2372 143.719 L 224.248 157.195 L 1798.424 45.175 L 149.287 324.804 L 1821.165 568.216 L 647.903 777.937 L 1811.9 1002.819 L 737.182 676.867 L 1822.849 772.041 L 384.277 1162.006 L 1829.587 452.826 L 545.147 895.011 L 1850.644 942.177 L 508.93 928.701 L 1893.599 1149.372" fill="none" vector-effect="non-scaling-stroke" stroke-width="3" stroke="url(#_lgradient_8)" stroke-linejoin="miter" stroke-linecap="square" stroke-miterlimit="3"/><linearGradient id="_lgradient_9" x1="0.003531527411889252" y1="0.49985553553545564" x2="0.8410812664649837" y2="0.506500900904497"><stop offset="2.1739130434782608%" stop-opacity="1" style="stop-color:rgb(238,238,238)"/><stop offset="98.69565217391305%" stop-opacity="1" style="stop-color:rgb(253,251,251)"/></linearGradient><path d=" M 224.248 152.983 L 2157.225 229.629 L 149.287 324.804 L 2189.231 437.666 L 412.071 -67.688 L 276.468 34.225 L 1638.48 497.272 L 2094.898 652.441" fill="none" vector-effect="non-scaling-stroke" stroke-width="3" stroke="url(#_lgradient_9)" stroke-linejoin="miter" stroke-linecap="square" stroke-miterlimit="3"/><g style="isolation:isolate"><ellipse vector-effect="non-scaling-stroke" cx="315.9008890079648" cy="399.97677649541856" rx="6.166923601808605" ry="6.783615961989483" fill="rgb(195,194,194)"/><ellipse vector-effect="non-scaling-stroke" cx="262.2486536722308" cy="518.9984020103245" rx="6.166923601808605" ry="6.783615961989426" fill="rgb(202,202,202)"/><ellipse vector-effect="non-scaling-stroke" cx="318.9843508088692" cy="646.6537205677631" rx="6.166923601808605" ry="6.783615961989426" fill="rgb(195,194,194)"/><ellipse vector-effect="non-scaling-stroke" cx="452.18990060793635" cy="354.95823420221666" rx="6.166923601808605" ry="6.783615961989483" fill="rgb(195,194,194)"/><ellipse vector-effect="non-scaling-stroke" cx="600.1960670513414" cy="454.8623965515143" rx="6.1669236018085485" ry="6.783615961989483" fill="rgb(202,202,202)"/><ellipse vector-effect="non-scaling-stroke" cx="646.4479940649074" cy="773.6923467650198" rx="6.1669236018085485" ry="6.783615961989426" fill="rgb(195,194,194)"/><ellipse vector-effect="non-scaling-stroke" cx="10.840730906037862" cy="797.8263210809779" rx="6.166923601808591" ry="6.783615961989426" fill="rgb(235,235,235)"/><ellipse vector-effect="non-scaling-stroke" cx="418.237874203321" cy="777.9371997025454" rx="6.166923601808605" ry="6.783615961989426" fill="rgb(195,194,194)"/><ellipse vector-effect="non-scaling-stroke" cx="500.5078009355151" cy="928.7009731290836" rx="6.166923601808605" ry="6.783615961989426" fill="rgb(195,194,194)"/><ellipse vector-effect="non-scaling-stroke" cx="544.3050982437829" cy="893.3262329954827" rx="6.1669236018085485" ry="6.783615961989426" fill="rgb(195,194,194)"/><ellipse vector-effect="non-scaling-stroke" cx="383.4342562076449" cy="1161.1635511498905" rx="6.166923601808605" ry="6.783615961989426" fill="rgb(195,194,194)"/><ellipse vector-effect="non-scaling-stroke" cx="332.89891315964326" cy="928.7009731290836" rx="6.166923601808605" ry="6.783615961989426" fill="rgb(195,194,194)"/><ellipse vector-effect="non-scaling-stroke" cx="735.8683862911308" cy="676.8716462166248" rx="6.1669236018085485" ry="6.783615961989426" fill="rgb(202,202,202)"/><ellipse vector-effect="non-scaling-stroke" cx="241.89780578626244" cy="358.6583883633022" rx="6.166923601808605" ry="6.783615961989483" fill="rgb(202,202,202)"/><ellipse vector-effect="non-scaling-stroke" cx="306.65050360525277" cy="351.25808004113077" rx="6.166923601808605" ry="6.783615961989483" fill="rgb(202,202,202)"/><ellipse vector-effect="non-scaling-stroke" cx="145.69379759804866" cy="321.0401543922691" rx="6.166923601808605" ry="6.783615961989483" fill="rgb(195,194,194)"/><ellipse vector-effect="non-scaling-stroke" cx="121.49272807550369" cy="222.04842617452817" rx="6.166923601808591" ry="6.7836159619894545" fill="rgb(195,194,194)"/><ellipse vector-effect="non-scaling-stroke" cx="-74.75285409423563" cy="236.36677337146193" rx="6.166923601808591" ry="6.7836159619894545" fill="rgb(195,194,194)"/><ellipse vector-effect="non-scaling-stroke" cx="277.3100358068417" cy="33.38314546198916" rx="6.166923601808605" ry="6.78361596198946" fill="rgb(202,202,202)"/><ellipse vector-effect="non-scaling-stroke" cx="412.07095060151255" cy="-68.52979635148071" rx="6.166923601808605" ry="6.783615961989458" fill="rgb(202,202,202)"/><ellipse vector-effect="non-scaling-stroke" cx="224.24792560644016" cy="153.82571305972618" rx="6.166923601808605" ry="6.7836159619894545" fill="rgb(202,202,202)"/><ellipse vector-effect="non-scaling-stroke" cx="788.9039292666829" cy="559.0834054220809" rx="6.1669236018085485" ry="6.783615961989426" fill="rgb(195,194,194)"/><ellipse vector-effect="non-scaling-stroke" cx="519.4093678676487" cy="549.2163276591868" rx="6.1669236018085485" ry="6.783615961989426" fill="rgb(195,194,194)"/><ellipse vector-effect="non-scaling-stroke" cx="380.6535868269557" cy="577.5841762275065" rx="6.166923601808605" ry="6.783615961989426" fill="rgb(195,194,194)"/></g></g></svg>