<?xml version="1.0" encoding="UTF-8" standalone="no"?><!-- Generator: Gravit.io --><svg xmlns="http://www.w3.org/2000/svg" xmlns:xlink="http://www.w3.org/1999/xlink" style="isolation:isolate" viewBox="0 0 512 512" width="512pt" height="512pt"><defs><clipPath id="_clipPath_vTjlQMBxmLGCtfiAfbtp2ciCQFRwCt4X"><rect width="512" height="512"/></clipPath></defs><g clip-path="url(#_clipPath_vTjlQMBxmLGCtfiAfbtp2ciCQFRwCt4X)"><path d=" M 432.392 345.592 C 446.784 333.84 456 315.984 456 296 C 456 260.712 427.288 232 392 232 C 356.712 232 328 260.712 328 296 C 328 315.12 336.472 332.264 349.808 344 L 271.848 344 C 271.32 342.76 270.888 341.512 270.312 340.272 L 282.256 320.552 L 273.704 312 L 288 312 C 301.232 312 312 301.232 312 288 L 312 272 C 312 258.768 301.232 248 288 248 L 272 248 C 267.584 248 264 244.416 264 240 L 264 232 L 344 232 L 344 192 C 344 154.696 320.632 122.824 287.8 110.04 C 302.4 99.92 312 83.064 312 64 C 312 33.128 286.872 8 256 8 C 225.128 8 200 33.128 200 64 C 200 83.064 209.6 99.92 224.2 110.04 C 202.816 118.368 185.504 134.784 176 155.552 C 166.496 134.784 149.184 118.36 127.8 110.04 C 142.4 99.92 152 83.064 152 64 C 152 33.128 126.872 8 96 8 C 65.128 8 40 33.128 40 64 C 40 83.064 49.6 99.92 64.2 110.04 C 31.368 122.824 8 154.696 8 192 L 8 232 L 88 232 L 88 240 C 88 244.416 84.416 248 80 248 L 64 248 C 50.768 248 40 258.768 40 272 L 40 288 C 40 301.232 50.768 312 64 312 L 78.296 312 L 69.744 320.552 L 81.68 340.272 C 80.448 342.92 79.336 345.576 78.352 348.232 L 56 353.728 L 56 414.272 L 78.352 419.768 C 79.336 422.424 80.448 425.08 81.68 427.728 L 69.744 447.448 L 112.56 490.264 L 132.28 478.328 C 134.92 479.56 137.584 480.672 140.24 481.656 L 145.728 504 L 206.272 504 L 211.768 481.648 C 214.424 480.664 217.08 479.552 219.728 478.32 L 239.448 490.256 L 282.264 447.44 L 270.328 427.72 C 271.56 425.08 272.672 422.416 273.656 419.76 L 296 414.272 L 296 400 L 308 400 C 314.616 400 320 405.384 320 412 L 320 504 L 504 504 L 504 432 C 504 389.08 473.096 353.296 432.392 345.592 Z  M 344 296 C 344 269.528 365.528 248 392 248 C 418.472 248 440 269.528 440 296 C 440 322.472 418.472 344 392 344 C 365.528 344 344 322.472 344 296 Z  M 216 64 C 216 41.944 233.944 24 256 24 C 278.056 24 296 41.944 296 64 C 296 86.056 278.056 104 256 104 C 233.944 104 216 86.056 216 64 Z  M 256 120 C 295.704 120 328 152.296 328 192 L 328 216 L 304 216 L 304 152 L 288 152 L 288 216 L 224 216 L 224 152 L 208 152 L 208 216 L 184 216 L 184 192 C 184 152.296 216.296 120 256 120 Z  M 56 64 C 56 41.944 73.944 24 96 24 C 118.056 24 136 41.944 136 64 C 136 86.056 118.056 104 96 104 C 73.944 104 56 86.056 56 64 Z  M 24 192 C 24 152.296 56.296 120 96 120 C 135.704 120 168 152.296 168 192 L 168 216 L 144 216 L 144 152 L 128 152 L 128 216 L 64 216 L 64 152 L 48 152 L 48 216 L 24 216 L 24 192 Z  M 64 296 C 59.584 296 56 292.416 56 288 L 56 272 C 56 267.584 59.584 264 64 264 L 80 264 C 93.232 264 104 253.232 104 240 L 104 232 L 168 232 L 184 232 L 248 232 L 248 240 C 248 253.232 258.768 264 272 264 L 288 264 C 292.416 264 296 267.584 296 272 L 296 288 C 296 292.416 292.416 296 288 296 L 257.704 296 L 239.448 277.744 L 219.728 289.68 C 217.08 288.448 214.424 287.336 211.768 286.352 L 206.272 264 L 145.728 264 L 140.232 286.352 C 137.576 287.336 134.92 288.448 132.272 289.68 L 112.552 277.744 L 94.296 296 L 64 296 Z  M 280 401.728 L 261.24 406.344 L 259.88 410.616 C 258.424 415.2 256.48 419.848 254.096 424.432 L 252.024 428.416 L 262.064 445.008 L 237 470.072 L 220.408 460.032 L 216.424 462.104 C 211.84 464.488 207.192 466.432 202.624 467.88 L 198.336 469.232 L 193.728 488 L 158.272 488 L 153.656 469.24 L 149.384 467.88 C 144.8 466.424 140.152 464.48 135.568 462.096 L 131.584 460.024 L 114.992 470.064 L 89.928 445 L 99.968 428.408 L 97.896 424.424 C 95.512 419.84 93.568 415.192 92.12 410.624 L 90.768 406.336 L 72 401.728 L 72 366.272 L 90.776 361.656 L 92.128 357.368 C 93.576 352.808 95.52 348.16 97.904 343.568 L 99.976 339.584 L 89.936 322.992 L 115 297.928 L 131.592 307.968 L 135.576 305.896 C 140.16 303.512 144.808 301.568 149.376 300.12 L 153.664 298.768 L 158.272 280 L 193.728 280 L 198.344 298.776 L 202.632 300.128 C 207.192 301.576 211.84 303.52 216.432 305.904 L 220.416 307.976 L 237.008 297.936 L 262.072 323 L 252.032 339.592 L 254.104 343.576 C 254.176 343.72 254.24 343.864 254.312 344.008 L 235.68 344.008 C 222.376 324.208 200 312 176 312 C 136.296 312 104 344.296 104 384 C 104 423.704 136.296 456 176 456 C 209.848 456 238.864 432.376 246.2 400 L 280 400 L 280 401.728 Z  M 195.112 398.416 C 190.68 404.28 183.72 408 176 408 C 162.768 408 152 397.232 152 384 C 152 370.768 162.768 360 176 360 C 176.888 360 177.744 360.24 178.624 360.344 C 176.976 363.904 176 367.824 176 372 C 176 384.312 184.04 394.68 195.112 398.416 Z  M 191.44 347.112 C 186.568 345.08 181.312 344 176 344 C 153.944 344 136 361.944 136 384 C 136 406.056 153.944 424 176 424 C 192.104 424 206.368 414.384 212.648 400 L 229.648 400 C 222.704 423.328 201.08 440 176 440 C 145.128 440 120 414.872 120 384 C 120 353.128 145.128 328 176 328 C 190.768 328 204.776 333.92 215.128 344 L 204 344 C 199.464 344 195.232 345.192 191.44 347.112 Z  M 488 488 L 464 488 L 464 400 L 448 400 L 448 488 L 336 488 L 336 412 C 336 396.56 323.44 384 308 384 L 204 384 C 197.384 384 192 378.616 192 372 C 192 365.384 197.384 360 204 360 L 416 360 C 455.704 360 488 392.296 488 432 L 488 488 Z " fill="rgb(90,90,90)"/><path d=" M 504 160 C 504 129.128 478.872 104 448 104 L 416 104 C 385.128 104 360 129.128 360 160 L 360 216 L 448 216 C 478.872 216 504 190.872 504 160 Z  M 376 160 C 376 137.944 393.944 120 416 120 L 448 120 C 470.056 120 488 137.944 488 160 C 488 182.056 470.056 200 448 200 L 376 200 L 376 160 Z " fill="rgb(90,90,90)"/><path d=" M 392 168 L 408 168 L 408 184 L 392 184 L 392 168 Z " fill="rgb(90,90,90)"/><path d=" M 424 168 L 440 168 L 440 184 L 424 184 L 424 168 Z " fill="rgb(90,90,90)"/><path d=" M 456 168 L 472 168 L 472 184 L 456 184 L 456 168 Z " fill="rgb(90,90,90)"/><path d=" M 392 136 L 472 136 L 472 152 L 392 152 L 392 136 Z " fill="rgb(90,90,90)"/></g></svg>