<?xml version="1.0" encoding="UTF-8" standalone="no"?><!-- Generator: Gravit.io --><svg xmlns="http://www.w3.org/2000/svg" xmlns:xlink="http://www.w3.org/1999/xlink" style="isolation:isolate" viewBox="0 0 1000 160" width="1000pt" height="160pt"><defs><clipPath id="_clipPath_DWaz4Dq1g2aXTWSCans4XGeCq3pBj8sF"><rect width="1000" height="160"/></clipPath></defs><g clip-path="url(#_clipPath_DWaz4Dq1g2aXTWSCans4XGeCq3pBj8sF)"><rect x="21" y="-12" width="291.763" height="177.809" transform="matrix(1,0,0,1,0,0)" fill="rgb(255,255,255)"/><clipPath id="_clipPath_B5LE8wfIPO9DhYne8TdgAR5IReHL9bCz"><path d=" M -208.874 -132.831 L 514.149 -132.831 L 514.149 358.353 L -208.874 358.353 L -208.874 -132.831 Z " fill="rgb(255,255,255)"/></clipPath><g clip-path="url(#_clipPath_B5LE8wfIPO9DhYne8TdgAR5IReHL9bCz)"><path d=" M 269.31 114.141 C 252.488 131.381 225.748 133.773 204.92 124.635 C 226.639 137.131 254.86 133.898 273.167 115.137 C 294.85 92.914 294.414 57.321 272.191 35.636 C 267.207 30.775 261.552 27.028 255.531 24.386 C 259.538 26.692 263.323 29.532 266.785 32.909 C 289.008 54.593 290.994 91.918 269.31 114.141 Z " fill="rgb(0,154,147)"/></g><linearGradient id="_lgradient_0" x1="4.476924639895685e-7" y1="0.49999695989968596" x2="1.0000017043056135" y2="0.49999695989968596" gradientTransform="matrix(98.085,0,0,143.349,175.602,10.408)" gradientUnits="userSpaceOnUse"><stop offset="0%" stop-opacity="1" style="stop-color:rgb(0,159,227)"/><stop offset="10%" stop-opacity="1" style="stop-color:rgb(0,153,222)"/><stop offset="20%" stop-opacity="1" style="stop-color:rgb(0,148,217)"/><stop offset="30.000000000000004%" stop-opacity="1" style="stop-color:rgb(0,142,213)"/><stop offset="40%" stop-opacity="1" style="stop-color:rgb(0,137,208)"/><stop offset="50%" stop-opacity="1" style="stop-color:rgb(0,131,203)"/><stop offset="60%" stop-opacity="1" style="stop-color:rgb(0,126,198)"/><stop offset="70%" stop-opacity="1" style="stop-color:rgb(0,120,193)"/><stop offset="80%" stop-opacity="1" style="stop-color:rgb(0,115,189)"/><stop offset="89.99999999999999%" stop-opacity="1" style="stop-color:rgb(0,109,184)"/><stop offset="99.99999999999999%" stop-opacity="1" style="stop-color:rgb(0,104,179)"/></linearGradient><path d=" M 177.384 13.318 C 178.353 14.631 178.865 15.945 178.011 17.542 L 178.011 17.542 C 177.715 18.096 177.839 18.768 177.936 19.41 L 177.936 19.41 C 178.23 21.33 179.288 23.198 178.373 25.208 L 178.373 25.208 C 179.372 26.598 180.356 28 181.38 29.369 L 181.38 29.369 C 181.653 29.735 181.868 30.493 182.494 30.098 L 182.494 30.098 C 182.906 29.841 182.945 29.191 182.747 28.673 L 182.747 28.673 C 182.314 27.553 181.849 26.447 181.417 25.329 L 181.417 25.329 C 181.316 25.069 181.288 24.781 181.227 24.505 L 181.227 24.505 C 180.801 23.489 180.639 22.459 180.785 21.339 L 180.785 21.339 C 181.069 19.17 180.298 17.164 179.718 15.044 L 179.718 15.044 C 180.792 15.941 182.599 15.908 182.882 17.758 L 182.882 17.758 C 182.763 18.621 182.884 19.463 182.993 20.325 L 182.993 20.325 C 183.167 21.72 183.818 22.369 185.238 22.169 L 185.238 22.169 C 186.806 22.146 188.384 22 189.963 22.459 L 189.963 22.459 C 188.874 22.923 187.925 23.669 186.703 23.737 L 186.703 23.737 C 185.765 24.599 183.847 24.37 183.629 25.771 L 183.629 25.771 C 183.456 26.878 184.269 28.11 184.494 29.314 L 184.494 29.314 C 184.698 30.417 185.045 31.213 186.339 31.135 L 186.339 31.135 C 188.466 30.82 190.593 30.504 193.104 30.133 L 193.104 30.133 C 192.006 31.16 191.123 31.764 190.148 32.246 L 190.148 32.246 C 189.226 32.981 188.319 33.742 187.201 34.179 L 187.201 34.179 C 187.068 34.906 186.936 35.632 186.804 36.359 L 186.804 36.359 C 187.615 37.409 188.802 38.001 189.798 38.826 L 189.798 38.826 C 190.459 39.16 191.119 39.497 191.782 39.824 L 191.782 39.824 C 192.244 40.053 192.793 40.442 193.241 40.166 L 193.241 40.166 C 195.248 38.93 195.28 40.454 195.525 41.722 L 195.525 41.722 C 196.055 42.275 195.563 43.389 196.593 43.667 L 196.593 43.667 C 198.087 42.849 199.582 42.031 201.097 41.201 L 201.097 41.201 C 201.482 42.209 200.049 42.498 200.699 43.341 L 200.699 43.341 C 201.579 44.457 201.852 46.055 203.346 46.684 L 203.346 46.684 C 204.273 46.409 205.198 46.134 206.169 45.844 L 206.169 45.844 C 206.047 46.474 205.944 47.008 205.841 47.54 L 205.841 47.54 C 206.641 48.488 206.223 50.296 207.979 50.57 L 207.979 50.57 C 208.078 50.574 208.183 50.573 208.287 50.571 L 208.287 50.571 C 208.979 50.564 209.669 50.556 209.114 51.749 L 209.114 51.749 C 209.009 54.879 209.796 56.427 211.96 57.344 L 211.96 57.344 C 212.39 57.425 212.83 57.267 213.272 57.109 L 213.272 57.109 C 214.022 56.841 214.778 56.573 215.504 57.463 L 215.504 57.463 C 215.539 57.507 216.148 57.108 216.471 56.89 L 216.471 56.89 C 218.095 55.794 219.724 54.706 221.665 54.2 L 221.665 54.2 C 220.25 55.817 218.036 56.543 217.027 58.561 L 217.027 58.561 C 217.651 59.899 217.371 61.581 218.601 62.689 L 218.601 62.689 C 220.842 61.533 223.237 60.847 225.623 60.128 L 225.623 60.128 C 225.693 60.27 225.763 60.411 225.834 60.554 L 225.834 60.554 C 224.096 61.563 222.358 62.572 220.622 63.579 L 220.622 63.579 C 219.825 64.103 219.029 64.626 218.231 65.149 L 218.231 65.149 C 216.712 66.379 215.183 67.597 213.675 68.841 L 213.675 68.841 C 211.356 70.755 210.824 73.278 211.236 76.115 L 211.236 76.115 C 212.339 77.124 212.636 78.661 213.612 79.755 L 213.612 79.755 C 214.695 78.491 216.095 77.747 217.668 77.28 L 217.668 77.28 C 224.32 75.303 230.967 73.322 237.616 71.341 L 237.616 71.341 C 237.994 71.229 238.369 71.019 239.007 71.488 L 239.007 71.488 C 237.059 72.528 235.229 73.506 233.399 74.485 L 233.399 74.485 C 231.195 75.727 229.109 77.186 226.717 78.079 L 226.717 78.079 C 226.518 78.279 226.354 78.54 226.117 78.666 L 226.117 78.666 C 223.217 80.21 220.514 82.047 217.874 83.999 L 217.874 83.999 C 216.724 84.849 216.392 85.786 216.927 87.073 L 216.927 87.073 C 218.049 88.713 219.581 90.079 220.276 92.004 L 220.276 92.004 C 220.503 92.633 220.931 92.505 221.384 92.377 L 221.384 92.377 C 228.045 89.842 234.796 87.578 241.547 85.319 L 241.547 85.319 C 241.631 85.516 241.715 85.714 241.799 85.912 L 241.799 85.912 C 238.815 87.375 235.829 88.839 232.843 90.303 L 232.843 90.303 C 230.857 91.454 228.875 92.611 226.882 93.749 L 226.882 93.749 C 226.395 94.027 225.97 94.475 225.33 94.394 L 225.33 94.394 C 224.871 95.163 223.337 95.382 224.197 96.827 L 224.197 96.827 C 225.174 98.467 225.731 100.246 225.538 102.196 L 225.538 102.196 C 226.097 102.159 226.656 102.121 227.217 102.083 L 227.217 102.083 C 231.722 100.39 236.364 99.141 240.943 97.686 L 240.943 97.686 C 241.019 97.821 241.094 97.954 241.168 98.089 L 241.168 98.089 C 239.69 98.909 238.21 99.731 236.732 100.551 L 236.732 100.551 C 234.636 101.765 232.707 103.265 230.464 104.23 L 230.464 104.23 C 228.768 105.658 227.068 107.083 225.378 108.519 L 225.378 108.519 C 224.991 108.847 224.513 109.134 224.443 109.701 L 224.443 109.701 C 224.104 112.507 224.642 115.177 225.718 117.761 L 225.718 117.761 L 233.987 113.16 C 234.088 113.323 234.189 113.488 234.291 113.652 L 234.291 113.652 C 231.64 115.75 228.989 117.847 226.337 119.947 L 226.337 119.947 C 224.396 121.313 223.479 122.967 224.214 125.469 L 224.214 125.469 C 224.655 126.969 225.053 128.572 224.748 130.203 L 224.748 130.203 C 225.274 130.463 225.201 130.937 225.176 131.394 L 225.176 131.394 C 225.203 131.486 225.205 131.577 225.185 131.669 L 225.185 131.669 C 226.094 132.142 226.552 131.163 227.27 131.025 L 227.27 131.025 C 227.836 130.673 228.401 130.32 228.967 129.968 L 228.967 129.968 C 229.039 129.836 229.127 129.686 229.276 129.843 L 229.276 129.843 C 229.311 129.879 229.178 130.076 229.123 130.199 L 229.123 130.199 C 228.814 130.849 228.508 131.5 227.94 131.979 L 227.94 131.979 C 227.651 132.8 227.142 133.49 226.614 134.167 L 226.614 134.167 C 226.53 134.317 226.472 134.489 226.361 134.612 L 226.361 134.612 C 223.956 137.241 223.376 140.155 224.966 143.416 L 224.966 143.416 C 226.759 143.419 228.238 142.315 230.294 141.83 L 230.294 141.83 C 229.377 143.302 228.633 144.495 227.89 145.69 L 227.89 145.69 C 227.601 146.453 226.564 147.139 227.644 148.043 L 227.644 148.043 C 227.978 148.123 228.312 148.2 228.644 148.284 L 228.644 148.284 C 231.201 148.937 231.202 148.938 230.876 151.512 L 230.876 151.512 L 231.856 151.702 C 233.192 151.207 234.315 151.252 235.307 152.537 L 235.307 152.537 C 236.26 153.772 237.707 153.896 239.178 153.658 L 239.178 153.658 C 239.29 153.608 239.402 153.557 239.514 153.507 L 239.514 153.507 C 239.472 153.393 239.429 153.279 239.387 153.165 L 239.387 153.165 C 238.139 152.184 236.893 151.199 235.64 150.223 L 235.64 150.223 C 234.828 149.591 234.249 148.898 235.134 147.923 L 235.134 147.923 C 235.578 147.435 235.02 147.415 234.868 147.2 L 234.868 147.2 C 233.287 146.997 233.116 146.225 233.913 144.973 L 233.913 144.973 C 234.486 144.076 234.973 143.125 235.5 142.196 L 235.5 142.196 C 235.38 141.584 235.258 140.972 235.138 140.359 L 235.138 140.359 C 234.721 139.312 234.492 138.236 234.684 137.105 L 234.684 137.105 C 234.594 136.363 234.506 135.621 234.416 134.882 L 234.416 134.882 L 232.64 135.292 C 235.932 131.362 239.33 127.617 243.142 124.272 L 243.142 124.272 C 243.496 123.578 243.167 122.875 243.168 122.177 L 243.168 122.177 C 242.729 121.201 242.33 120.217 242.671 119.115 L 242.671 119.115 C 241.817 118.517 241.845 117.95 242.724 117.403 L 242.724 117.403 C 248.327 113.911 253.928 110.418 259.529 106.925 L 259.529 106.925 C 259.798 106.758 260.067 106.591 260.336 106.423 L 260.336 106.423 C 261.428 105.512 262.657 104.815 263.913 104.167 L 263.913 104.167 C 264.325 103.915 264.735 103.666 265.147 103.414 L 265.147 103.414 L 264.715 99.564 C 264.544 98.826 264.372 98.086 264.202 97.346 L 264.202 97.346 C 263.825 97.05 263.626 96.664 263.621 96.181 L 263.621 96.181 C 263.268 95.972 262.826 95.718 263.394 95.339 L 263.394 95.339 C 263.904 95.001 264.512 94.811 265.078 94.555 L 265.078 94.555 C 267.926 93.122 270.774 91.689 273.622 90.256 L 273.622 90.256 C 273.976 87.578 272.786 85.142 272.399 82.579 L 272.399 82.579 C 272.326 82.092 271.77 82.182 271.399 82.086 L 271.399 82.086 C 269.938 82.537 268.455 82.776 266.844 82.44 L 266.844 82.44 C 268.496 81.649 270.147 80.857 271.798 80.067 L 271.798 80.067 C 272.048 77.727 272.079 75.412 270.985 73.233 L 270.985 73.233 C 270.14 72.214 268.994 72.27 267.832 72.315 L 267.832 72.315 C 263.914 72.465 260.046 73.07 256.166 73.554 L 256.166 73.554 C 254.39 73.923 252.615 74.29 250.84 74.658 L 250.84 74.658 C 250.739 74.488 250.639 74.318 250.539 74.147 L 250.539 74.147 C 251.208 73.794 251.88 73.446 252.545 73.086 L 252.545 73.086 C 253.301 72.676 253.813 72.111 253.745 71.173 L 253.745 71.173 C 253.712 70.732 253.582 70.317 254.338 70.222 L 254.338 70.222 C 255.135 70.122 254.6 69.507 254.503 69.145 L 254.503 69.145 C 253.961 67.098 253.38 65.059 252.814 63.018 L 252.814 63.018 C 251.961 62.099 250.781 62.068 249.667 61.873 L 249.667 61.873 C 246.591 61.341 243.505 61.437 240.418 61.74 L 240.418 61.74 L 230.689 64.161 C 230.67 64.083 230.65 64.004 230.631 63.926 L 230.631 63.926 C 233.187 62.46 235.756 61.015 238.296 59.52 L 238.296 59.52 C 240.94 57.96 240.929 57.931 240.216 55.043 L 240.216 55.043 C 240.149 54.767 240.111 54.484 240.059 54.204 L 240.059 54.204 C 239.728 53.349 239.149 53.019 238.213 53.201 L 238.213 53.201 C 237.397 53.359 236.57 53.609 235.718 53.375 L 235.718 53.375 C 233.912 54.15 231.949 53.951 229.619 54.578 L 229.619 54.578 C 230.297 53.958 230.55 53.656 230.865 53.449 L 230.865 53.449 C 233.206 51.927 234.467 50.053 232.949 47.24 L 232.949 47.24 C 232.676 46.31 232.009 46.047 231.126 46.182 L 231.126 46.182 C 229.655 46.406 228.175 46.59 226.721 46.885 L 226.721 46.885 C 223.27 47.586 220.171 49.276 216.888 50.452 L 216.888 50.452 C 215.107 51.364 214.765 51.236 214.262 48.974 L 214.262 48.974 C 213.967 47.646 213.665 46.552 211.761 46.731 L 211.761 46.731 C 214.502 44.975 212.925 42.909 212.483 40.96 L 212.483 40.96 C 212.361 40.424 211.93 39.917 212.719 39.539 L 212.719 39.539 C 213.984 38.934 213.94 37.953 213.55 36.798 L 213.55 36.798 C 213.259 35.94 213.134 35.024 212.936 34.134 L 212.936 34.134 C 212.692 33.596 212.507 33.041 211.779 33.739 L 211.779 33.739 C 211.389 34.112 210.88 34.62 210.278 34.369 L 210.278 34.369 C 208.69 33.709 207.816 34.764 206.904 35.686 L 206.904 35.686 C 205.623 36.984 204.417 38.361 202.577 38.896 L 202.577 38.896 C 201.574 39.526 200.466 39.725 199.186 39.742 L 199.186 39.742 C 200.845 36.667 199.421 34.103 198.009 31.538 L 198.009 31.538 C 197.816 31.185 197.985 30.869 198.071 30.55 L 198.071 30.55 C 198.517 28.883 198.969 27.227 199.905 25.734 L 199.905 25.734 C 200.624 24.587 200.746 23.526 199.581 22.403 L 199.581 22.403 C 198.522 21.382 197.323 20.434 196.62 19.075 L 196.62 19.075 C 194.005 17.39 191.018 17.117 188.04 16.814 L 188.04 16.814 C 187.868 16.797 187.673 16.802 187.477 16.809 L 187.477 16.809 C 186.963 16.824 186.434 16.838 186.257 16.433 L 186.257 16.433 C 185.018 13.597 182.148 13.3 179.846 12.137 L 179.846 12.137 C 178.517 11.466 177.204 10.702 175.602 10.408 L 175.602 10.408 C 175.894 11.707 176.747 12.451 177.384 13.318 Z  M 230.876 151.515 C 230.876 151.514 230.876 151.513 230.876 151.512 L 230.876 151.512 L 230.86 151.509 L 230.876 151.515 Z " fill="url(#_lgradient_0)"/><linearGradient id="_lgradient_1" x1="0.000009056187998623955" y1="0.5000234694208139" x2="0.999978762152459" y2="0.5000234694208139" gradientTransform="matrix(11.744,0,0,6.413,216.945,33.578)" gradientUnits="userSpaceOnUse"><stop offset="0%" stop-opacity="1" style="stop-color:rgb(0,159,227)"/><stop offset="10%" stop-opacity="1" style="stop-color:rgb(0,153,222)"/><stop offset="20%" stop-opacity="1" style="stop-color:rgb(0,148,217)"/><stop offset="30.000000000000004%" stop-opacity="1" style="stop-color:rgb(0,142,213)"/><stop offset="40%" stop-opacity="1" style="stop-color:rgb(0,137,208)"/><stop offset="50%" stop-opacity="1" style="stop-color:rgb(0,131,203)"/><stop offset="60%" stop-opacity="1" style="stop-color:rgb(0,126,198)"/><stop offset="70%" stop-opacity="1" style="stop-color:rgb(0,120,193)"/><stop offset="80%" stop-opacity="1" style="stop-color:rgb(0,115,189)"/><stop offset="89.99999999999999%" stop-opacity="1" style="stop-color:rgb(0,109,184)"/><stop offset="99.99999999999999%" stop-opacity="1" style="stop-color:rgb(0,104,179)"/></linearGradient><path d=" M 217.132 34.257 C 218.143 34.546 218.904 35.833 220.23 34.937 L 220.23 34.937 C 220.541 34.726 221.091 35.137 221.1 35.547 L 221.1 35.547 C 221.115 36.234 221.654 36.313 222.022 36.636 L 222.022 36.636 C 223.505 37.94 225.478 38.408 227.021 39.617 L 227.021 39.617 C 227.426 39.934 228.006 40.196 228.689 39.764 L 228.689 39.764 C 227.494 37.928 226.352 36.107 224.374 35.022 L 224.374 35.022 C 222.298 33.243 219.741 33.768 217.34 33.582 L 217.34 33.582 C 217.306 33.58 217.274 33.578 217.246 33.578 L 217.246 33.578 C 216.732 33.578 217.005 33.981 217.132 34.257 Z " fill="url(#_lgradient_1)"/><linearGradient id="_lgradient_2" x1="0.000008842120450935909" y1="0.4999252663832152" x2="0.9999564808029078" y2="0.4999252663832152" gradientTransform="matrix(4.032,0,0,2.774,229.907,38.443)" gradientUnits="userSpaceOnUse"><stop offset="0%" stop-opacity="1" style="stop-color:rgb(0,159,227)"/><stop offset="10%" stop-opacity="1" style="stop-color:rgb(0,153,222)"/><stop offset="20%" stop-opacity="1" style="stop-color:rgb(0,148,217)"/><stop offset="30.000000000000004%" stop-opacity="1" style="stop-color:rgb(0,142,213)"/><stop offset="40%" stop-opacity="1" style="stop-color:rgb(0,137,208)"/><stop offset="50%" stop-opacity="1" style="stop-color:rgb(0,131,203)"/><stop offset="60%" stop-opacity="1" style="stop-color:rgb(0,126,198)"/><stop offset="70%" stop-opacity="1" style="stop-color:rgb(0,120,193)"/><stop offset="80%" stop-opacity="1" style="stop-color:rgb(0,115,189)"/><stop offset="89.99999999999999%" stop-opacity="1" style="stop-color:rgb(0,109,184)"/><stop offset="99.99999999999999%" stop-opacity="1" style="stop-color:rgb(0,104,179)"/></linearGradient><path d=" M 229.985 38.833 C 229.597 40.042 230.747 40.168 231.322 40.644 L 231.322 40.644 C 232.078 41.272 233.08 41.507 233.771 40.707 L 233.771 40.707 C 234.415 39.959 232.992 39.804 233.019 39.124 L 233.019 39.124 C 232.425 38.737 231.824 38.443 231.195 38.443 L 231.195 38.443 C 230.804 38.443 230.403 38.557 229.985 38.833 Z " fill="url(#_lgradient_2)"/><clipPath id="_clipPath_HoGe8MWkccY9UQm0c8v8ex8jQyrvQQLd"><path d=" M -208.874 -132.831 L 514.149 -132.831 L 514.149 358.353 L -208.874 358.353 L -208.874 -132.831 Z " fill="rgb(255,255,255)"/></clipPath><g clip-path="url(#_clipPath_HoGe8MWkccY9UQm0c8v8ex8jQyrvQQLd)"><path d=" M 235.617 15.863 C 235.617 15.863 228.405 12.039 229.529 10.055 C 230.651 8.073 237.788 12.277 237.788 12.277 L 250.346 7.648 L 252.915 8.602 L 241.998 14.823 L 249.641 20.08 L 254.085 19.137 L 255.022 19.571 L 252.074 22.738 L 250.796 27.032 L 249.946 26.444 L 248.612 21.899 L 240.029 18.299 L 239.717 30.57 L 238.168 29.149 L 235.617 15.863 Z " fill="rgb(0,137,124)"/></g><linearGradient id="_lgradient_3" x1="-0.00011670313639911001" y1="0.4998676089186347" x2="1.0000499878434255" y2="0.4998676089186347" gradientTransform="matrix(4.04,0,0,3.13,237.952,147.446)" gradientUnits="userSpaceOnUse"><stop offset="0%" stop-opacity="1" style="stop-color:rgb(0,159,227)"/><stop offset="10%" stop-opacity="1" style="stop-color:rgb(0,153,222)"/><stop offset="20%" stop-opacity="1" style="stop-color:rgb(0,148,217)"/><stop offset="30.000000000000004%" stop-opacity="1" style="stop-color:rgb(0,142,213)"/><stop offset="40%" stop-opacity="1" style="stop-color:rgb(0,137,208)"/><stop offset="50%" stop-opacity="1" style="stop-color:rgb(0,131,203)"/><stop offset="60%" stop-opacity="1" style="stop-color:rgb(0,126,198)"/><stop offset="70%" stop-opacity="1" style="stop-color:rgb(0,120,193)"/><stop offset="80%" stop-opacity="1" style="stop-color:rgb(0,115,189)"/><stop offset="89.99999999999999%" stop-opacity="1" style="stop-color:rgb(0,109,184)"/><stop offset="99.99999999999999%" stop-opacity="1" style="stop-color:rgb(0,104,179)"/></linearGradient><path d=" M 238.207 149.45 L 237.952 150.138 C 238.954 150.593 240.111 150.698 241.18 150.434 L 241.18 150.434 C 241.55 149.498 241.824 148.525 241.992 147.533 L 241.992 147.533 C 241.321 148.297 240.203 148.638 239.217 148.375 L 239.217 148.375 C 239.254 148.047 239.157 147.707 238.957 147.446 L 238.957 147.446 C 238.253 147.794 237.905 148.724 238.207 149.45 Z " fill="url(#_lgradient_3)"/><text transform="matrix(0.982,0,0,0.982,295.445,71.566)" style="font-family:'Open Sans';font-weight:700;font-size:30px;font-style:normal;fill:#3279bd;stroke:none;">Asociación Latinoamericana de Investigadores </text><text transform="matrix(0.982,0,0,0.982,341.961,111.7)" style="font-family:'Open Sans';font-weight:700;font-size:30px;font-style:normal;fill:#3279bd;stroke:none;">en Seguridad Operacional de la Aviación</text><linearGradient id="_lgradient_4" x1="0.18438857322424074" y1="1.6720294396653959" x2="0.8156095098986278" y2="-0.6665486643813465" gradientTransform="matrix(171.842,0,0,46.383,29.079,60.554)" gradientUnits="userSpaceOnUse"><stop offset="0%" stop-opacity="1" style="stop-color:rgb(0,159,227)"/><stop offset="10%" stop-opacity="1" style="stop-color:rgb(0,153,222)"/><stop offset="20%" stop-opacity="1" style="stop-color:rgb(0,148,217)"/><stop offset="30.000000000000004%" stop-opacity="1" style="stop-color:rgb(0,142,213)"/><stop offset="40%" stop-opacity="1" style="stop-color:rgb(0,137,208)"/><stop offset="50%" stop-opacity="1" style="stop-color:rgb(0,131,203)"/><stop offset="60%" stop-opacity="1" style="stop-color:rgb(0,126,198)"/><stop offset="70%" stop-opacity="1" style="stop-color:rgb(0,120,193)"/><stop offset="80%" stop-opacity="1" style="stop-color:rgb(0,115,189)"/><stop offset="89.99999999999999%" stop-opacity="1" style="stop-color:rgb(0,109,184)"/><stop offset="99.99999999999999%" stop-opacity="1" style="stop-color:rgb(0,104,179)"/></linearGradient><path d=" M 81.185 60.554 L 81.185 106.369 L 88.384 106.369 L 88.384 87.716 L 90.872 87.716 C 94.144 87.716 95.584 89.287 95.584 93.542 L 95.584 93.542 L 95.584 100.741 C 95.584 104.471 95.846 105.192 96.238 106.369 L 96.238 106.369 L 103.569 106.369 C 102.849 104.667 102.783 103.031 102.783 100.806 L 102.783 100.806 L 102.783 93.738 C 102.783 88.96 101.605 85.491 98.006 83.985 L 98.006 83.985 C 101.213 82.48 102.718 79.404 102.718 74.691 L 102.718 74.691 L 102.718 71.091 C 102.718 64.023 99.511 60.554 92.05 60.554 L 92.05 60.554 L 81.185 60.554 Z  M 88.384 67.1 L 91.854 67.1 C 94.405 67.1 95.518 68.539 95.518 71.811 L 95.518 71.811 L 95.518 76.327 C 95.518 79.993 93.882 81.171 91.199 81.171 L 91.199 81.171 L 88.384 81.171 L 88.384 67.1 Z  M 165.613 72.147 C 165.613 85.032 179.465 86.771 179.465 96.049 L 179.465 96.049 C 179.465 99.271 178.048 100.43 175.793 100.43 L 175.793 100.43 C 173.539 100.43 172.121 99.271 172.121 96.049 L 172.121 96.049 L 172.121 92.829 L 165.421 92.829 L 165.421 95.598 C 165.421 102.814 169.029 106.937 175.987 106.937 L 175.987 106.937 C 182.944 106.937 186.553 102.814 186.553 95.598 L 186.553 95.598 C 186.553 82.713 172.701 80.974 172.701 71.696 L 172.701 71.696 C 172.701 68.475 173.989 67.25 176.244 67.25 L 176.244 67.25 C 178.499 67.25 179.787 68.475 179.787 71.696 L 179.787 71.696 L 179.787 73.564 L 186.489 73.564 L 186.489 72.147 C 186.489 64.931 182.944 60.808 176.051 60.808 L 176.051 60.808 C 169.157 60.808 165.613 64.931 165.613 72.147 Z  M 108.852 72.147 C 108.852 85.032 122.703 86.771 122.703 96.049 L 122.703 96.049 C 122.703 99.271 121.286 100.43 119.031 100.43 L 119.031 100.43 C 116.776 100.43 115.359 99.271 115.359 96.049 L 115.359 96.049 L 115.359 92.829 L 108.658 92.829 L 108.658 95.598 C 108.658 102.814 112.267 106.937 119.224 106.937 L 119.224 106.937 C 126.182 106.937 129.79 102.814 129.79 95.598 L 129.79 95.598 C 129.79 82.713 115.939 80.974 115.939 71.696 L 115.939 71.696 C 115.939 68.475 117.227 67.25 119.482 67.25 L 119.482 67.25 C 121.737 67.25 123.026 68.475 123.026 71.696 L 123.026 71.696 L 123.026 73.564 L 129.727 73.564 L 129.727 72.147 C 129.727 64.931 126.182 60.808 119.289 60.808 L 119.289 60.808 C 112.395 60.808 108.852 64.931 108.852 72.147 Z  M 193.834 106.422 L 200.921 106.422 L 200.921 61.323 L 193.834 61.323 L 193.834 106.422 Z  M 142.418 61.323 L 135.203 106.422 L 141.71 106.422 L 142.934 98.24 L 151.632 98.24 L 152.857 106.422 L 160.007 106.422 L 152.792 61.323 L 142.418 61.323 Z  M 147.25 69.313 L 150.665 92.12 L 143.836 92.12 L 147.25 69.313 Z  M 59.489 61.323 L 52.273 106.422 L 58.78 106.422 L 60.004 98.24 L 68.702 98.24 L 69.926 106.422 L 77.078 106.422 L 69.861 61.323 L 59.489 61.323 Z  M 64.321 69.313 L 67.735 92.12 L 60.906 92.12 L 64.321 69.313 Z  M 29.079 61.323 L 29.079 106.422 L 47.827 106.422 L 47.827 99.979 L 36.166 99.979 L 36.166 61.323 L 29.079 61.323 Z " fill="url(#_lgradient_4)"/></g></svg>