<?xml version="1.0" encoding="UTF-8" standalone="no"?><!-- Generator: Gravit.io --><svg xmlns="http://www.w3.org/2000/svg" xmlns:xlink="http://www.w3.org/1999/xlink" style="isolation:isolate" viewBox="0 0 1000 160" width="1000pt" height="160pt"><defs><clipPath id="_clipPath_YlH27j4VYPoIZn9QgJQ9ilukber3trWY"><rect width="1000" height="160"/></clipPath></defs><g clip-path="url(#_clipPath_YlH27j4VYPoIZn9QgJQ9ilukber3trWY)"><rect x="2" y="-12" width="291.763" height="177.809" transform="matrix(1,0,0,1,0,0)" fill="rgb(255,255,255)"/><clipPath id="_clipPath_vjkKysct23VV3Cf84CpBbWQYJvQJwhM1"><path d=" M -227.874 -132.831 L 495.149 -132.831 L 495.149 358.353 L -227.874 358.353 L -227.874 -132.831 Z " fill="rgb(255,255,255)"/></clipPath><g clip-path="url(#_clipPath_vjkKysct23VV3Cf84CpBbWQYJvQJwhM1)"><path d=" M 250.31 114.141 C 233.488 131.381 206.748 133.773 185.92 124.635 C 207.639 137.131 235.86 133.898 254.167 115.137 C 275.85 92.914 275.414 57.321 253.191 35.636 C 248.207 30.775 242.552 27.028 236.531 24.386 C 240.538 26.692 244.323 29.532 247.785 32.909 C 270.008 54.593 271.994 91.918 250.31 114.141 Z " fill="rgb(0,154,147)"/></g><linearGradient id="_lgradient_0" x1="4.476924639895685e-7" y1="0.49999695989968596" x2="1.0000017043056135" y2="0.49999695989968596" gradientTransform="matrix(98.085,0,0,143.349,156.602,10.408)" gradientUnits="userSpaceOnUse"><stop offset="0%" stop-opacity="1" style="stop-color:rgb(0,159,227)"/><stop offset="10%" stop-opacity="1" style="stop-color:rgb(0,153,222)"/><stop offset="20%" stop-opacity="1" style="stop-color:rgb(0,148,217)"/><stop offset="30.000000000000004%" stop-opacity="1" style="stop-color:rgb(0,142,213)"/><stop offset="40%" stop-opacity="1" style="stop-color:rgb(0,137,208)"/><stop offset="50%" stop-opacity="1" style="stop-color:rgb(0,131,203)"/><stop offset="60%" stop-opacity="1" style="stop-color:rgb(0,126,198)"/><stop offset="70%" stop-opacity="1" style="stop-color:rgb(0,120,193)"/><stop offset="80%" stop-opacity="1" style="stop-color:rgb(0,115,189)"/><stop offset="89.99999999999999%" stop-opacity="1" style="stop-color:rgb(0,109,184)"/><stop offset="99.99999999999999%" stop-opacity="1" style="stop-color:rgb(0,104,179)"/></linearGradient><path d=" M 158.384 13.318 C 159.353 14.631 159.865 15.945 159.011 17.542 L 159.011 17.542 C 158.715 18.096 158.839 18.768 158.936 19.41 L 158.936 19.41 C 159.23 21.33 160.288 23.198 159.373 25.208 L 159.373 25.208 C 160.372 26.598 161.356 28 162.38 29.369 L 162.38 29.369 C 162.653 29.735 162.868 30.493 163.494 30.098 L 163.494 30.098 C 163.906 29.841 163.945 29.191 163.747 28.673 L 163.747 28.673 C 163.314 27.553 162.849 26.447 162.417 25.329 L 162.417 25.329 C 162.316 25.069 162.288 24.781 162.227 24.505 L 162.227 24.505 C 161.801 23.489 161.639 22.459 161.785 21.339 L 161.785 21.339 C 162.069 19.17 161.298 17.164 160.718 15.044 L 160.718 15.044 C 161.792 15.941 163.599 15.908 163.882 17.758 L 163.882 17.758 C 163.763 18.621 163.884 19.463 163.993 20.325 L 163.993 20.325 C 164.167 21.72 164.818 22.369 166.238 22.169 L 166.238 22.169 C 167.806 22.146 169.384 22 170.963 22.459 L 170.963 22.459 C 169.874 22.923 168.925 23.669 167.703 23.737 L 167.703 23.737 C 166.765 24.599 164.847 24.37 164.629 25.771 L 164.629 25.771 C 164.456 26.878 165.269 28.11 165.494 29.314 L 165.494 29.314 C 165.698 30.417 166.045 31.213 167.339 31.135 L 167.339 31.135 C 169.466 30.82 171.593 30.504 174.104 30.133 L 174.104 30.133 C 173.006 31.16 172.123 31.764 171.148 32.246 L 171.148 32.246 C 170.226 32.981 169.319 33.742 168.201 34.179 L 168.201 34.179 C 168.068 34.906 167.936 35.632 167.804 36.359 L 167.804 36.359 C 168.615 37.409 169.802 38.001 170.798 38.826 L 170.798 38.826 C 171.459 39.16 172.119 39.497 172.782 39.824 L 172.782 39.824 C 173.244 40.053 173.793 40.442 174.241 40.166 L 174.241 40.166 C 176.248 38.93 176.28 40.454 176.525 41.722 L 176.525 41.722 C 177.055 42.275 176.563 43.389 177.593 43.667 L 177.593 43.667 C 179.087 42.849 180.582 42.031 182.097 41.201 L 182.097 41.201 C 182.482 42.209 181.049 42.498 181.699 43.341 L 181.699 43.341 C 182.579 44.457 182.852 46.055 184.346 46.684 L 184.346 46.684 C 185.273 46.409 186.198 46.134 187.169 45.844 L 187.169 45.844 C 187.047 46.474 186.944 47.008 186.841 47.54 L 186.841 47.54 C 187.641 48.488 187.223 50.296 188.979 50.57 L 188.979 50.57 C 189.078 50.574 189.183 50.573 189.287 50.571 L 189.287 50.571 C 189.979 50.564 190.669 50.556 190.114 51.749 L 190.114 51.749 C 190.009 54.879 190.796 56.427 192.96 57.344 L 192.96 57.344 C 193.39 57.425 193.83 57.267 194.272 57.109 L 194.272 57.109 C 195.022 56.841 195.778 56.573 196.504 57.463 L 196.504 57.463 C 196.539 57.507 197.148 57.108 197.471 56.89 L 197.471 56.89 C 199.095 55.794 200.724 54.706 202.665 54.2 L 202.665 54.2 C 201.25 55.817 199.036 56.543 198.027 58.561 L 198.027 58.561 C 198.651 59.899 198.371 61.581 199.601 62.689 L 199.601 62.689 C 201.842 61.533 204.237 60.847 206.623 60.128 L 206.623 60.128 C 206.693 60.27 206.763 60.411 206.834 60.554 L 206.834 60.554 C 205.096 61.563 203.358 62.572 201.622 63.579 L 201.622 63.579 C 200.825 64.103 200.029 64.626 199.231 65.149 L 199.231 65.149 C 197.712 66.379 196.183 67.597 194.675 68.841 L 194.675 68.841 C 192.356 70.755 191.824 73.278 192.236 76.115 L 192.236 76.115 C 193.339 77.124 193.636 78.661 194.612 79.755 L 194.612 79.755 C 195.695 78.491 197.095 77.747 198.668 77.28 L 198.668 77.28 C 205.32 75.303 211.967 73.322 218.616 71.341 L 218.616 71.341 C 218.994 71.229 219.369 71.019 220.007 71.488 L 220.007 71.488 C 218.059 72.528 216.229 73.506 214.399 74.485 L 214.399 74.485 C 212.195 75.727 210.109 77.186 207.717 78.079 L 207.717 78.079 C 207.518 78.279 207.354 78.54 207.117 78.666 L 207.117 78.666 C 204.217 80.21 201.514 82.047 198.874 83.999 L 198.874 83.999 C 197.724 84.849 197.392 85.786 197.927 87.073 L 197.927 87.073 C 199.049 88.713 200.581 90.079 201.276 92.004 L 201.276 92.004 C 201.503 92.633 201.931 92.505 202.384 92.377 L 202.384 92.377 C 209.045 89.842 215.796 87.578 222.547 85.319 L 222.547 85.319 C 222.631 85.516 222.715 85.714 222.799 85.912 L 222.799 85.912 C 219.815 87.375 216.829 88.839 213.843 90.303 L 213.843 90.303 C 211.857 91.454 209.875 92.611 207.882 93.749 L 207.882 93.749 C 207.395 94.027 206.97 94.475 206.33 94.394 L 206.33 94.394 C 205.871 95.163 204.337 95.382 205.197 96.827 L 205.197 96.827 C 206.174 98.467 206.731 100.246 206.538 102.196 L 206.538 102.196 C 207.097 102.159 207.656 102.121 208.217 102.083 L 208.217 102.083 C 212.722 100.39 217.364 99.141 221.943 97.686 L 221.943 97.686 C 222.019 97.821 222.094 97.954 222.168 98.089 L 222.168 98.089 C 220.69 98.909 219.21 99.731 217.732 100.551 L 217.732 100.551 C 215.636 101.765 213.707 103.265 211.464 104.23 L 211.464 104.23 C 209.768 105.658 208.068 107.083 206.378 108.519 L 206.378 108.519 C 205.991 108.847 205.513 109.134 205.443 109.701 L 205.443 109.701 C 205.104 112.507 205.642 115.177 206.718 117.761 L 206.718 117.761 L 214.987 113.16 C 215.088 113.323 215.189 113.488 215.291 113.652 L 215.291 113.652 C 212.64 115.75 209.989 117.847 207.337 119.947 L 207.337 119.947 C 205.396 121.313 204.479 122.967 205.214 125.469 L 205.214 125.469 C 205.655 126.969 206.053 128.572 205.748 130.203 L 205.748 130.203 C 206.274 130.463 206.201 130.937 206.176 131.394 L 206.176 131.394 C 206.203 131.486 206.205 131.577 206.185 131.669 L 206.185 131.669 C 207.094 132.142 207.552 131.163 208.27 131.025 L 208.27 131.025 C 208.836 130.673 209.401 130.32 209.967 129.968 L 209.967 129.968 C 210.039 129.836 210.127 129.686 210.276 129.843 L 210.276 129.843 C 210.311 129.879 210.178 130.076 210.123 130.199 L 210.123 130.199 C 209.814 130.849 209.508 131.5 208.94 131.979 L 208.94 131.979 C 208.651 132.8 208.142 133.49 207.614 134.167 L 207.614 134.167 C 207.53 134.317 207.472 134.489 207.361 134.612 L 207.361 134.612 C 204.956 137.241 204.376 140.155 205.966 143.416 L 205.966 143.416 C 207.759 143.419 209.238 142.315 211.294 141.83 L 211.294 141.83 C 210.377 143.302 209.633 144.495 208.89 145.69 L 208.89 145.69 C 208.601 146.453 207.564 147.139 208.644 148.043 L 208.644 148.043 C 208.978 148.123 209.312 148.2 209.644 148.284 L 209.644 148.284 C 212.201 148.937 212.202 148.938 211.876 151.512 L 211.876 151.512 L 212.856 151.702 C 214.192 151.207 215.315 151.252 216.307 152.537 L 216.307 152.537 C 217.26 153.772 218.707 153.896 220.178 153.658 L 220.178 153.658 C 220.29 153.608 220.402 153.557 220.514 153.507 L 220.514 153.507 C 220.472 153.393 220.429 153.279 220.387 153.165 L 220.387 153.165 C 219.139 152.184 217.893 151.199 216.64 150.223 L 216.64 150.223 C 215.828 149.591 215.249 148.898 216.134 147.923 L 216.134 147.923 C 216.578 147.435 216.02 147.415 215.868 147.2 L 215.868 147.2 C 214.287 146.997 214.116 146.225 214.913 144.973 L 214.913 144.973 C 215.486 144.076 215.973 143.125 216.5 142.196 L 216.5 142.196 C 216.38 141.584 216.258 140.972 216.138 140.359 L 216.138 140.359 C 215.721 139.312 215.492 138.236 215.684 137.105 L 215.684 137.105 C 215.594 136.363 215.506 135.621 215.416 134.882 L 215.416 134.882 L 213.64 135.292 C 216.932 131.362 220.33 127.617 224.142 124.272 L 224.142 124.272 C 224.496 123.578 224.167 122.875 224.168 122.177 L 224.168 122.177 C 223.729 121.201 223.33 120.217 223.671 119.115 L 223.671 119.115 C 222.817 118.517 222.845 117.95 223.724 117.403 L 223.724 117.403 C 229.327 113.911 234.928 110.418 240.529 106.925 L 240.529 106.925 C 240.798 106.758 241.067 106.591 241.336 106.423 L 241.336 106.423 C 242.428 105.512 243.657 104.815 244.913 104.167 L 244.913 104.167 C 245.325 103.915 245.735 103.666 246.147 103.414 L 246.147 103.414 L 245.715 99.564 C 245.544 98.826 245.372 98.086 245.202 97.346 L 245.202 97.346 C 244.825 97.05 244.626 96.664 244.621 96.181 L 244.621 96.181 C 244.268 95.972 243.826 95.718 244.394 95.339 L 244.394 95.339 C 244.904 95.001 245.512 94.811 246.078 94.555 L 246.078 94.555 C 248.926 93.122 251.774 91.689 254.622 90.256 L 254.622 90.256 C 254.976 87.578 253.786 85.142 253.399 82.579 L 253.399 82.579 C 253.326 82.092 252.77 82.182 252.399 82.086 L 252.399 82.086 C 250.938 82.537 249.455 82.776 247.844 82.44 L 247.844 82.44 C 249.496 81.649 251.147 80.857 252.798 80.067 L 252.798 80.067 C 253.048 77.727 253.079 75.412 251.985 73.233 L 251.985 73.233 C 251.14 72.214 249.994 72.27 248.832 72.315 L 248.832 72.315 C 244.914 72.465 241.046 73.07 237.166 73.554 L 237.166 73.554 C 235.39 73.923 233.615 74.29 231.84 74.658 L 231.84 74.658 C 231.739 74.488 231.639 74.318 231.539 74.147 L 231.539 74.147 C 232.208 73.794 232.88 73.446 233.545 73.086 L 233.545 73.086 C 234.301 72.676 234.813 72.111 234.745 71.173 L 234.745 71.173 C 234.712 70.732 234.582 70.317 235.338 70.222 L 235.338 70.222 C 236.135 70.122 235.6 69.507 235.503 69.145 L 235.503 69.145 C 234.961 67.098 234.38 65.059 233.814 63.018 L 233.814 63.018 C 232.961 62.099 231.781 62.068 230.667 61.873 L 230.667 61.873 C 227.591 61.341 224.505 61.437 221.418 61.74 L 221.418 61.74 L 211.689 64.161 C 211.67 64.083 211.65 64.004 211.631 63.926 L 211.631 63.926 C 214.187 62.46 216.756 61.015 219.296 59.52 L 219.296 59.52 C 221.94 57.96 221.929 57.931 221.216 55.043 L 221.216 55.043 C 221.149 54.767 221.111 54.484 221.059 54.204 L 221.059 54.204 C 220.728 53.349 220.149 53.019 219.213 53.201 L 219.213 53.201 C 218.397 53.359 217.57 53.609 216.718 53.375 L 216.718 53.375 C 214.912 54.15 212.949 53.951 210.619 54.578 L 210.619 54.578 C 211.297 53.958 211.55 53.656 211.865 53.449 L 211.865 53.449 C 214.206 51.927 215.467 50.053 213.949 47.24 L 213.949 47.24 C 213.676 46.31 213.009 46.047 212.126 46.182 L 212.126 46.182 C 210.655 46.406 209.175 46.59 207.721 46.885 L 207.721 46.885 C 204.27 47.586 201.171 49.276 197.888 50.452 L 197.888 50.452 C 196.107 51.364 195.765 51.236 195.262 48.974 L 195.262 48.974 C 194.967 47.646 194.665 46.552 192.761 46.731 L 192.761 46.731 C 195.502 44.975 193.925 42.909 193.483 40.96 L 193.483 40.96 C 193.361 40.424 192.93 39.917 193.719 39.539 L 193.719 39.539 C 194.984 38.934 194.94 37.953 194.55 36.798 L 194.55 36.798 C 194.259 35.94 194.134 35.024 193.936 34.134 L 193.936 34.134 C 193.692 33.596 193.507 33.041 192.779 33.739 L 192.779 33.739 C 192.389 34.112 191.88 34.62 191.278 34.369 L 191.278 34.369 C 189.69 33.709 188.816 34.764 187.904 35.686 L 187.904 35.686 C 186.623 36.984 185.417 38.361 183.577 38.896 L 183.577 38.896 C 182.574 39.526 181.466 39.725 180.186 39.742 L 180.186 39.742 C 181.845 36.667 180.421 34.103 179.009 31.538 L 179.009 31.538 C 178.816 31.185 178.985 30.869 179.071 30.55 L 179.071 30.55 C 179.517 28.883 179.969 27.227 180.905 25.734 L 180.905 25.734 C 181.624 24.587 181.746 23.526 180.581 22.403 L 180.581 22.403 C 179.522 21.382 178.323 20.434 177.62 19.075 L 177.62 19.075 C 175.005 17.39 172.018 17.117 169.04 16.814 L 169.04 16.814 C 168.868 16.797 168.673 16.802 168.477 16.809 L 168.477 16.809 C 167.963 16.824 167.434 16.838 167.257 16.433 L 167.257 16.433 C 166.018 13.597 163.148 13.3 160.846 12.137 L 160.846 12.137 C 159.517 11.466 158.204 10.702 156.602 10.408 L 156.602 10.408 C 156.894 11.707 157.747 12.451 158.384 13.318 Z  M 211.876 151.515 C 211.876 151.514 211.876 151.513 211.876 151.512 L 211.876 151.512 L 211.86 151.509 L 211.876 151.515 Z " fill="url(#_lgradient_0)"/><linearGradient id="_lgradient_1" x1="0.000009056187998623955" y1="0.5000234694208139" x2="0.999978762152459" y2="0.5000234694208139" gradientTransform="matrix(11.744,0,0,6.413,197.945,33.578)" gradientUnits="userSpaceOnUse"><stop offset="0%" stop-opacity="1" style="stop-color:rgb(0,159,227)"/><stop offset="10%" stop-opacity="1" style="stop-color:rgb(0,153,222)"/><stop offset="20%" stop-opacity="1" style="stop-color:rgb(0,148,217)"/><stop offset="30.000000000000004%" stop-opacity="1" style="stop-color:rgb(0,142,213)"/><stop offset="40%" stop-opacity="1" style="stop-color:rgb(0,137,208)"/><stop offset="50%" stop-opacity="1" style="stop-color:rgb(0,131,203)"/><stop offset="60%" stop-opacity="1" style="stop-color:rgb(0,126,198)"/><stop offset="70%" stop-opacity="1" style="stop-color:rgb(0,120,193)"/><stop offset="80%" stop-opacity="1" style="stop-color:rgb(0,115,189)"/><stop offset="89.99999999999999%" stop-opacity="1" style="stop-color:rgb(0,109,184)"/><stop offset="99.99999999999999%" stop-opacity="1" style="stop-color:rgb(0,104,179)"/></linearGradient><path d=" M 198.132 34.257 C 199.143 34.546 199.904 35.833 201.23 34.937 L 201.23 34.937 C 201.541 34.726 202.091 35.137 202.1 35.547 L 202.1 35.547 C 202.115 36.234 202.654 36.313 203.022 36.636 L 203.022 36.636 C 204.505 37.94 206.478 38.408 208.021 39.617 L 208.021 39.617 C 208.426 39.934 209.006 40.196 209.689 39.764 L 209.689 39.764 C 208.494 37.928 207.352 36.107 205.374 35.022 L 205.374 35.022 C 203.298 33.243 200.741 33.768 198.34 33.582 L 198.34 33.582 C 198.306 33.58 198.274 33.578 198.246 33.578 L 198.246 33.578 C 197.732 33.578 198.005 33.981 198.132 34.257 Z " fill="url(#_lgradient_1)"/><linearGradient id="_lgradient_2" x1="0.000008842120450935909" y1="0.4999252663832152" x2="0.9999564808029078" y2="0.4999252663832152" gradientTransform="matrix(4.032,0,0,2.774,210.907,38.443)" gradientUnits="userSpaceOnUse"><stop offset="0%" stop-opacity="1" style="stop-color:rgb(0,159,227)"/><stop offset="10%" stop-opacity="1" style="stop-color:rgb(0,153,222)"/><stop offset="20%" stop-opacity="1" style="stop-color:rgb(0,148,217)"/><stop offset="30.000000000000004%" stop-opacity="1" style="stop-color:rgb(0,142,213)"/><stop offset="40%" stop-opacity="1" style="stop-color:rgb(0,137,208)"/><stop offset="50%" stop-opacity="1" style="stop-color:rgb(0,131,203)"/><stop offset="60%" stop-opacity="1" style="stop-color:rgb(0,126,198)"/><stop offset="70%" stop-opacity="1" style="stop-color:rgb(0,120,193)"/><stop offset="80%" stop-opacity="1" style="stop-color:rgb(0,115,189)"/><stop offset="89.99999999999999%" stop-opacity="1" style="stop-color:rgb(0,109,184)"/><stop offset="99.99999999999999%" stop-opacity="1" style="stop-color:rgb(0,104,179)"/></linearGradient><path d=" M 210.985 38.833 C 210.597 40.042 211.747 40.168 212.322 40.644 L 212.322 40.644 C 213.078 41.272 214.08 41.507 214.771 40.707 L 214.771 40.707 C 215.415 39.959 213.992 39.804 214.019 39.124 L 214.019 39.124 C 213.425 38.737 212.824 38.443 212.195 38.443 L 212.195 38.443 C 211.804 38.443 211.403 38.557 210.985 38.833 Z " fill="url(#_lgradient_2)"/><clipPath id="_clipPath_CMPWEdNBTTOdCY0Wp1XX3eR81fhYIJSl"><path d=" M -227.874 -132.831 L 495.149 -132.831 L 495.149 358.353 L -227.874 358.353 L -227.874 -132.831 Z " fill="rgb(255,255,255)"/></clipPath><g clip-path="url(#_clipPath_CMPWEdNBTTOdCY0Wp1XX3eR81fhYIJSl)"><path d=" M 216.617 15.863 C 216.617 15.863 209.405 12.039 210.529 10.055 C 211.651 8.073 218.788 12.277 218.788 12.277 L 231.346 7.648 L 233.915 8.602 L 222.998 14.823 L 230.641 20.08 L 235.085 19.137 L 236.022 19.571 L 233.074 22.738 L 231.796 27.032 L 230.946 26.444 L 229.612 21.899 L 221.029 18.299 L 220.717 30.57 L 219.168 29.149 L 216.617 15.863 Z " fill="rgb(0,137,124)"/></g><linearGradient id="_lgradient_3" x1="-0.00011670313639911001" y1="0.4998676089186347" x2="1.0000499878434255" y2="0.4998676089186347" gradientTransform="matrix(4.04,0,0,3.13,218.952,147.446)" gradientUnits="userSpaceOnUse"><stop offset="0%" stop-opacity="1" style="stop-color:rgb(0,159,227)"/><stop offset="10%" stop-opacity="1" style="stop-color:rgb(0,153,222)"/><stop offset="20%" stop-opacity="1" style="stop-color:rgb(0,148,217)"/><stop offset="30.000000000000004%" stop-opacity="1" style="stop-color:rgb(0,142,213)"/><stop offset="40%" stop-opacity="1" style="stop-color:rgb(0,137,208)"/><stop offset="50%" stop-opacity="1" style="stop-color:rgb(0,131,203)"/><stop offset="60%" stop-opacity="1" style="stop-color:rgb(0,126,198)"/><stop offset="70%" stop-opacity="1" style="stop-color:rgb(0,120,193)"/><stop offset="80%" stop-opacity="1" style="stop-color:rgb(0,115,189)"/><stop offset="89.99999999999999%" stop-opacity="1" style="stop-color:rgb(0,109,184)"/><stop offset="99.99999999999999%" stop-opacity="1" style="stop-color:rgb(0,104,179)"/></linearGradient><path d=" M 219.207 149.45 L 218.952 150.138 C 219.954 150.593 221.111 150.698 222.18 150.434 L 222.18 150.434 C 222.55 149.498 222.824 148.525 222.992 147.533 L 222.992 147.533 C 222.321 148.297 221.203 148.638 220.217 148.375 L 220.217 148.375 C 220.254 148.047 220.157 147.707 219.957 147.446 L 219.957 147.446 C 219.253 147.794 218.905 148.724 219.207 149.45 Z " fill="url(#_lgradient_3)"/><text transform="matrix(0.982,0,0,0.982,276.445,71.566)" style="font-family:'Open Sans';font-weight:700;font-size:30px;font-style:normal;fill:#3279bd;stroke:none;">Asociación Latinoamericana de Investigadores </text><text transform="matrix(0.982,0,0,0.982,322.961,111.7)" style="font-family:'Open Sans';font-weight:700;font-size:30px;font-style:normal;fill:#3279bd;stroke:none;">en Seguridad Operacional de la Aviación</text><linearGradient id="_lgradient_4" x1="0.18438857322424074" y1="1.6720294396653959" x2="0.8156095098986278" y2="-0.6665486643813465" gradientTransform="matrix(141.842,0,0,46.129,40.079,60.808)" gradientUnits="userSpaceOnUse"><stop offset="0%" stop-opacity="1" style="stop-color:rgb(0,159,227)"/><stop offset="10%" stop-opacity="1" style="stop-color:rgb(0,153,222)"/><stop offset="20%" stop-opacity="1" style="stop-color:rgb(0,148,217)"/><stop offset="30.000000000000004%" stop-opacity="1" style="stop-color:rgb(0,142,213)"/><stop offset="40%" stop-opacity="1" style="stop-color:rgb(0,137,208)"/><stop offset="50%" stop-opacity="1" style="stop-color:rgb(0,131,203)"/><stop offset="60%" stop-opacity="1" style="stop-color:rgb(0,126,198)"/><stop offset="70%" stop-opacity="1" style="stop-color:rgb(0,120,193)"/><stop offset="80%" stop-opacity="1" style="stop-color:rgb(0,115,189)"/><stop offset="89.99999999999999%" stop-opacity="1" style="stop-color:rgb(0,109,184)"/><stop offset="99.99999999999999%" stop-opacity="1" style="stop-color:rgb(0,104,179)"/></linearGradient><path d=" M 146.613 72.147 C 146.613 85.032 160.465 86.771 160.465 96.049 L 160.465 96.049 C 160.465 99.271 159.048 100.43 156.793 100.43 L 156.793 100.43 C 154.539 100.43 153.121 99.271 153.121 96.049 L 153.121 96.049 L 153.121 92.829 L 146.421 92.829 L 146.421 95.598 C 146.421 102.814 150.029 106.937 156.987 106.937 L 156.987 106.937 C 163.944 106.937 167.553 102.814 167.553 95.598 L 167.553 95.598 C 167.553 82.713 153.701 80.974 153.701 71.696 L 153.701 71.696 C 153.701 68.475 154.989 67.25 157.244 67.25 L 157.244 67.25 C 159.499 67.25 160.787 68.475 160.787 71.696 L 160.787 71.696 L 160.787 73.564 L 167.489 73.564 L 167.489 72.147 C 167.489 64.931 163.944 60.808 157.051 60.808 L 157.051 60.808 C 150.157 60.808 146.613 64.931 146.613 72.147 Z  M 89.852 72.147 C 89.852 85.032 103.703 86.771 103.703 96.049 L 103.703 96.049 C 103.703 99.271 102.286 100.43 100.031 100.43 L 100.031 100.43 C 97.776 100.43 96.359 99.271 96.359 96.049 L 96.359 96.049 L 96.359 92.829 L 89.658 92.829 L 89.658 95.598 C 89.658 102.814 93.267 106.937 100.224 106.937 L 100.224 106.937 C 107.182 106.937 110.79 102.814 110.79 95.598 L 110.79 95.598 C 110.79 82.713 96.939 80.974 96.939 71.696 L 96.939 71.696 C 96.939 68.475 98.227 67.25 100.482 67.25 L 100.482 67.25 C 102.737 67.25 104.026 68.475 104.026 71.696 L 104.026 71.696 L 104.026 73.564 L 110.727 73.564 L 110.727 72.147 C 110.727 64.931 107.182 60.808 100.289 60.808 L 100.289 60.808 C 93.395 60.808 89.852 64.931 89.852 72.147 Z  M 174.834 106.422 L 181.921 106.422 L 181.921 61.323 L 174.834 61.323 L 174.834 106.422 Z  M 123.418 61.323 L 116.203 106.422 L 122.71 106.422 L 123.934 98.24 L 132.632 98.24 L 133.857 106.422 L 141.007 106.422 L 133.792 61.323 L 123.418 61.323 Z  M 128.25 69.313 L 131.665 92.12 L 124.836 92.12 L 128.25 69.313 Z  M 70.489 61.323 L 63.273 106.422 L 69.78 106.422 L 71.004 98.24 L 79.702 98.24 L 80.926 106.422 L 88.078 106.422 L 80.861 61.323 L 70.489 61.323 Z  M 75.321 69.313 L 78.735 92.12 L 71.906 92.12 L 75.321 69.313 Z  M 40.079 61.323 L 40.079 106.422 L 58.827 106.422 L 58.827 99.979 L 47.166 99.979 L 47.166 61.323 L 40.079 61.323 Z " fill="url(#_lgradient_4)"/></g></svg>