<?xml version="1.0" encoding="UTF-8" standalone="no"?><!-- Generator: Gravit.io --><svg xmlns="http://www.w3.org/2000/svg" xmlns:xlink="http://www.w3.org/1999/xlink" style="isolation:isolate" viewBox="0 0 1000 160" width="1000pt" height="160pt"><defs><clipPath id="_clipPath_6iksk2S3RNtYljDCutic8Udn5oVARmQ6"><rect width="1000" height="160"/></clipPath></defs><g clip-path="url(#_clipPath_6iksk2S3RNtYljDCutic8Udn5oVARmQ6)"><rect x="7" y="-9" width="291.763" height="177.809" transform="matrix(1,0,0,1,0,0)" fill="rgb(255,255,255)"/><clipPath id="_clipPath_6J5cO4y6QiWMhi1mx9Ne5NazyU0fIXXc"><rect x="7" y="-9" width="291.763" height="177.809" transform="matrix(1,0,0,1,0,0)" fill="rgb(255,255,255)"/></clipPath><g clip-path="url(#_clipPath_6J5cO4y6QiWMhi1mx9Ne5NazyU0fIXXc)"><clipPath id="_clipPath_HRluBLrVKLQtrwT2dZpEidY6nXuHiMbe"><path d=" M -222.874 -129.831 L 500.149 -129.831 L 500.149 361.353 L -222.874 361.353 L -222.874 -129.831 Z " fill="rgb(255,255,255)"/></clipPath><g clip-path="url(#_clipPath_HRluBLrVKLQtrwT2dZpEidY6nXuHiMbe)"><path d=" M 255.31 117.141 C 238.488 134.381 211.748 136.773 190.92 127.635 C 212.639 140.131 240.86 136.898 259.167 118.137 C 280.85 95.914 280.414 60.321 258.191 38.636 C 253.207 33.775 247.552 30.028 241.531 27.386 C 245.538 29.692 249.323 32.532 252.785 35.909 C 275.008 57.593 276.994 94.918 255.31 117.141 Z " fill="rgb(0,154,147)"/></g><linearGradient id="_lgradient_14" x1="4.476924639895685e-7" y1="0.49999695989968596" x2="1.0000017043056135" y2="0.49999695989968596" gradientTransform="matrix(98.085,0,0,143.349,161.602,13.408)" gradientUnits="userSpaceOnUse"><stop offset="0%" stop-opacity="1" style="stop-color:rgb(0,159,227)"/><stop offset="10%" stop-opacity="1" style="stop-color:rgb(0,153,222)"/><stop offset="20%" stop-opacity="1" style="stop-color:rgb(0,148,217)"/><stop offset="30.000000000000004%" stop-opacity="1" style="stop-color:rgb(0,142,213)"/><stop offset="40%" stop-opacity="1" style="stop-color:rgb(0,137,208)"/><stop offset="50%" stop-opacity="1" style="stop-color:rgb(0,131,203)"/><stop offset="60%" stop-opacity="1" style="stop-color:rgb(0,126,198)"/><stop offset="70%" stop-opacity="1" style="stop-color:rgb(0,120,193)"/><stop offset="80%" stop-opacity="1" style="stop-color:rgb(0,115,189)"/><stop offset="89.99999999999999%" stop-opacity="1" style="stop-color:rgb(0,109,184)"/><stop offset="99.99999999999999%" stop-opacity="1" style="stop-color:rgb(0,104,179)"/></linearGradient><path d=" M 163.384 16.318 C 164.353 17.631 164.865 18.945 164.011 20.542 L 164.011 20.542 C 163.715 21.096 163.839 21.768 163.936 22.41 L 163.936 22.41 C 164.23 24.33 165.288 26.198 164.373 28.208 L 164.373 28.208 C 165.372 29.598 166.356 31 167.38 32.369 L 167.38 32.369 C 167.653 32.735 167.868 33.493 168.494 33.098 L 168.494 33.098 C 168.906 32.841 168.945 32.191 168.747 31.673 L 168.747 31.673 C 168.314 30.553 167.849 29.447 167.417 28.329 L 167.417 28.329 C 167.316 28.069 167.288 27.781 167.227 27.505 L 167.227 27.505 C 166.801 26.489 166.639 25.459 166.785 24.339 L 166.785 24.339 C 167.069 22.17 166.298 20.164 165.718 18.044 L 165.718 18.044 C 166.792 18.941 168.599 18.908 168.882 20.758 L 168.882 20.758 C 168.763 21.621 168.884 22.463 168.993 23.325 L 168.993 23.325 C 169.167 24.72 169.818 25.369 171.238 25.169 L 171.238 25.169 C 172.806 25.146 174.384 25 175.963 25.459 L 175.963 25.459 C 174.874 25.923 173.925 26.669 172.703 26.737 L 172.703 26.737 C 171.765 27.599 169.847 27.37 169.629 28.771 L 169.629 28.771 C 169.456 29.878 170.269 31.11 170.494 32.314 L 170.494 32.314 C 170.698 33.417 171.045 34.213 172.339 34.135 L 172.339 34.135 C 174.466 33.82 176.593 33.504 179.104 33.133 L 179.104 33.133 C 178.006 34.16 177.123 34.764 176.148 35.246 L 176.148 35.246 C 175.226 35.981 174.319 36.742 173.201 37.179 L 173.201 37.179 C 173.068 37.906 172.936 38.632 172.804 39.359 L 172.804 39.359 C 173.615 40.409 174.802 41.001 175.798 41.826 L 175.798 41.826 C 176.459 42.16 177.119 42.497 177.782 42.824 L 177.782 42.824 C 178.244 43.053 178.793 43.442 179.241 43.166 L 179.241 43.166 C 181.248 41.93 181.28 43.454 181.525 44.722 L 181.525 44.722 C 182.055 45.275 181.563 46.389 182.593 46.667 L 182.593 46.667 C 184.087 45.849 185.582 45.031 187.097 44.201 L 187.097 44.201 C 187.482 45.209 186.049 45.498 186.699 46.341 L 186.699 46.341 C 187.579 47.457 187.852 49.055 189.346 49.684 L 189.346 49.684 C 190.273 49.409 191.198 49.134 192.169 48.844 L 192.169 48.844 C 192.047 49.474 191.944 50.008 191.841 50.54 L 191.841 50.54 C 192.641 51.488 192.223 53.296 193.979 53.57 L 193.979 53.57 C 194.078 53.574 194.183 53.573 194.287 53.571 L 194.287 53.571 C 194.979 53.564 195.669 53.556 195.114 54.749 L 195.114 54.749 C 195.009 57.879 195.796 59.427 197.96 60.344 L 197.96 60.344 C 198.39 60.425 198.83 60.267 199.272 60.109 L 199.272 60.109 C 200.022 59.841 200.778 59.573 201.504 60.463 L 201.504 60.463 C 201.539 60.507 202.148 60.108 202.471 59.89 L 202.471 59.89 C 204.095 58.794 205.724 57.706 207.665 57.2 L 207.665 57.2 C 206.25 58.817 204.036 59.543 203.027 61.561 L 203.027 61.561 C 203.651 62.899 203.371 64.581 204.601 65.689 L 204.601 65.689 C 206.842 64.533 209.237 63.847 211.623 63.128 L 211.623 63.128 C 211.693 63.27 211.763 63.411 211.834 63.554 L 211.834 63.554 C 210.096 64.563 208.358 65.572 206.622 66.579 L 206.622 66.579 C 205.825 67.103 205.029 67.626 204.231 68.149 L 204.231 68.149 C 202.712 69.379 201.183 70.597 199.675 71.841 L 199.675 71.841 C 197.356 73.755 196.824 76.278 197.236 79.115 L 197.236 79.115 C 198.339 80.124 198.636 81.661 199.612 82.755 L 199.612 82.755 C 200.695 81.491 202.095 80.747 203.668 80.28 L 203.668 80.28 C 210.32 78.303 216.967 76.322 223.616 74.341 L 223.616 74.341 C 223.994 74.229 224.369 74.019 225.007 74.488 L 225.007 74.488 C 223.059 75.528 221.229 76.506 219.399 77.485 L 219.399 77.485 C 217.195 78.727 215.109 80.186 212.717 81.079 L 212.717 81.079 C 212.518 81.279 212.354 81.54 212.117 81.666 L 212.117 81.666 C 209.217 83.21 206.514 85.047 203.874 86.999 L 203.874 86.999 C 202.724 87.849 202.392 88.786 202.927 90.073 L 202.927 90.073 C 204.049 91.713 205.581 93.079 206.276 95.004 L 206.276 95.004 C 206.503 95.633 206.931 95.505 207.384 95.377 L 207.384 95.377 C 214.045 92.842 220.796 90.578 227.547 88.319 L 227.547 88.319 C 227.631 88.516 227.715 88.714 227.799 88.912 L 227.799 88.912 C 224.815 90.375 221.829 91.839 218.843 93.303 L 218.843 93.303 C 216.857 94.454 214.875 95.611 212.882 96.749 L 212.882 96.749 C 212.395 97.027 211.97 97.475 211.33 97.394 L 211.33 97.394 C 210.871 98.163 209.337 98.382 210.197 99.827 L 210.197 99.827 C 211.174 101.467 211.731 103.246 211.538 105.196 L 211.538 105.196 C 212.097 105.159 212.656 105.121 213.217 105.083 L 213.217 105.083 C 217.722 103.39 222.364 102.141 226.943 100.686 L 226.943 100.686 C 227.019 100.821 227.094 100.954 227.168 101.089 L 227.168 101.089 C 225.69 101.909 224.21 102.731 222.732 103.551 L 222.732 103.551 C 220.636 104.765 218.707 106.265 216.464 107.23 L 216.464 107.23 C 214.768 108.658 213.068 110.083 211.378 111.519 L 211.378 111.519 C 210.991 111.847 210.513 112.134 210.443 112.701 L 210.443 112.701 C 210.104 115.507 210.642 118.177 211.718 120.761 L 211.718 120.761 L 219.987 116.16 C 220.088 116.323 220.189 116.488 220.291 116.652 L 220.291 116.652 C 217.64 118.75 214.989 120.847 212.337 122.947 L 212.337 122.947 C 210.396 124.313 209.479 125.967 210.214 128.469 L 210.214 128.469 C 210.655 129.969 211.053 131.572 210.748 133.203 L 210.748 133.203 C 211.274 133.463 211.201 133.937 211.176 134.394 L 211.176 134.394 C 211.203 134.486 211.205 134.577 211.185 134.669 L 211.185 134.669 C 212.094 135.142 212.552 134.163 213.27 134.025 L 213.27 134.025 C 213.836 133.673 214.401 133.32 214.967 132.968 L 214.967 132.968 C 215.039 132.836 215.127 132.686 215.276 132.843 L 215.276 132.843 C 215.311 132.879 215.178 133.076 215.123 133.199 L 215.123 133.199 C 214.814 133.849 214.508 134.5 213.94 134.979 L 213.94 134.979 C 213.651 135.8 213.142 136.49 212.614 137.167 L 212.614 137.167 C 212.53 137.317 212.472 137.489 212.361 137.612 L 212.361 137.612 C 209.956 140.241 209.376 143.155 210.966 146.416 L 210.966 146.416 C 212.759 146.419 214.238 145.315 216.294 144.83 L 216.294 144.83 C 215.377 146.302 214.633 147.495 213.89 148.69 L 213.89 148.69 C 213.601 149.453 212.564 150.139 213.644 151.043 L 213.644 151.043 C 213.978 151.123 214.312 151.2 214.644 151.284 L 214.644 151.284 C 217.201 151.937 217.202 151.938 216.876 154.512 L 216.876 154.512 L 217.856 154.702 C 219.192 154.207 220.315 154.252 221.307 155.537 L 221.307 155.537 C 222.26 156.772 223.707 156.896 225.178 156.658 L 225.178 156.658 C 225.29 156.608 225.402 156.557 225.514 156.507 L 225.514 156.507 C 225.472 156.393 225.429 156.279 225.387 156.165 L 225.387 156.165 C 224.139 155.184 222.893 154.199 221.64 153.223 L 221.64 153.223 C 220.828 152.591 220.249 151.898 221.134 150.923 L 221.134 150.923 C 221.578 150.435 221.02 150.415 220.868 150.2 L 220.868 150.2 C 219.287 149.997 219.116 149.225 219.913 147.973 L 219.913 147.973 C 220.486 147.076 220.973 146.125 221.5 145.196 L 221.5 145.196 C 221.38 144.584 221.258 143.972 221.138 143.359 L 221.138 143.359 C 220.721 142.312 220.492 141.236 220.684 140.105 L 220.684 140.105 C 220.594 139.363 220.506 138.621 220.416 137.882 L 220.416 137.882 L 218.64 138.292 C 221.932 134.362 225.33 130.617 229.142 127.272 L 229.142 127.272 C 229.496 126.578 229.167 125.875 229.168 125.177 L 229.168 125.177 C 228.729 124.201 228.33 123.217 228.671 122.115 L 228.671 122.115 C 227.817 121.517 227.845 120.95 228.724 120.403 L 228.724 120.403 C 234.327 116.911 239.928 113.418 245.529 109.925 L 245.529 109.925 C 245.798 109.758 246.067 109.591 246.336 109.423 L 246.336 109.423 C 247.428 108.512 248.657 107.815 249.913 107.167 L 249.913 107.167 C 250.325 106.915 250.735 106.666 251.147 106.414 L 251.147 106.414 L 250.715 102.564 C 250.544 101.826 250.372 101.086 250.202 100.346 L 250.202 100.346 C 249.825 100.05 249.626 99.664 249.621 99.181 L 249.621 99.181 C 249.268 98.972 248.826 98.718 249.394 98.339 L 249.394 98.339 C 249.904 98.001 250.512 97.811 251.078 97.555 L 251.078 97.555 C 253.926 96.122 256.774 94.689 259.622 93.256 L 259.622 93.256 C 259.976 90.578 258.786 88.142 258.399 85.579 L 258.399 85.579 C 258.326 85.092 257.77 85.182 257.399 85.086 L 257.399 85.086 C 255.938 85.537 254.455 85.776 252.844 85.44 L 252.844 85.44 C 254.496 84.649 256.147 83.857 257.798 83.067 L 257.798 83.067 C 258.048 80.727 258.079 78.412 256.985 76.233 L 256.985 76.233 C 256.14 75.214 254.994 75.27 253.832 75.315 L 253.832 75.315 C 249.914 75.465 246.046 76.07 242.166 76.554 L 242.166 76.554 C 240.39 76.923 238.615 77.29 236.84 77.658 L 236.84 77.658 C 236.739 77.488 236.639 77.318 236.539 77.147 L 236.539 77.147 C 237.208 76.794 237.88 76.446 238.545 76.086 L 238.545 76.086 C 239.301 75.676 239.813 75.111 239.745 74.173 L 239.745 74.173 C 239.712 73.732 239.582 73.317 240.338 73.222 L 240.338 73.222 C 241.135 73.122 240.6 72.507 240.503 72.145 L 240.503 72.145 C 239.961 70.098 239.38 68.059 238.814 66.018 L 238.814 66.018 C 237.961 65.099 236.781 65.068 235.667 64.873 L 235.667 64.873 C 232.591 64.341 229.505 64.437 226.418 64.74 L 226.418 64.74 L 216.689 67.161 C 216.67 67.083 216.65 67.004 216.631 66.926 L 216.631 66.926 C 219.187 65.46 221.756 64.015 224.296 62.52 L 224.296 62.52 C 226.94 60.96 226.929 60.931 226.216 58.043 L 226.216 58.043 C 226.149 57.767 226.111 57.484 226.059 57.204 L 226.059 57.204 C 225.728 56.349 225.149 56.019 224.213 56.201 L 224.213 56.201 C 223.397 56.359 222.57 56.609 221.718 56.375 L 221.718 56.375 C 219.912 57.15 217.949 56.951 215.619 57.578 L 215.619 57.578 C 216.297 56.958 216.55 56.656 216.865 56.449 L 216.865 56.449 C 219.206 54.927 220.467 53.053 218.949 50.24 L 218.949 50.24 C 218.676 49.31 218.009 49.047 217.126 49.182 L 217.126 49.182 C 215.655 49.406 214.175 49.59 212.721 49.885 L 212.721 49.885 C 209.27 50.586 206.171 52.276 202.888 53.452 L 202.888 53.452 C 201.107 54.364 200.765 54.236 200.262 51.974 L 200.262 51.974 C 199.967 50.646 199.665 49.552 197.761 49.731 L 197.761 49.731 C 200.502 47.975 198.925 45.909 198.483 43.96 L 198.483 43.96 C 198.361 43.424 197.93 42.917 198.719 42.539 L 198.719 42.539 C 199.984 41.934 199.94 40.953 199.55 39.798 L 199.55 39.798 C 199.259 38.94 199.134 38.024 198.936 37.134 L 198.936 37.134 C 198.692 36.596 198.507 36.041 197.779 36.739 L 197.779 36.739 C 197.389 37.112 196.88 37.62 196.278 37.369 L 196.278 37.369 C 194.69 36.709 193.816 37.764 192.904 38.686 L 192.904 38.686 C 191.623 39.984 190.417 41.361 188.577 41.896 L 188.577 41.896 C 187.574 42.526 186.466 42.725 185.186 42.742 L 185.186 42.742 C 186.845 39.667 185.421 37.103 184.009 34.538 L 184.009 34.538 C 183.816 34.185 183.985 33.869 184.071 33.55 L 184.071 33.55 C 184.517 31.883 184.969 30.227 185.905 28.734 L 185.905 28.734 C 186.624 27.587 186.746 26.526 185.581 25.403 L 185.581 25.403 C 184.522 24.382 183.323 23.434 182.62 22.075 L 182.62 22.075 C 180.005 20.39 177.018 20.117 174.04 19.814 L 174.04 19.814 C 173.868 19.797 173.673 19.802 173.477 19.809 L 173.477 19.809 C 172.963 19.824 172.434 19.838 172.257 19.433 L 172.257 19.433 C 171.018 16.597 168.148 16.3 165.846 15.137 L 165.846 15.137 C 164.517 14.466 163.204 13.702 161.602 13.408 L 161.602 13.408 C 161.894 14.707 162.747 15.451 163.384 16.318 Z  M 216.876 154.515 C 216.876 154.514 216.876 154.513 216.876 154.512 L 216.876 154.512 L 216.86 154.509 L 216.876 154.515 Z " fill="url(#_lgradient_14)"/><linearGradient id="_lgradient_15" x1="0.000009056187998623955" y1="0.5000234694208139" x2="0.999978762152459" y2="0.5000234694208139" gradientTransform="matrix(11.744,0,0,6.413,202.945,36.578)" gradientUnits="userSpaceOnUse"><stop offset="0%" stop-opacity="1" style="stop-color:rgb(0,159,227)"/><stop offset="10%" stop-opacity="1" style="stop-color:rgb(0,153,222)"/><stop offset="20%" stop-opacity="1" style="stop-color:rgb(0,148,217)"/><stop offset="30.000000000000004%" stop-opacity="1" style="stop-color:rgb(0,142,213)"/><stop offset="40%" stop-opacity="1" style="stop-color:rgb(0,137,208)"/><stop offset="50%" stop-opacity="1" style="stop-color:rgb(0,131,203)"/><stop offset="60%" stop-opacity="1" style="stop-color:rgb(0,126,198)"/><stop offset="70%" stop-opacity="1" style="stop-color:rgb(0,120,193)"/><stop offset="80%" stop-opacity="1" style="stop-color:rgb(0,115,189)"/><stop offset="89.99999999999999%" stop-opacity="1" style="stop-color:rgb(0,109,184)"/><stop offset="99.99999999999999%" stop-opacity="1" style="stop-color:rgb(0,104,179)"/></linearGradient><path d=" M 203.132 37.257 C 204.143 37.546 204.904 38.833 206.23 37.937 L 206.23 37.937 C 206.541 37.726 207.091 38.137 207.1 38.547 L 207.1 38.547 C 207.115 39.234 207.654 39.313 208.022 39.636 L 208.022 39.636 C 209.505 40.94 211.478 41.408 213.021 42.617 L 213.021 42.617 C 213.426 42.934 214.006 43.196 214.689 42.764 L 214.689 42.764 C 213.494 40.928 212.352 39.107 210.374 38.022 L 210.374 38.022 C 208.298 36.243 205.741 36.768 203.34 36.582 L 203.34 36.582 C 203.306 36.58 203.274 36.578 203.246 36.578 L 203.246 36.578 C 202.732 36.578 203.005 36.981 203.132 37.257 Z " fill="url(#_lgradient_15)"/><linearGradient id="_lgradient_16" x1="0.000008842120450935909" y1="0.4999252663832152" x2="0.9999564808029078" y2="0.4999252663832152" gradientTransform="matrix(4.032,0,0,2.774,215.907,41.443)" gradientUnits="userSpaceOnUse"><stop offset="0%" stop-opacity="1" style="stop-color:rgb(0,159,227)"/><stop offset="10%" stop-opacity="1" style="stop-color:rgb(0,153,222)"/><stop offset="20%" stop-opacity="1" style="stop-color:rgb(0,148,217)"/><stop offset="30.000000000000004%" stop-opacity="1" style="stop-color:rgb(0,142,213)"/><stop offset="40%" stop-opacity="1" style="stop-color:rgb(0,137,208)"/><stop offset="50%" stop-opacity="1" style="stop-color:rgb(0,131,203)"/><stop offset="60%" stop-opacity="1" style="stop-color:rgb(0,126,198)"/><stop offset="70%" stop-opacity="1" style="stop-color:rgb(0,120,193)"/><stop offset="80%" stop-opacity="1" style="stop-color:rgb(0,115,189)"/><stop offset="89.99999999999999%" stop-opacity="1" style="stop-color:rgb(0,109,184)"/><stop offset="99.99999999999999%" stop-opacity="1" style="stop-color:rgb(0,104,179)"/></linearGradient><path d=" M 215.985 41.833 C 215.597 43.042 216.747 43.168 217.322 43.644 L 217.322 43.644 C 218.078 44.272 219.08 44.507 219.771 43.707 L 219.771 43.707 C 220.415 42.959 218.992 42.804 219.019 42.124 L 219.019 42.124 C 218.425 41.737 217.824 41.443 217.195 41.443 L 217.195 41.443 C 216.804 41.443 216.403 41.557 215.985 41.833 Z " fill="url(#_lgradient_16)"/><clipPath id="_clipPath_EJVf4z2xzCyb7gPbTHTxur5RHk0kYTjj"><path d=" M -222.874 -129.831 L 500.149 -129.831 L 500.149 361.353 L -222.874 361.353 L -222.874 -129.831 Z " fill="rgb(255,255,255)"/></clipPath><g clip-path="url(#_clipPath_EJVf4z2xzCyb7gPbTHTxur5RHk0kYTjj)"><path d=" M 221.617 18.863 C 221.617 18.863 214.405 15.039 215.529 13.055 C 216.651 11.073 223.788 15.277 223.788 15.277 L 236.346 10.648 L 238.915 11.602 L 227.998 17.823 L 235.641 23.08 L 240.085 22.137 L 241.022 22.571 L 238.074 25.738 L 236.796 30.032 L 235.946 29.444 L 234.612 24.899 L 226.029 21.299 L 225.717 33.57 L 224.168 32.149 L 221.617 18.863 Z " fill="rgb(0,137,124)"/></g><linearGradient id="_lgradient_17" x1="-0.35137187142359494" y1="0.85393663067312" x2="1.0403857938995849" y2="0.2753475404410244" gradientTransform="matrix(19.743,0,0,47.49,33.478,61.883)" gradientUnits="userSpaceOnUse"><stop offset="0%" stop-opacity="1" style="stop-color:rgb(0,159,227)"/><stop offset="10%" stop-opacity="1" style="stop-color:rgb(0,153,222)"/><stop offset="20%" stop-opacity="1" style="stop-color:rgb(0,148,217)"/><stop offset="30.000000000000004%" stop-opacity="1" style="stop-color:rgb(0,142,213)"/><stop offset="40%" stop-opacity="1" style="stop-color:rgb(0,137,208)"/><stop offset="50%" stop-opacity="1" style="stop-color:rgb(0,131,203)"/><stop offset="60%" stop-opacity="1" style="stop-color:rgb(0,126,198)"/><stop offset="70%" stop-opacity="1" style="stop-color:rgb(0,120,193)"/><stop offset="80%" stop-opacity="1" style="stop-color:rgb(0,115,189)"/><stop offset="89.99999999999999%" stop-opacity="1" style="stop-color:rgb(0,109,184)"/><stop offset="99.99999999999999%" stop-opacity="1" style="stop-color:rgb(0,104,179)"/></linearGradient><path d=" M 33.478 61.883 L 33.478 109.372 L 53.22 109.372 L 53.22 102.589 L 40.941 102.589 L 40.941 61.883 L 33.478 61.883 Z " fill="url(#_lgradient_17)"/><linearGradient id="_lgradient_18" x1="-0.1318181773732494" y1="0.9275097389433613" x2="1.131861411162932" y2="0.23248857928923072" gradientTransform="matrix(26.119,0,0,47.49,57.902,61.883)" gradientUnits="userSpaceOnUse"><stop offset="0%" stop-opacity="1" style="stop-color:rgb(0,159,227)"/><stop offset="10%" stop-opacity="1" style="stop-color:rgb(0,153,222)"/><stop offset="20%" stop-opacity="1" style="stop-color:rgb(0,148,217)"/><stop offset="30.000000000000004%" stop-opacity="1" style="stop-color:rgb(0,142,213)"/><stop offset="40%" stop-opacity="1" style="stop-color:rgb(0,137,208)"/><stop offset="50%" stop-opacity="1" style="stop-color:rgb(0,131,203)"/><stop offset="60%" stop-opacity="1" style="stop-color:rgb(0,126,198)"/><stop offset="70%" stop-opacity="1" style="stop-color:rgb(0,120,193)"/><stop offset="80%" stop-opacity="1" style="stop-color:rgb(0,115,189)"/><stop offset="89.99999999999999%" stop-opacity="1" style="stop-color:rgb(0,109,184)"/><stop offset="99.99999999999999%" stop-opacity="1" style="stop-color:rgb(0,104,179)"/></linearGradient><path d=" M 65.501 61.883 L 57.902 109.372 L 64.755 109.372 L 66.044 100.757 L 75.203 100.757 L 76.492 109.372 L 84.022 109.372 L 76.424 61.883 L 65.501 61.883 Z  M 70.59 70.295 L 74.185 94.312 L 66.993 94.312 L 70.59 70.295 Z " fill="url(#_lgradient_18)"/><linearGradient id="_lgradient_19" x1="-0.1608550679851657" y1="0.8043543610588686" x2="1.1638945479427871" y2="0.1975022851827144" gradientTransform="matrix(22.253,0,0,48.577,89.445,61.339)" gradientUnits="userSpaceOnUse"><stop offset="0%" stop-opacity="1" style="stop-color:rgb(0,159,227)"/><stop offset="10%" stop-opacity="1" style="stop-color:rgb(0,153,222)"/><stop offset="20%" stop-opacity="1" style="stop-color:rgb(0,148,217)"/><stop offset="30.000000000000004%" stop-opacity="1" style="stop-color:rgb(0,142,213)"/><stop offset="40%" stop-opacity="1" style="stop-color:rgb(0,137,208)"/><stop offset="50%" stop-opacity="1" style="stop-color:rgb(0,131,203)"/><stop offset="60%" stop-opacity="1" style="stop-color:rgb(0,126,198)"/><stop offset="70%" stop-opacity="1" style="stop-color:rgb(0,120,193)"/><stop offset="80%" stop-opacity="1" style="stop-color:rgb(0,115,189)"/><stop offset="89.99999999999999%" stop-opacity="1" style="stop-color:rgb(0,109,184)"/><stop offset="99.99999999999999%" stop-opacity="1" style="stop-color:rgb(0,104,179)"/></linearGradient><path d=" M 89.649 73.28 C 89.649 86.849 104.235 88.68 104.235 98.45 L 104.235 98.45 C 104.235 101.843 102.743 103.064 100.368 103.064 L 100.368 103.064 C 97.993 103.064 96.501 101.843 96.501 98.45 L 96.501 98.45 L 96.501 95.057 L 89.445 95.057 L 89.445 97.975 C 89.445 105.574 93.244 109.916 100.572 109.916 L 100.572 109.916 C 107.899 109.916 111.698 105.574 111.698 97.975 L 111.698 97.975 C 111.698 84.405 97.112 82.574 97.112 72.805 L 97.112 72.805 C 97.112 69.413 98.467 68.124 100.843 68.124 L 100.843 68.124 C 103.217 68.124 104.575 69.413 104.575 72.805 L 104.575 72.805 L 104.575 74.772 L 111.63 74.772 L 111.63 73.28 C 111.63 65.681 107.899 61.339 100.639 61.339 L 100.639 61.339 C 93.38 61.339 89.649 65.681 89.649 73.28 Z " fill="url(#_lgradient_19)"/><linearGradient id="_lgradient_20" x1="-0.13177683339601387" y1="0.9275097389433613" x2="1.1318077059044747" y2="0.23248857928923095" gradientTransform="matrix(26.121,0,0,47.49,117.397,61.883)" gradientUnits="userSpaceOnUse"><stop offset="0%" stop-opacity="1" style="stop-color:rgb(0,159,227)"/><stop offset="10%" stop-opacity="1" style="stop-color:rgb(0,153,222)"/><stop offset="20%" stop-opacity="1" style="stop-color:rgb(0,148,217)"/><stop offset="30.000000000000004%" stop-opacity="1" style="stop-color:rgb(0,142,213)"/><stop offset="40%" stop-opacity="1" style="stop-color:rgb(0,137,208)"/><stop offset="50%" stop-opacity="1" style="stop-color:rgb(0,131,203)"/><stop offset="60%" stop-opacity="1" style="stop-color:rgb(0,126,198)"/><stop offset="70%" stop-opacity="1" style="stop-color:rgb(0,120,193)"/><stop offset="80%" stop-opacity="1" style="stop-color:rgb(0,115,189)"/><stop offset="89.99999999999999%" stop-opacity="1" style="stop-color:rgb(0,109,184)"/><stop offset="99.99999999999999%" stop-opacity="1" style="stop-color:rgb(0,104,179)"/></linearGradient><path d=" M 124.996 61.883 L 117.397 109.372 L 124.25 109.372 L 125.539 100.757 L 134.698 100.757 L 135.987 109.372 L 143.518 109.372 L 135.919 61.883 L 124.996 61.883 Z  M 130.084 70.295 L 133.68 94.312 L 126.488 94.312 L 130.084 70.295 Z " fill="url(#_lgradient_20)"/><linearGradient id="_lgradient_21" x1="-0.1608226779092341" y1="0.8043543610588686" x2="1.1639269380187187" y2="0.1975022851827144" gradientTransform="matrix(22.253,0,0,48.577,149.217,61.339)" gradientUnits="userSpaceOnUse"><stop offset="0%" stop-opacity="1" style="stop-color:rgb(0,159,227)"/><stop offset="10%" stop-opacity="1" style="stop-color:rgb(0,153,222)"/><stop offset="20%" stop-opacity="1" style="stop-color:rgb(0,148,217)"/><stop offset="30.000000000000004%" stop-opacity="1" style="stop-color:rgb(0,142,213)"/><stop offset="40%" stop-opacity="1" style="stop-color:rgb(0,137,208)"/><stop offset="50%" stop-opacity="1" style="stop-color:rgb(0,131,203)"/><stop offset="60%" stop-opacity="1" style="stop-color:rgb(0,126,198)"/><stop offset="70%" stop-opacity="1" style="stop-color:rgb(0,120,193)"/><stop offset="80%" stop-opacity="1" style="stop-color:rgb(0,115,189)"/><stop offset="89.99999999999999%" stop-opacity="1" style="stop-color:rgb(0,109,184)"/><stop offset="99.99999999999999%" stop-opacity="1" style="stop-color:rgb(0,104,179)"/></linearGradient><path d=" M 149.421 73.28 C 149.421 86.849 164.009 88.68 164.009 98.45 L 164.009 98.45 C 164.009 101.843 162.515 103.064 160.141 103.064 L 160.141 103.064 C 157.767 103.064 156.274 101.843 156.274 98.45 L 156.274 98.45 L 156.274 95.057 L 149.217 95.057 L 149.217 97.975 C 149.217 105.574 153.017 109.916 160.345 109.916 L 160.345 109.916 C 167.672 109.916 171.47 105.574 171.47 97.975 L 171.47 97.975 C 171.47 84.405 156.884 82.574 156.884 72.805 L 156.884 72.805 C 156.884 69.413 158.241 68.124 160.616 68.124 L 160.616 68.124 C 162.99 68.124 164.347 69.413 164.347 72.805 L 164.347 72.805 L 164.347 74.772 L 171.402 74.772 L 171.402 73.28 C 171.402 65.681 167.672 61.339 160.412 61.339 L 160.412 61.339 C 153.153 61.339 149.421 65.681 149.421 73.28 Z " fill="url(#_lgradient_21)"/><linearGradient id="_lgradient_22" x1="-1.3407662629985495" y1="0.7892961462879837" x2="2.3409704488613983" y2="0.21071902447096758" gradientTransform="matrix(7.463,0,0,47.491,179.137,61.882)" gradientUnits="userSpaceOnUse"><stop offset="0%" stop-opacity="1" style="stop-color:rgb(0,159,227)"/><stop offset="10%" stop-opacity="1" style="stop-color:rgb(0,153,222)"/><stop offset="20%" stop-opacity="1" style="stop-color:rgb(0,148,217)"/><stop offset="30.000000000000004%" stop-opacity="1" style="stop-color:rgb(0,142,213)"/><stop offset="40%" stop-opacity="1" style="stop-color:rgb(0,137,208)"/><stop offset="50%" stop-opacity="1" style="stop-color:rgb(0,131,203)"/><stop offset="60%" stop-opacity="1" style="stop-color:rgb(0,126,198)"/><stop offset="70%" stop-opacity="1" style="stop-color:rgb(0,120,193)"/><stop offset="80%" stop-opacity="1" style="stop-color:rgb(0,115,189)"/><stop offset="89.99999999999999%" stop-opacity="1" style="stop-color:rgb(0,109,184)"/><stop offset="99.99999999999999%" stop-opacity="1" style="stop-color:rgb(0,104,179)"/></linearGradient><path d=" M 179.137 109.372 L 186.6 109.372 L 186.6 61.882 L 179.137 61.882 L 179.137 109.372 Z " fill="url(#_lgradient_22)"/><linearGradient id="_lgradient_23" x1="-0.00011670313639911001" y1="0.4998676089186347" x2="1.0000499878434255" y2="0.4998676089186347" gradientTransform="matrix(4.04,0,0,3.13,223.952,150.446)" gradientUnits="userSpaceOnUse"><stop offset="0%" stop-opacity="1" style="stop-color:rgb(0,159,227)"/><stop offset="10%" stop-opacity="1" style="stop-color:rgb(0,153,222)"/><stop offset="20%" stop-opacity="1" style="stop-color:rgb(0,148,217)"/><stop offset="30.000000000000004%" stop-opacity="1" style="stop-color:rgb(0,142,213)"/><stop offset="40%" stop-opacity="1" style="stop-color:rgb(0,137,208)"/><stop offset="50%" stop-opacity="1" style="stop-color:rgb(0,131,203)"/><stop offset="60%" stop-opacity="1" style="stop-color:rgb(0,126,198)"/><stop offset="70%" stop-opacity="1" style="stop-color:rgb(0,120,193)"/><stop offset="80%" stop-opacity="1" style="stop-color:rgb(0,115,189)"/><stop offset="89.99999999999999%" stop-opacity="1" style="stop-color:rgb(0,109,184)"/><stop offset="99.99999999999999%" stop-opacity="1" style="stop-color:rgb(0,104,179)"/></linearGradient><path d=" M 224.207 152.45 L 223.952 153.138 C 224.954 153.593 226.111 153.698 227.18 153.434 L 227.18 153.434 C 227.55 152.498 227.824 151.525 227.992 150.533 L 227.992 150.533 C 227.321 151.297 226.203 151.638 225.217 151.375 L 225.217 151.375 C 225.254 151.047 225.157 150.707 224.957 150.446 L 224.957 150.446 C 224.253 150.794 223.905 151.724 224.207 152.45 Z " fill="url(#_lgradient_23)"/><clipPath id="_clipPath_2Pn5umXx8N8pWhhRJRrL6KU5jvwAuVuP"><path d=" M -222.874 -129.831 L 500.149 -129.831 L 500.149 361.353 L -222.874 361.353 L -222.874 -129.831 Z " fill="rgb(255,255,255)"/></clipPath><g clip-path="url(#_clipPath_2Pn5umXx8N8pWhhRJRrL6KU5jvwAuVuP)"><path d=" M 500.476 361.353 L 142.894 361.353 L 142.894 238.23 L 500.476 238.23 L 500.476 361.353 Z " fill="rgb(0,154,147)"/></g><clipPath id="_clipPath_mxXVi5rvuN7tOsQKaPVqKvjZssuByZjM"><path d=" M -222.874 -129.831 L 500.149 -129.831 L 500.149 361.353 L -222.874 361.353 L -222.874 -129.831 Z " fill="rgb(255,255,255)"/></clipPath><g clip-path="url(#_clipPath_mxXVi5rvuN7tOsQKaPVqKvjZssuByZjM)"><g opacity="0.600006"><path d=" M 14.336 314.246 C 4.639 324.183 -10.775 325.563 -22.779 320.294 C -10.261 327.498 6.006 325.635 16.559 314.82 C 29.057 302.011 28.806 281.494 15.996 268.995 C 13.124 266.193 9.864 264.033 6.393 262.51 C 8.703 263.839 10.886 265.475 12.881 267.422 C 25.69 279.922 26.834 301.437 14.336 314.246 Z " fill="rgb(255,255,255)"/></g><path d=" M -15.859 298.643 C -16.166 297.902 -15.976 297.361 -15.313 296.871 C -13.792 295.746 -12.234 294.688 -10.561 293.797 C -10.425 293.724 -10.33 293.574 -10.216 293.46 C -8.838 292.944 -7.634 292.104 -6.364 291.387 C -5.309 290.824 -4.254 290.26 -3.131 289.659 C -3.499 289.389 -3.716 289.511 -3.933 289.577 C -7.765 290.717 -11.598 291.86 -15.431 292.999 C -16.338 293.268 -17.146 293.697 -17.77 294.425 C -18.332 293.794 -18.503 292.909 -19.139 292.327 C -19.378 290.692 -19.07 289.237 -17.733 288.135 C -16.864 287.417 -15.982 286.714 -15.106 286.007 C -14.647 285.704 -14.189 285.403 -13.729 285.101 C -12.728 284.52 -11.726 283.938 -10.725 283.357 C -10.765 283.275 -10.805 283.193 -10.846 283.111 C -12.221 283.526 -13.602 283.922 -14.893 284.588 C -15.602 283.95 -15.441 282.98 -15.801 282.209 C -15.219 281.045 -13.943 280.627 -13.128 279.695 C -14.247 279.986 -15.185 280.614 -16.122 281.245 C -16.309 281.371 -16.658 281.601 -16.679 281.577 C -17.345 280.76 -18.052 281.633 -18.722 281.508 C -19.969 280.979 -20.423 280.085 -20.363 278.282 C -19.993 277.491 -20.577 277.616 -21.017 277.602 C -22.029 277.445 -21.788 276.402 -22.248 275.856 C -22.189 275.549 -22.13 275.242 -22.059 274.879 C -22.619 275.046 -23.153 275.204 -23.687 275.363 C -24.549 275.001 -24.706 274.079 -25.213 273.436 C -25.587 272.949 -24.762 272.783 -24.983 272.203 C -25.857 272.68 -26.719 273.153 -27.579 273.623 C -28.174 273.463 -27.89 272.822 -28.195 272.502 C -28.337 271.772 -28.354 270.892 -29.512 271.605 C -29.77 271.765 -30.085 271.54 -30.353 271.408 C -30.736 271.219 -31.115 271.025 -31.496 270.832 C -32.071 270.358 -32.755 270.016 -33.223 269.411 C -33.146 268.992 -33.07 268.574 -32.993 268.154 C -32.349 267.902 -31.826 267.464 -31.295 267.039 C -30.734 266.763 -30.224 266.414 -29.591 265.822 C -31.038 266.036 -32.264 266.218 -33.489 266.4 C -34.237 266.446 -34.436 265.986 -34.554 265.35 C -34.684 264.656 -35.152 263.946 -35.052 263.307 C -34.926 262.5 -33.821 262.633 -33.281 262.135 C -32.577 262.096 -32.029 261.666 -31.402 261.4 C -32.312 261.133 -33.221 261.218 -34.126 261.232 C -34.943 261.347 -35.318 260.972 -35.42 260.169 C -35.482 259.672 -35.552 259.186 -35.482 258.689 C -35.647 257.623 -36.688 257.642 -37.307 257.124 C -36.973 258.346 -36.528 259.503 -36.692 260.753 C -36.776 261.399 -36.683 261.992 -36.437 262.578 C -36.402 262.737 -36.386 262.903 -36.327 263.053 C -36.079 263.698 -35.811 264.335 -35.561 264.979 C -35.446 265.279 -35.469 265.653 -35.706 265.803 C -36.068 266.03 -36.191 265.592 -36.348 265.382 C -36.939 264.592 -37.506 263.785 -38.082 262.983 C -37.554 261.825 -38.164 260.748 -38.333 259.642 C -38.39 259.271 -38.462 258.883 -38.291 258.564 C -37.799 257.645 -38.094 256.887 -38.652 256.13 C -39.02 255.63 -39.511 255.201 -39.679 254.452 C -38.756 254.621 -37.999 255.062 -37.233 255.448 C -35.906 256.119 -34.252 256.29 -33.537 257.926 C -33.397 258.248 -32.867 258.108 -32.51 258.144 C -30.793 258.319 -29.072 258.476 -27.565 259.449 C -27.159 260.231 -26.468 260.778 -25.857 261.367 C -25.186 262.014 -25.256 262.626 -25.671 263.287 C -26.211 264.147 -26.471 265.101 -26.728 266.063 C -26.777 266.246 -26.874 266.428 -26.763 266.632 C -25.95 268.11 -25.129 269.59 -26.085 271.362 C -25.347 271.351 -24.708 271.237 -24.13 270.874 C -23.07 270.565 -22.374 269.77 -21.636 269.024 C -21.11 268.491 -20.607 267.883 -19.692 268.263 C -19.344 268.409 -19.051 268.116 -18.826 267.9 C -18.406 267.498 -18.3 267.818 -18.159 268.129 C -18.045 268.642 -17.973 269.169 -17.806 269.664 C -17.581 270.33 -17.555 270.895 -18.284 271.244 C -18.74 271.462 -18.49 271.754 -18.42 272.063 C -18.165 273.187 -17.257 274.378 -18.836 275.39 C -17.739 275.286 -17.564 275.917 -17.394 276.683 C -17.105 277.986 -16.907 278.061 -15.88 277.535 C -13.989 276.856 -12.202 275.882 -10.213 275.479 C -9.374 275.308 -8.522 275.202 -7.675 275.073 C -7.166 274.996 -6.781 275.147 -6.623 275.683 C -5.748 277.304 -6.475 278.384 -7.825 279.262 C -8.007 279.381 -8.152 279.555 -8.543 279.913 C -7.2 279.551 -6.069 279.666 -5.027 279.219 C -4.537 279.354 -4.059 279.211 -3.589 279.119 C -3.05 279.014 -2.717 279.204 -2.525 279.697 C -2.495 279.858 -2.474 280.021 -2.434 280.181 C -2.024 281.845 -2.017 281.862 -3.542 282.761 C -5.005 283.624 -6.486 284.456 -7.959 285.302 C -7.949 285.347 -7.937 285.392 -7.926 285.437 L -2.318 284.041 C -0.539 283.866 1.24 283.81 3.013 284.118 C 3.655 284.23 4.336 284.249 4.828 284.778 C 5.154 285.954 5.487 287.129 5.801 288.309 C 5.857 288.518 6.165 288.874 5.705 288.93 C 5.27 288.985 5.345 289.224 5.363 289.479 C 5.403 290.02 5.109 290.345 4.672 290.581 C 4.289 290.789 3.902 290.99 3.516 291.193 C 3.573 291.291 3.631 291.389 3.689 291.488 C 4.712 291.275 5.736 291.063 6.759 290.851 C 8.996 290.572 11.225 290.223 13.484 290.137 C 14.154 290.111 14.815 290.078 15.302 290.665 C 15.932 291.922 15.914 293.257 15.771 294.605 C 14.819 295.061 13.867 295.516 12.915 295.973 C 13.842 296.167 14.698 296.029 15.54 295.769 C 15.755 295.825 16.074 295.773 16.116 296.054 C 16.339 297.53 17.026 298.935 16.822 300.478 C 15.18 301.304 13.538 302.131 11.896 302.957 C 11.571 303.104 11.22 303.214 10.927 303.41 C 10.598 303.626 10.853 303.773 11.057 303.894 C 11.059 304.172 11.174 304.394 11.391 304.565 C 11.489 304.992 11.588 305.418 11.687 305.844 L 11.935 308.063 C 11.699 308.208 11.462 308.352 11.225 308.496 C 10.501 308.871 9.793 309.271 9.163 309.797 C 9.008 309.894 8.853 309.991 8.699 310.087 C 5.469 312.1 2.24 314.114 -0.989 316.126 C -1.495 316.442 -1.512 316.768 -1.019 317.113 C -1.216 317.748 -0.986 318.315 -0.732 318.879 C -0.734 319.281 -0.544 319.686 -0.748 320.085 C -2.945 322.014 -4.903 324.172 -6.801 326.438 C -6.46 326.36 -6.119 326.28 -5.778 326.202 C -5.727 326.628 -5.675 327.056 -5.623 327.483 C -5.733 328.135 -5.603 328.755 -5.361 329.359 C -5.292 329.712 -5.223 330.064 -5.153 330.419 C -5.456 330.953 -5.737 331.5 -6.067 332.019 C -6.526 332.74 -6.428 333.185 -5.517 333.302 C -5.43 333.426 -5.109 333.438 -5.364 333.719 C -5.874 334.28 -5.541 334.68 -5.072 335.045 C -4.349 335.607 -3.631 336.175 -2.912 336.74 C -2.888 336.807 -2.863 336.872 -2.839 336.938 C -2.904 336.967 -2.968 336.996 -3.033 337.024 C -3.881 337.162 -4.715 337.09 -5.264 336.379 C -5.837 335.638 -6.484 335.613 -7.253 335.898 C -7.445 335.86 -7.636 335.824 -7.827 335.787 L -7.819 335.789 C -7.631 334.304 -7.631 334.304 -9.105 333.927 C -9.297 333.878 -9.489 333.834 -9.682 333.787 C -10.303 333.266 -9.706 332.872 -9.54 332.432 C -9.111 331.743 -8.683 331.055 -8.154 330.207 C -9.339 330.487 -10.191 331.123 -11.225 331.121 C -12.142 329.241 -11.806 327.561 -10.421 326.046 C -10.356 325.975 -10.323 325.875 -10.275 325.79 C -9.97 325.399 -9.678 325.002 -9.511 324.529 C -9.185 324.252 -9.007 323.877 -8.829 323.503 C -8.797 323.431 -8.721 323.318 -8.74 323.298 C -8.827 323.206 -8.878 323.294 -8.918 323.368 L -9.897 323.978 C -10.311 324.058 -10.576 324.622 -11.098 324.35 C -11.087 324.297 -11.089 324.244 -11.103 324.192 C -11.09 323.927 -11.048 323.654 -11.351 323.505 C -11.175 322.566 -11.405 321.639 -11.658 320.776 C -12.082 319.334 -11.553 318.38 -10.434 317.593 C -8.906 316.384 -7.378 315.174 -5.85 313.964 C -5.908 313.869 -5.967 313.775 -6.025 313.68 C -7.614 314.564 -9.203 315.448 -10.792 316.333 C -11.413 314.843 -11.722 313.304 -11.525 311.686 C -11.486 311.36 -11.211 311.194 -10.988 311.005 C -10.014 310.177 -9.033 309.356 -8.056 308.533 C -6.763 307.977 -5.651 307.112 -4.443 306.413 C -3.59 305.94 -2.738 305.467 -1.886 304.994 C -1.929 304.917 -1.972 304.839 -2.015 304.761 C -4.654 305.6 -7.331 306.319 -9.927 307.297 C -10.25 307.318 -10.573 307.339 -10.896 307.361 C -10.784 306.237 -11.105 305.212 -11.668 304.266 C -12.164 303.433 -11.28 303.306 -11.015 302.863 C -10.646 302.911 -10.401 302.651 -10.121 302.492 C -8.971 301.836 -7.829 301.168 -6.684 300.506 C -4.963 299.662 -3.243 298.818 -1.522 297.974 L -1.667 297.632 C -5.56 298.934 -9.451 300.24 -13.29 301.7 C -13.55 301.775 -13.798 301.849 -13.928 301.487 C -14.329 300.377 -15.211 299.589 -15.859 298.643 Z " fill="rgb(255,255,255)"/><path d=" M -11.566 268.641 C -10.426 269.266 -9.767 270.316 -9.079 271.374 C -9.472 271.623 -9.807 271.472 -10.041 271.288 C -10.93 270.592 -12.067 270.323 -12.922 269.571 C -13.134 269.385 -13.445 269.339 -13.453 268.943 C -13.459 268.707 -13.776 268.47 -13.955 268.591 C -14.72 269.108 -15.159 268.367 -15.741 268.2 C -15.818 268.031 -15.989 267.782 -15.62 267.811 C -14.236 267.918 -12.763 267.615 -11.566 268.641 Z " fill="rgb(255,255,255)"/><path d=" M -6.583 271.005 C -6.599 271.396 -5.778 271.486 -6.15 271.918 C -6.547 272.378 -7.125 272.242 -7.561 271.882 C -7.892 271.606 -8.555 271.534 -8.332 270.837 C -7.704 270.42 -7.136 270.644 -6.583 271.005 Z " fill="rgb(255,255,255)"/><g opacity="0.600006"><path d=" M -5.086 257.597 C -5.086 257.597 -9.242 255.392 -8.595 254.25 C -7.948 253.106 -3.834 255.53 -3.834 255.53 L 3.405 252.862 L 4.885 253.411 L -1.407 256.997 L 2.998 260.028 L 5.559 259.485 L 6.1 259.734 L 4.401 261.56 L 3.664 264.034 L 3.174 263.696 L 2.405 261.075 L -2.542 259.002 L -2.722 266.074 L -3.615 265.255 L -5.086 257.597 Z " fill="rgb(255,255,255)"/></g><g style="mix-blend-mode:normal;" opacity="0.600006"><text transform="matrix(0.665,0,0,0.665,-114.333,322.788)" style="font-family:'Open Sans';font-weight:400;font-size:16px;font-style:normal;font-variant-ligatures:none;letter-spacing:0.122;fill:[Object GCMYKColor];stroke:none;">ISASI LATINOAMÉRICA</text></g><path d=" M -113.533 282.394 L -109.231 282.394 L -109.231 305.858 L -102.153 305.858 L -102.153 309.769 L -113.533 309.769 L -113.533 282.394 Z " fill="rgb(255,255,255)"/><path d=" M -94.214 301.087 L -90.068 301.087 L -92.141 287.243 L -94.214 301.087 Z  M -84.398 309.769 L -88.739 309.769 L -89.482 304.802 L -94.761 304.802 L -95.504 309.769 L -99.454 309.769 L -95.073 282.394 L -88.777 282.394 L -84.398 309.769 Z " fill="rgb(255,255,255)"/><path d=" M -74.82 282.081 C -70.635 282.081 -68.484 284.584 -68.484 288.964 L -68.484 289.824 L -72.551 289.824 L -72.551 288.691 C -72.551 286.734 -73.333 285.991 -74.702 285.991 C -76.071 285.991 -76.853 286.734 -76.853 288.691 C -76.853 294.321 -68.445 295.378 -68.445 303.198 C -68.445 307.579 -70.635 310.082 -74.859 310.082 C -79.082 310.082 -81.272 307.579 -81.272 303.198 L -81.272 301.517 L -77.205 301.517 L -77.205 303.472 C -77.205 305.428 -76.345 306.131 -74.976 306.131 C -73.607 306.131 -72.747 305.428 -72.747 303.472 C -72.747 297.84 -81.155 296.785 -81.155 288.964 C -81.155 284.584 -79.004 282.081 -74.82 282.081 Z " fill="rgb(255,255,255)"/><path d=" M -59.919 301.087 L -55.774 301.087 L -57.847 287.243 L -59.919 301.087 Z  M -50.104 309.769 L -54.445 309.769 L -55.187 304.802 L -60.467 304.802 L -61.209 309.769 L -65.159 309.769 L -60.78 282.394 L -54.483 282.394 L -50.104 309.769 Z " fill="rgb(255,255,255)"/><path d=" M -40.365 282.081 C -36.181 282.081 -34.03 284.584 -34.03 288.964 L -34.03 289.824 L -38.097 289.824 L -38.097 288.691 C -38.097 286.734 -38.879 285.991 -40.248 285.991 C -41.617 285.991 -42.399 286.734 -42.399 288.691 C -42.399 294.321 -33.991 295.378 -33.991 303.198 C -33.991 307.579 -36.181 310.082 -40.404 310.082 C -44.628 310.082 -46.817 307.579 -46.817 303.198 L -46.817 301.517 L -42.75 301.517 L -42.75 303.472 C -42.75 305.428 -41.891 306.131 -40.521 306.131 C -39.153 306.131 -38.292 305.428 -38.292 303.472 C -38.292 297.84 -46.7 296.785 -46.7 288.964 C -46.7 284.584 -44.55 282.081 -40.365 282.081 Z " fill="rgb(255,255,255)"/><path d=" M -29.572 282.394 L -25.27 282.394 L -25.27 309.769 L -29.572 309.769 L -29.572 282.394 Z " fill="rgb(255,255,255)"/><path d=" M -3.593 334.598 C -3.767 334.181 -3.566 333.645 -3.161 333.443 C -3.044 333.594 -2.99 333.791 -3.01 333.98 C -2.443 334.13 -1.797 333.934 -1.41 333.493 C -1.508 334.065 -1.665 334.627 -1.879 335.165 C -2.495 335.318 -3.162 335.258 -3.739 334.995" fill="rgb(255,255,255)"/><g opacity="0.600006"><path d=" M 372.852 315.534 C 363.156 325.472 347.742 326.852 335.737 321.584 C 348.257 328.787 364.523 326.923 375.075 316.109 C 387.574 303.299 387.323 282.782 374.513 270.284 C 371.641 267.481 368.38 265.322 364.91 263.799 C 367.22 265.127 369.401 266.764 371.397 268.712 C 384.208 281.21 385.352 302.725 372.852 315.534 Z " fill="rgb(255,255,255)"/></g><path d=" M 342.658 299.933 C 342.351 299.19 342.541 298.65 343.204 298.16 C 344.725 297.036 346.283 295.977 347.956 295.086 C 348.091 295.014 348.187 294.864 348.301 294.749 C 349.679 294.233 350.882 293.392 352.153 292.676 C 353.208 292.112 354.263 291.549 355.386 290.949 C 355.018 290.678 354.801 290.799 354.585 290.865 C 350.751 292.006 346.918 293.148 343.086 294.288 C 342.179 294.556 341.371 294.985 340.746 295.714 C 340.184 295.083 340.014 294.197 339.377 293.615 C 339.14 291.981 339.447 290.526 340.784 289.423 C 341.653 288.706 342.534 288.004 343.41 287.295 C 343.868 286.993 344.328 286.691 344.788 286.391 C 345.79 285.809 346.79 285.227 347.792 284.645 L 347.671 284.4 C 346.296 284.814 344.914 285.211 343.623 285.877 C 342.914 285.239 343.075 284.269 342.716 283.498 C 343.298 282.334 344.574 281.915 345.389 280.984 C 344.27 281.275 343.333 281.902 342.395 282.534 C 342.208 282.66 341.858 282.889 341.838 282.865 C 341.172 282.049 340.464 282.921 339.794 282.796 C 338.548 282.268 338.094 281.375 338.154 279.57 C 338.523 278.779 337.94 278.905 337.5 278.891 C 336.489 278.733 336.728 277.692 336.268 277.145 C 336.328 276.837 336.387 276.531 336.457 276.167 C 335.897 276.334 335.363 276.492 334.83 276.651 C 333.968 276.289 333.811 275.367 333.304 274.724 C 332.93 274.239 333.755 274.072 333.534 273.491 C 332.659 273.969 331.798 274.441 330.936 274.912 C 330.343 274.752 330.627 274.11 330.321 273.791 C 330.181 273.061 330.161 272.182 329.005 272.894 C 328.747 273.053 328.431 272.829 328.163 272.696 C 327.781 272.508 327.402 272.314 327.021 272.121 C 326.446 271.646 325.762 271.304 325.294 270.7 C 325.37 270.281 325.446 269.862 325.524 269.443 C 326.168 269.191 326.691 268.753 327.222 268.328 C 327.783 268.052 328.293 267.703 328.925 267.111 C 327.478 267.326 326.252 267.507 325.027 267.688 C 324.28 267.734 324.08 267.275 323.963 266.639 C 323.833 265.945 323.364 265.234 323.464 264.597 C 323.59 263.789 324.695 263.922 325.236 263.424 C 325.94 263.385 326.487 262.954 327.116 262.688 C 326.204 262.422 325.296 262.506 324.391 262.52 C 323.574 262.635 323.198 262.261 323.098 261.457 C 323.035 260.961 322.964 260.476 323.034 259.978 C 322.87 258.912 321.83 258.93 321.21 258.413 C 321.544 259.635 321.989 260.791 321.825 262.043 C 321.74 262.687 321.835 263.28 322.08 263.867 C 322.116 264.025 322.13 264.191 322.189 264.342 C 322.439 264.987 322.706 265.623 322.955 266.269 C 323.071 266.567 323.048 266.943 322.811 267.091 C 322.45 267.318 322.326 266.881 322.169 266.671 C 321.577 265.881 321.011 265.074 320.435 264.273 C 320.961 263.114 320.352 262.037 320.183 260.931 C 320.125 260.56 320.055 260.172 320.226 259.853 C 320.718 258.933 320.422 258.175 319.865 257.419 C 319.497 256.919 319.005 256.489 318.837 255.741 C 319.76 255.91 320.517 256.351 321.284 256.737 C 322.611 257.408 324.265 257.579 324.979 259.214 C 325.12 259.537 325.649 259.396 326.007 259.432 C 327.724 259.608 329.446 259.766 330.953 260.737 C 331.358 261.52 332.048 262.067 332.659 262.656 C 333.33 263.303 333.261 263.914 332.846 264.575 C 332.307 265.436 332.045 266.391 331.789 267.351 C 331.74 267.535 331.642 267.718 331.754 267.92 C 332.567 269.399 333.387 270.878 332.432 272.65 C 333.169 272.639 333.808 272.525 334.386 272.162 C 335.446 271.854 336.142 271.06 336.881 270.312 C 337.405 269.781 337.91 269.173 338.825 269.553 C 339.173 269.698 339.465 269.404 339.69 269.189 C 340.11 268.787 340.217 269.107 340.357 269.417 C 340.471 269.93 340.544 270.458 340.712 270.953 C 340.936 271.619 340.961 272.184 340.233 272.532 C 339.777 272.75 340.026 273.042 340.097 273.352 C 340.351 274.475 341.26 275.666 339.68 276.678 C 340.778 276.576 340.953 277.205 341.123 277.972 C 341.411 279.275 341.61 279.349 342.636 278.823 C 344.527 278.146 346.314 277.17 348.303 276.767 C 349.143 276.597 349.995 276.491 350.842 276.362 C 351.351 276.284 351.736 276.435 351.892 276.972 C 352.769 278.593 352.042 279.673 350.693 280.551 C 350.51 280.67 350.366 280.843 349.974 281.203 C 351.317 280.84 352.447 280.955 353.49 280.508 C 353.98 280.643 354.457 280.499 354.928 280.408 C 355.467 280.303 355.8 280.492 355.992 280.986 C 356.022 281.147 356.044 281.311 356.082 281.469 C 356.493 283.134 356.5 283.151 354.975 284.05 C 353.512 284.912 352.031 285.745 350.557 286.59 C 350.569 286.635 350.579 286.68 350.591 286.726 C 352.46 286.26 354.329 285.794 356.198 285.331 C 357.979 285.155 359.757 285.099 361.529 285.407 C 362.172 285.518 362.853 285.537 363.345 286.066 C 363.671 287.243 364.004 288.417 364.318 289.597 C 364.373 289.806 364.682 290.162 364.222 290.219 C 363.787 290.274 363.861 290.513 363.88 290.767 C 363.919 291.308 363.626 291.634 363.188 291.87 C 362.805 292.078 362.418 292.278 362.033 292.481 C 362.09 292.581 362.148 292.678 362.205 292.776 L 365.276 292.139 C 367.513 291.86 369.742 291.512 372 291.426 C 372.671 291.4 373.331 291.367 373.819 291.955 C 374.448 293.21 374.431 294.545 374.287 295.894 C 373.335 296.35 372.383 296.806 371.431 297.262 C 372.359 297.456 373.215 297.317 374.056 297.057 C 374.272 297.113 374.591 297.061 374.633 297.342 C 374.855 298.82 375.543 300.223 375.338 301.767 C 373.697 302.593 372.055 303.419 370.413 304.245 C 370.088 304.392 369.737 304.503 369.443 304.698 C 369.115 304.914 369.37 305.061 369.574 305.182 C 369.576 305.461 369.691 305.683 369.908 305.854 C 370.006 306.281 370.104 306.707 370.204 307.132 C 370.286 307.872 370.37 308.613 370.453 309.352 C 370.216 309.496 369.98 309.641 369.742 309.785 C 369.017 310.16 368.309 310.56 367.68 311.086 C 367.525 311.183 367.369 311.279 367.215 311.375 C 363.986 313.389 360.757 315.402 357.528 317.415 C 357.021 317.73 357.004 318.056 357.497 318.402 C 357.301 319.038 357.531 319.603 357.783 320.167 C 357.783 320.57 357.973 320.975 357.77 321.374 C 355.572 323.302 353.613 325.46 351.716 327.727 C 352.056 327.648 352.398 327.569 352.739 327.49 C 352.79 327.916 352.842 328.345 352.894 328.771 C 352.783 329.424 352.914 330.043 353.156 330.647 C 353.225 331.001 353.294 331.354 353.363 331.707 C 353.06 332.242 352.779 332.789 352.449 333.308 C 351.99 334.029 352.089 334.475 352.999 334.59 C 353.087 334.714 353.408 334.726 353.154 335.007 C 352.643 335.568 352.977 335.969 353.444 336.333 C 354.167 336.895 354.885 337.464 355.606 338.029 C 355.629 338.096 355.654 338.161 355.677 338.226 C 355.613 338.256 355.549 338.284 355.484 338.313 C 354.636 338.45 353.802 338.379 353.252 337.667 C 352.68 336.927 352.034 336.901 351.264 337.186 C 351.072 337.15 350.88 337.112 350.69 337.075 L 350.699 337.079 C 350.886 335.593 350.886 335.593 349.412 335.215 C 349.221 335.166 349.028 335.123 348.835 335.077 C 348.213 334.555 348.812 334.16 348.978 333.721 C 349.406 333.031 349.835 332.344 350.364 331.495 C 349.178 331.775 348.325 332.412 347.292 332.411 C 346.374 330.53 346.71 328.851 348.095 327.335 C 348.16 327.263 348.194 327.165 348.242 327.078 C 348.546 326.687 348.839 326.29 349.006 325.817 C 349.333 325.541 349.51 325.166 349.688 324.791 C 349.719 324.72 349.797 324.607 349.776 324.586 C 349.69 324.496 349.639 324.582 349.598 324.658 C 349.272 324.86 348.946 325.063 348.619 325.267 C 348.205 325.346 347.941 325.91 347.419 325.639 C 347.429 325.585 347.427 325.533 347.414 325.48 C 347.426 325.216 347.469 324.943 347.166 324.793 C 347.342 323.854 347.112 322.929 346.859 322.064 C 346.435 320.623 346.964 319.668 348.083 318.881 C 349.611 317.672 351.139 316.462 352.666 315.253 C 352.608 315.158 352.549 315.063 352.491 314.969 C 350.903 315.853 349.313 316.737 347.725 317.621 C 347.104 316.132 346.795 314.592 346.991 312.974 C 347.03 312.648 347.306 312.483 347.53 312.294 C 348.503 311.466 349.482 310.644 350.461 309.821 C 351.754 309.265 352.866 308.401 354.074 307.701 C 354.927 307.229 355.778 306.755 356.631 306.283 C 356.588 306.205 356.545 306.127 356.502 306.05 C 353.862 306.889 351.186 307.608 348.589 308.585 C 348.266 308.606 347.944 308.628 347.622 308.649 C 347.733 307.525 347.412 306.501 346.85 305.555 C 346.354 304.722 347.237 304.595 347.502 304.153 C 347.87 304.199 348.116 303.941 348.396 303.78 C 349.545 303.124 350.688 302.457 351.832 301.794 C 353.553 300.95 355.274 300.106 356.995 299.263 C 356.947 299.149 356.898 299.035 356.849 298.922 C 352.957 300.223 349.066 301.528 345.227 302.99 C 344.967 303.063 344.72 303.137 344.588 302.776 C 344.188 301.665 343.304 300.878 342.658 299.933 Z " fill="rgb(255,255,255)"/><path d=" M 346.95 269.929 C 348.091 270.555 348.749 271.604 349.437 272.662 C 349.046 272.912 348.71 272.76 348.477 272.578 C 347.587 271.88 346.45 271.611 345.594 270.859 C 345.382 270.674 345.072 270.628 345.063 270.232 C 345.058 269.995 344.741 269.758 344.561 269.88 C 343.798 270.398 343.359 269.655 342.776 269.488 C 342.699 269.32 342.528 269.07 342.896 269.099 C 344.28 269.206 345.754 268.903 346.95 269.929 Z " fill="rgb(255,255,255)"/><path d=" M 351.933 272.294 C 351.917 272.685 352.738 272.775 352.366 273.207 C 351.969 273.666 351.392 273.532 350.956 273.17 C 350.624 272.894 349.961 272.822 350.185 272.126 C 350.812 271.709 351.38 271.932 351.933 272.294 Z " fill="rgb(255,255,255)"/><g opacity="0.600006"><path d=" M 353.431 258.885 C 353.431 258.885 349.274 256.681 349.921 255.538 C 350.569 254.395 354.682 256.818 354.682 256.818 L 361.922 254.15 L 363.402 254.699 L 357.109 258.286 L 361.515 261.317 L 364.076 260.773 L 364.618 261.023 L 362.917 262.848 L 362.181 265.324 L 361.69 264.985 L 360.922 262.365 L 355.975 260.29 L 355.794 267.363 L 354.901 266.544 L 353.431 258.885 Z " fill="rgb(255,255,255)"/></g><g style="mix-blend-mode:normal;" opacity="0.600006"><text transform="matrix(0.665,0,0,0.665,244.183,324.077)" style="font-family:'Open Sans';font-weight:400;font-size:16px;font-style:normal;font-variant-ligatures:none;letter-spacing:0.122;fill:[Object GCMYKColor];stroke:none;">ISASI LATINOAMÉRICA</text></g><path d=" M 244.984 283.682 L 249.286 283.682 L 249.286 307.147 L 256.364 307.147 L 256.364 311.057 L 244.984 311.057 L 244.984 283.682 Z " fill="rgb(255,255,255)"/><path d=" M 264.304 302.375 L 268.449 302.375 L 266.375 288.532 L 264.304 302.375 Z  M 274.118 311.057 L 269.778 311.057 L 269.035 306.09 L 263.755 306.09 L 263.013 311.057 L 259.063 311.057 L 263.443 283.683 L 269.739 283.683 L 274.118 311.057 Z " fill="rgb(255,255,255)"/><path d=" M 283.698 283.37 C 287.882 283.37 290.032 285.873 290.032 290.252 L 290.032 291.113 L 285.966 291.113 L 285.966 289.979 C 285.966 288.023 285.184 287.279 283.815 287.279 C 282.446 287.279 281.664 288.023 281.664 289.979 C 281.664 295.61 290.071 296.666 290.071 304.487 C 290.071 308.867 287.882 311.37 283.658 311.37 C 279.434 311.37 277.245 308.867 277.245 304.487 L 277.245 302.806 L 281.312 302.806 L 281.312 304.761 C 281.312 306.717 282.172 307.42 283.541 307.42 C 284.909 307.42 285.77 306.717 285.77 304.761 C 285.77 299.13 277.362 298.074 277.362 290.252 C 277.362 285.873 279.513 283.37 283.698 283.37 Z " fill="rgb(255,255,255)"/><path d=" M 298.597 302.375 L 302.743 302.375 L 300.67 288.532 L 298.597 302.375 Z  M 308.413 311.057 L 304.072 311.057 L 303.329 306.09 L 298.049 306.09 L 297.307 311.057 L 293.357 311.057 L 297.737 283.683 L 304.033 283.683 L 308.413 311.057 Z " fill="rgb(255,255,255)"/><path d=" M 318.152 283.37 C 322.336 283.37 324.487 285.873 324.487 290.252 L 324.487 291.113 L 320.42 291.113 L 320.42 289.979 C 320.42 288.023 319.638 287.279 318.268 287.279 C 316.901 287.279 316.118 288.023 316.118 289.979 C 316.118 295.61 324.526 296.666 324.526 304.487 C 324.526 308.867 322.336 311.37 318.112 311.37 C 313.889 311.37 311.699 308.867 311.699 304.487 L 311.699 302.806 L 315.765 302.806 L 315.765 304.761 C 315.765 306.717 316.626 307.42 317.995 307.42 C 319.364 307.42 320.223 306.717 320.223 304.761 C 320.223 299.13 311.816 298.074 311.816 290.252 C 311.816 285.873 313.967 283.37 318.152 283.37 Z " fill="rgb(255,255,255)"/><path d=" M 328.946 283.683 L 333.248 283.683 L 333.248 311.057 L 328.946 311.057 L 328.946 283.683 Z " fill="rgb(255,255,255)"/><path d=" M 354.924 335.888 C 354.749 335.469 354.951 334.933 355.356 334.732 C 355.472 334.884 355.527 335.079 355.508 335.268 C 356.074 335.418 356.719 335.223 357.107 334.782 C 357.009 335.353 356.852 335.915 356.638 336.455 C 356.021 336.607 355.354 336.546 354.778 336.284" fill="rgb(255,255,255)"/></g></g><text transform="matrix(0.982,0,0,0.982,281.445,74.566)" style="font-family:'Open Sans';font-weight:700;font-size:30px;font-style:normal;fill:#3279bd;stroke:none;">Asociación Latinoamericana de Investigadores </text><text transform="matrix(0.982,0,0,0.982,327.961,114.7)" style="font-family:'Open Sans';font-weight:700;font-size:30px;font-style:normal;fill:#3279bd;stroke:none;">en Seguridad Operacional de la Aviación</text></g></svg>