<?xml version="1.0"?>
<svg xmlns="http://www.w3.org/2000/svg" viewBox="0 0 512 512" width="512" height="512"><g id="Outline"><path d="M269.657,125.657,283.313,112H312a8.009,8.009,0,0,1,8,8v24a8.009,8.009,0,0,1-8,8H172a8,8,0,0,0-7.995,7.714l-9.146,256,15.991.572L179.723,168H312a24.027,24.027,0,0,0,24-24V120a24.027,24.027,0,0,0-24-24H280a8,8,0,0,0-5.657,2.343L260.687,112H160.617A38.474,38.474,0,0,0,168,89.305V54.7A38.738,38.738,0,0,0,129.306,16H110.694A38.738,38.738,0,0,0,72,54.7v34.61A38.474,38.474,0,0,0,79.383,112H64a40.045,40.045,0,0,0-40,40V288a24.028,24.028,0,0,0,24,24H65.422l6.583,184.286L88,495.714,81.364,310.1A24.037,24.037,0,0,0,96,288V272a8,8,0,0,0-2.343-5.657L80,252.686V176H64v80a8,8,0,0,0,2.343,5.657L80,275.314V288a8.009,8.009,0,0,1-8,8H48a8.009,8.009,0,0,1-8-8V152a24.028,24.028,0,0,1,24-24H264A8,8,0,0,0,269.657,125.657ZM110.694,112A22.721,22.721,0,0,1,88,89.305V54.7A22.721,22.721,0,0,1,110.694,32h18.612A22.721,22.721,0,0,1,152,54.7v34.61A22.721,22.721,0,0,1,129.306,112Z"/><rect x="112" y="304" width="16" height="192"/><path d="M296,424H280.617A38.474,38.474,0,0,0,288,401.305V366.7A38.738,38.738,0,0,0,249.306,328H230.694A38.738,38.738,0,0,0,192,366.7v34.61A38.474,38.474,0,0,0,199.383,424H184a40.045,40.045,0,0,0-40,40v32h16V464a24.027,24.027,0,0,1,24-24H296a24.027,24.027,0,0,1,24,24v32h16V464A40.045,40.045,0,0,0,296,424Zm-65.306,0A22.721,22.721,0,0,1,208,401.305V366.7A22.721,22.721,0,0,1,230.694,344h18.612A22.721,22.721,0,0,1,272,366.7v34.61A22.721,22.721,0,0,1,249.306,424Z"/><path d="M456,424H440.617A38.474,38.474,0,0,0,448,401.305V366.7A38.738,38.738,0,0,0,409.306,328H390.694A38.738,38.738,0,0,0,352,366.7v34.61A38.474,38.474,0,0,0,359.383,424H344v16H456a24.027,24.027,0,0,1,24,24v32h16V464A40.045,40.045,0,0,0,456,424Zm-65.306,0A22.721,22.721,0,0,1,368,401.305V366.7A22.721,22.721,0,0,1,390.694,344h18.612A22.721,22.721,0,0,1,432,366.7v34.61A22.721,22.721,0,0,1,409.306,424Z"/><path d="M504,8H200a8,8,0,0,0-8,8V48a8,8,0,0,0,8,8h8V96h16V56H480V272H224V184H208v96a8,8,0,0,0,8,8H488a8,8,0,0,0,8-8V56h8a8,8,0,0,0,8-8V16A8,8,0,0,0,504,8Zm-8,32H208V24H496Z"/><path d="M464,128a56.063,56.063,0,0,0-56-56,8,8,0,0,0-8,8v40H360a8,8,0,0,0-8,8,56,56,0,0,0,112,0Zm-95.2,8H408a8,8,0,0,0,8-8V88.8A40,40,0,1,1,368.8,136Z"/><rect x="264" y="200" width="16" height="16"/><rect x="296" y="200" width="160" height="16"/><rect x="248" y="232" width="176" height="16"/></g></svg>
